{
.appVersion = "3313";
.formatVersion = 3;
customParameters = (
{
name = glyphOrder;
value = (
space,
exclam,
quotedbl,
numbersign,
dollar,
percent,
ampersand,
quotesingle,
parenleft,
parenright,
asterisk,
plus,
comma,
minus,
period,
slash,
zero,
one,
two,
three,
four,
five,
six,
seven,
eight,
nine,
colon,
semicolon,
less,
equal,
greater,
question,
at,
A,
B,
C,
D,
E,
F,
G,
H,
I,
J,
K,
L,
M,
N,
O,
P,
Q,
R,
S,
T,
U,
V,
W,
X,
Y,
Z,
bracketleft,
backslash,
bracketright,
asciicircum,
underscore,
grave,
a,
b,
c,
d,
e,
f,
g,
h,
i,
j,
k,
l,
m,
n,
o,
p,
q,
r,
s,
t,
u,
v,
w,
x,
y,
z,
braceleft,
bar,
braceright,
asciitilde,
Adieresis,
Aring,
Ccedilla,
Eacute,
Ntilde,
Odieresis,
Udieresis,
aacute,
agrave,
acircumflex,
adieresis,
atilde,
aring,
ccedilla,
eacute,
egrave,
ecircumflex,
edieresis,
iacute,
igrave,
icircumflex,
idieresis,
ntilde,
oacute,
ograve,
ocircumflex,
odieresis,
otilde,
uacute,
ugrave,
ucircumflex,
udieresis,
dagger,
degree,
cent,
sterling,
section,
bullet,
paragraph,
germandbls,
registered,
copyright,
trademark,
acute,
dieresis,
notequal,
AE,
Oslash,
yen,
ordfeminine,
ordmasculine,
ae,
oslash,
questiondown,
exclamdown,
guillemetleft,
guillemetright,
ellipsis,
Agrave,
Atilde,
Otilde,
OE,
oe,
hyphen,
emdash,
quotedblleft,
quotedblright,
quoteleft,
quoteright,
lozenge,
ydieresis,
.notdef,
pixel
);
}
);
date = "2024-07-21 01:07:16 +0000";
familyName = "Mac Toronto";
fontMaster = (
{
id = m01;
metricValues = (
{
pos = 1800;
},
{
pos = 1800;
},
{
pos = 1000;
},
{
},
{
pos = -500;
},
{
}
);
name = "18";
}
);
glyphs = (
{
glyphname = exclam;
lastChange = "2024-07-21 02:00:35 +0000";
layers = (
{
layerId = m01;
shapes = (
{
closed = 1;
nodes = (
(400,0,l),
(500,0,l),
(500,200,l),
(400,200,l)
);
},
{
closed = 1;
nodes = (
(400,400,l),
(500,400,l),
(500,1400,l),
(400,1400,l)
);
}
);
width = 800;
}
);
unicode = 33;
},
{
glyphname = quotedbl;
lastChange = "2024-07-21 02:00:43 +0000";
layers = (
{
layerId = m01;
shapes = (
{
closed = 1;
nodes = (
(200,1000,l),
(300,1000,l),
(300,1400,l),
(200,1400,l)
);
},
{
closed = 1;
nodes = (
(500,1000,l),
(600,1000,l),
(600,1400,l),
(500,1400,l)
);
}
);
width = 800;
}
);
unicode = 34;
},
{
glyphname = numbersign;
lastChange = "2024-07-21 02:00:50 +0000";
layers = (
{
layerId = m01;
shapes = (
{
closed = 1;
nodes = (
(500,1200,l),
(200,1200,l),
(200,1100,l),
(400,1100,l),
(400,800,l),
(100,800,l),
(100,700,l),
(300,700,l),
(300,500,l),
(400,500,l),
(400,700,l),
(700,700,l),
(700,500,l),
(800,500,l),
(800,700,l),
(1100,700,l),
(1100,800,l),
(900,800,l),
(900,1100,l),
(1200,1100,l),
(1200,1200,l),
(1000,1200,l),
(1000,1400,l),
(900,1400,l),
(900,1200,l),
(600,1200,l),
(600,1400,l),
(500,1400,l)
);
},
{
closed = 1;
nodes = (
(800,800,l),
(500,800,l),
(500,1100,l),
(800,1100,l)
);
}
);
width = 1500;
}
);
unicode = 35;
},
{
glyphname = dollar;
lastChange = "2024-07-21 02:00:57 +0000";
layers = (
{
layerId = m01;
shapes = (
{
closed = 1;
nodes = (
(200,200,l),
(300,200,l),
(300,400,l),
(200,400,l)
);
},
{
closed = 1;
nodes = (
(300,100,l),
(400,100,l),
(400,200,l),
(300,200,l)
);
},
{
closed = 1;
nodes = (
(400,0,l),
(500,0,l),
(500,-200,l),
(600,-200,l),
(600,0,l),
(700,0,l),
(700,100,l),
(600,100,l),
(600,600,l),
(700,600,l),
(700,700,l),
(600,700,l),
(600,1200,l),
(700,1200,l),
(700,1300,l),
(600,1300,l),
(600,1500,l),
(500,1500,l),
(500,1300,l),
(400,1300,l),
(400,1200,l),
(500,1200,l),
(500,800,l),
(400,800,l),
(400,700,l),
(500,700,l),
(500,100,l),
(400,100,l)
);
},
{
closed = 1;
nodes = (
(700,100,l),
(800,100,l),
(800,200,l),
(700,200,l)
);
},
{
closed = 1;
nodes = (
(800,200,l),
(900,200,l),
(900,500,l),
(800,500,l)
);
},
{
closed = 1;
nodes = (
(800,600,l),
(700,600,l),
(700,500,l),
(800,500,l)
);
},
{
closed = 1;
nodes = (
(400,900,l),
(300,900,l),
(300,800,l),
(400,800,l)
);
},
{
closed = 1;
nodes = (
(300,1100,l),
(200,1100,l),
(200,900,l),
(300,900,l)
);
},
{
closed = 1;
nodes = (
(300,1100,l),
(400,1100,l),
(400,1200,l),
(300,1200,l)
);
},
{
closed = 1;
nodes = (
(700,1100,l),
(800,1100,l),
(800,1200,l),
(700,1200,l)
);
},
{
closed = 1;
nodes = (
(800,1000,l),
(900,1000,l),
(900,1100,l),
(800,1100,l)
);
}
);
width = 1200;
}
);
unicode = 36;
},
{
glyphname = percent;
lastChange = "2024-07-21 02:01:06 +0000";
layers = (
{
layerId = m01;
shapes = (
{
closed = 1;
nodes = (
(200,0,l),
(300,0,l),
(300,300,l),
(200,300,l)
);
},
{
closed = 1;
nodes = (
(300,300,l),
(400,300,l),
(400,400,l),
(300,400,l)
);
},
{
closed = 1;
nodes = (
(400,400,l),
(500,400,l),
(500,500,l),
(400,500,l)
);
},
{
closed = 1;
nodes = (
(500,500,l),
(600,500,l),
(600,600,l),
(500,600,l)
);
},
{
closed = 1;
nodes = (
(600,600,l),
(700,600,l),
(700,700,l),
(600,700,l)
);
},
{
closed = 1;
nodes = (
(700,700,l),
(800,700,l),
(800,800,l),
(700,800,l)
);
},
{
closed = 1;
nodes = (
(800,800,l),
(900,800,l),
(900,900,l),
(800,900,l)
);
},
{
closed = 1;
nodes = (
(900,900,l),
(1000,900,l),
(1000,1000,l),
(900,1000,l)
);
},
{
closed = 1;
nodes = (
(1000,1000,l),
(1100,1000,l),
(1100,1100,l),
(1000,1100,l)
);
},
{
closed = 1;
nodes = (
(1100,1100,l),
(1200,1100,l),
(1200,1300,l),
(1100,1300,l)
);
},
{
closed = 1;
nodes = (
(1100,1400,l),
(600,1400,l),
(600,1300,l),
(1100,1300,l)
);
},
{
closed = 1;
nodes = (
(300,1400,l),
(300,1300,l),
(500,1300,l),
(500,1400,l)
);
},
{
closed = 1;
nodes = (
(200,900,l),
(300,900,l),
(300,1300,l),
(200,1300,l)
);
},
{
closed = 1;
nodes = (
(300,800,l),
(500,800,l),
(500,900,l),
(300,900,l)
);
},
{
closed = 1;
nodes = (
(500,900,l),
(600,900,l),
(600,1300,l),
(500,1300,l)
);
},
{
closed = 1;
nodes = (
(1100,100,l),
(1200,100,l),
(1200,500,l),
(1100,500,l)
);
},
{
closed = 1;
nodes = (
(1100,600,l),
(900,600,l),
(900,500,l),
(1100,500,l)
);
},
{
closed = 1;
nodes = (
(800,100,l),
(900,100,l),
(900,500,l),
(800,500,l)
);
},
{
closed = 1;
nodes = (
(900,0,l),
(1100,0,l),
(1100,100,l),
(900,100,l)
);
}
);
width = 1400;
}
);
unicode = 37;
},
{
glyphname = ampersand;
lastChange = "2024-07-21 02:01:16 +0000";
layers = (
{
layerId = m01;
shapes = (
{
closed = 1;
nodes = (
(400,200,l),
(500,200,l),
(500,600,l),
(400,600,l)
);
},
{
closed = 1;
nodes = (
(500,100,l),
(600,100,l),
(600,200,l),
(500,200,l)
);
},
{
closed = 1;
nodes = (
(600,0,l),
(1000,0,l),
(1000,100,l),
(600,100,l)
);
},
{
closed = 1;
nodes = (
(1000,100,l),
(1100,100,l),
(1100,200,l),
(1000,200,l)
);
},
{
closed = 1;
nodes = (
(1100,200,l),
(1200,200,l),
(1200,300,l),
(1100,300,l)
);
},
{
closed = 1;
nodes = (
(1200,500,l),
(1100,500,l),
(1100,400,l),
(1200,400,l)
);
},
{
closed = 1;
nodes = (
(1200,300,l),
(1300,300,l),
(1300,400,l),
(1200,400,l)
);
},
{
closed = 1;
nodes = (
(1300,200,l),
(1400,200,l),
(1400,300,l),
(1300,300,l)
);
},
{
closed = 1;
nodes = (
(1400,100,l),
(1500,100,l),
(1500,200,l),
(1400,200,l)
);
},
{
closed = 1;
nodes = (
(1500,0,l),
(1700,0,l),
(1700,100,l),
(1500,100,l)
);
},
{
closed = 1;
nodes = (
(1300,400,l),
(1400,400,l),
(1400,500,l),
(1300,500,l)
);
},
{
closed = 1;
nodes = (
(1400,500,l),
(1500,500,l),
(1500,700,l),
(1400,700,l)
);
},
{
closed = 1;
nodes = (
(1100,600,l),
(1000,600,l),
(1000,500,l),
(1100,500,l)
);
},
{
closed = 1;
nodes = (
(1000,700,l),
(900,700,l),
(900,600,l),
(1000,600,l)
);
},
{
closed = 1;
nodes = (
(900,800,l),
(800,800,l),
(800,700,l),
(900,700,l)
);
},
{
closed = 1;
nodes = (
(800,900,l),
(700,900,l),
(700,800,l),
(800,800,l)
);
},
{
closed = 1;
nodes = (
(700,1000,l),
(600,1000,l),
(600,900,l),
(700,900,l)
);
},
{
closed = 1;
nodes = (
(600,1300,l),
(500,1300,l),
(500,1000,l),
(600,1000,l)
);
},
{
closed = 1;
nodes = (
(600,1300,l),
(900,1300,l),
(900,1400,l),
(600,1400,l)
);
},
{
closed = 1;
nodes = (
(900,1000,l),
(1000,1000,l),
(1000,1300,l),
(900,1300,l)
);
},
{
closed = 1;
nodes = (
(800,900,l),
(900,900,l),
(900,1000,l),
(800,1000,l)
);
},
{
closed = 1;
nodes = (
(600,700,l),
(700,700,l),
(700,800,l),
(600,800,l)
);
},
{
closed = 1;
nodes = (
(500,600,l),
(600,600,l),
(600,700,l),
(500,700,l)
);
}
);
width = 1900;
}
);
unicode = 38;
},
{
glyphname = quotesingle;
lastChange = "2024-07-21 02:01:21 +0000";
layers = (
{
layerId = m01;
shapes = (
{
closed = 1;
nodes = (
(200,1000,l),
(300,1000,l),
(300,1400,l),
(200,1400,l)
);
}
);
width = 600;
}
);
unicode = 39;
},
{
glyphname = parenleft;
lastChange = "2024-07-21 02:01:26 +0000";
layers = (
{
layerId = m01;
shapes = (
{
closed = 1;
nodes = (
(500,1500,l),
(600,1500,l),
(600,1600,l),
(500,1600,l)
);
},
{
closed = 1;
nodes = (
(400,1400,l),
(500,1400,l),
(500,1500,l),
(400,1500,l)
);
},
{
closed = 1;
nodes = (
(300,1200,l),
(400,1200,l),
(400,1400,l),
(300,1400,l)
);
},
{
closed = 1;
nodes = (
(200,200,l),
(300,200,l),
(300,1200,l),
(200,1200,l)
);
},
{
closed = 1;
nodes = (
(300,0,l),
(400,0,l),
(400,200,l),
(300,200,l)
);
},
{
closed = 1;
nodes = (
(400,-100,l),
(500,-100,l),
(500,0,l),
(400,0,l)
);
},
{
closed = 1;
nodes = (
(500,-200,l),
(600,-200,l),
(600,-100,l),
(500,-100,l)
);
}
);
width = 900;
}
);
unicode = 40;
},
{
glyphname = parenright;
lastChange = "2024-07-21 02:01:29 +0000";
layers = (
{
layerId = m01;
shapes = (
{
closed = 1;
nodes = (
(300,-200,l),
(400,-200,l),
(400,-100,l),
(300,-100,l)
);
},
{
closed = 1;
nodes = (
(400,-100,l),
(500,-100,l),
(500,0,l),
(400,0,l)
);
},
{
closed = 1;
nodes = (
(500,0,l),
(600,0,l),
(600,200,l),
(500,200,l)
);
},
{
closed = 1;
nodes = (
(600,200,l),
(700,200,l),
(700,1200,l),
(600,1200,l)
);
},
{
closed = 1;
nodes = (
(600,1400,l),
(500,1400,l),
(500,1200,l),
(600,1200,l)
);
},
{
closed = 1;
nodes = (
(500,1500,l),
(400,1500,l),
(400,1400,l),
(500,1400,l)
);
},
{
closed = 1;
nodes = (
(400,1600,l),
(300,1600,l),
(300,1500,l),
(400,1500,l)
);
}
);
width = 900;
}
);
unicode = 41;
},
{
glyphname = asterisk;
lastChange = "2024-07-21 02:01:34 +0000";
layers = (
{
layerId = m01;
shapes = (
{
closed = 1;
nodes = (
(500,1100,l),
(400,1100,l),
(400,1000,l),
(500,1000,l),
(500,700,l),
(600,700,l),
(600,1000,l),
(700,1000,l),
(700,1100,l),
(600,1100,l),
(600,1400,l),
(500,1400,l)
);
},
{
closed = 1;
nodes = (
(400,1200,l),
(300,1200,l),
(300,1100,l),
(400,1100,l)
);
},
{
closed = 1;
nodes = (
(700,900,l),
(800,900,l),
(800,1000,l),
(700,1000,l)
);
},
{
closed = 1;
nodes = (
(800,800,l),
(900,800,l),
(900,900,l),
(800,900,l)
);
},
{
closed = 1;
nodes = (
(700,1100,l),
(800,1100,l),
(800,1200,l),
(700,1200,l)
);
},
{
closed = 1;
nodes = (
(800,1200,l),
(900,1200,l),
(900,1300,l),
(800,1300,l)
);
},
{
closed = 1;
nodes = (
(300,1300,l),
(200,1300,l),
(200,1200,l),
(300,1200,l)
);
},
{
closed = 1;
nodes = (
(300,900,l),
(400,900,l),
(400,1000,l),
(300,1000,l)
);
},
{
closed = 1;
nodes = (
(200,800,l),
(300,800,l),
(300,900,l),
(200,900,l)
);
}
);
width = 1200;
}
);
unicode = 42;
},
{
glyphname = plus;
lastChange = "2024-07-21 02:01:38 +0000";
layers = (
{
layerId = m01;
shapes = (
{
closed = 1;
nodes = (
(100,700,l),
(500,700,l),
(500,300,l),
(600,300,l),
(600,700,l),
(1000,700,l),
(1000,800,l),
(600,800,l),
(600,1200,l),
(500,1200,l),
(500,800,l),
(100,800,l)
);
}
);
width = 1200;
}
);
unicode = 43;
},
{
glyphname = comma;
lastChange = "2024-07-21 02:01:44 +0000";
layers = (
{
layerId = m01;
shapes = (
{
closed = 1;
nodes = (
(500,-100,l),
(600,-100,l),
(600,200,l),
(500,200,l)
);
},
{
closed = 1;
nodes = (
(400,-200,l),
(500,-200,l),
(500,-100,l),
(400,-100,l)
);
}
);
width = 800;
}
);
unicode = 44;
},
{
glyphname = minus;
lastChange = "2024-07-21 02:01:06 +0000";
layers = (
{
layerId = m01;
shapes = (
{
closed = 1;
nodes = (
(200,700,l),
(1100,700,l),
(1100,800,l),
(200,800,l)
);
}
);
width = 1300;
}
);
unicode = 8722;
},
{
glyphname = period;
lastChange = "2024-07-21 02:01:52 +0000";
layers = (
{
layerId = m01;
shapes = (
{
closed = 1;
nodes = (
(400,0,l),
(500,0,l),
(500,200,l),
(400,200,l)
);
}
);
width = 800;
}
);
unicode = 46;
},
{
glyphname = slash;
lastChange = "2024-07-21 02:01:56 +0000";
layers = (
{
layerId = m01;
shapes = (
{
closed = 1;
nodes = (
(200,0,l),
(300,0,l),
(300,200,l),
(200,200,l)
);
},
{
closed = 1;
nodes = (
(300,200,l),
(400,200,l),
(400,400,l),
(300,400,l)
);
},
{
closed = 1;
nodes = (
(400,400,l),
(500,400,l),
(500,600,l),
(400,600,l)
);
},
{
closed = 1;
nodes = (
(500,600,l),
(600,600,l),
(600,800,l),
(500,800,l)
);
},
{
closed = 1;
nodes = (
(600,800,l),
(700,800,l),
(700,1000,l),
(600,1000,l)
);
},
{
closed = 1;
nodes = (
(700,1000,l),
(800,1000,l),
(800,1200,l),
(700,1200,l)
);
},
{
closed = 1;
nodes = (
(800,1200,l),
(900,1200,l),
(900,1400,l),
(800,1400,l)
);
}
);
width = 1200;
}
);
unicode = 47;
},
{
glyphname = zero;
lastChange = "2024-07-21 02:01:06 +0000";
layers = (
{
layerId = m01;
shapes = (
{
closed = 1;
nodes = (
(200,400,l),
(300,400,l),
(300,1000,l),
(200,1000,l)
);
},
{
closed = 1;
nodes = (
(300,1000,l),
(400,1000,l),
(400,1200,l),
(300,1200,l)
);
},
{
closed = 1;
nodes = (
(400,1200,l),
(500,1200,l),
(500,1300,l),
(400,1300,l)
);
},
{
closed = 1;
nodes = (
(500,1300,l),
(900,1300,l),
(900,1400,l),
(500,1400,l)
);
},
{
closed = 1;
nodes = (
(900,1200,l),
(1000,1200,l),
(1000,1300,l),
(900,1300,l)
);
},
{
closed = 1;
nodes = (
(1000,1000,l),
(1100,1000,l),
(1100,1200,l),
(1000,1200,l)
);
},
{
closed = 1;
nodes = (
(1100,400,l),
(1200,400,l),
(1200,1000,l),
(1100,1000,l)
);
},
{
closed = 1;
nodes = (
(1000,200,l),
(1100,200,l),
(1100,400,l),
(1000,400,l)
);
},
{
closed = 1;
nodes = (
(900,100,l),
(1000,100,l),
(1000,200,l),
(900,200,l)
);
},
{
closed = 1;
nodes = (
(500,100,l),
(500,0,l),
(900,0,l),
(900,100,l)
);
},
{
closed = 1;
nodes = (
(500,200,l),
(400,200,l),
(400,100,l),
(500,100,l)
);
},
{
closed = 1;
nodes = (
(400,400,l),
(300,400,l),
(300,200,l),
(400,200,l)
);
}
);
width = 1400;
}
);
unicode = 48;
},
{
glyphname = one;
lastChange = "2024-07-21 02:02:05 +0000";
layers = (
{
layerId = m01;
shapes = (
{
closed = 1;
nodes = (
(700,0,l),
(1200,0,l),
(1200,100,l),
(1000,100,l),
(1000,1400,l),
(700,1400,l),
(700,1300,l),
(900,1300,l),
(900,100,l),
(700,100,l)
);
}
);
width = 1800;
}
);
unicode = 49;
},
{
glyphname = two;
lastChange = "2024-07-21 02:01:06 +0000";
layers = (
{
layerId = m01;
shapes = (
{
closed = 1;
nodes = (
(200,0,l),
(1100,0,l),
(1100,200,l),
(1000,200,l),
(1000,100,l),
(400,100,l),
(400,200,l),
(300,200,l),
(300,100,l),
(200,100,l)
);
},
{
closed = 1;
nodes = (
(400,200,l),
(500,200,l),
(500,300,l),
(400,300,l)
);
},
{
closed = 1;
nodes = (
(500,300,l),
(600,300,l),
(600,400,l),
(500,400,l)
);
},
{
closed = 1;
nodes = (
(600,400,l),
(700,400,l),
(700,500,l),
(600,500,l)
);
},
{
closed = 1;
nodes = (
(700,500,l),
(800,500,l),
(800,600,l),
(700,600,l)
);
},
{
closed = 1;
nodes = (
(800,600,l),
(900,600,l),
(900,700,l),
(800,700,l)
);
},
{
closed = 1;
nodes = (
(900,700,l),
(1000,700,l),
(1000,800,l),
(900,800,l)
);
},
{
closed = 1;
nodes = (
(1000,800,l),
(1100,800,l),
(1100,1200,l),
(1000,1200,l)
);
},
{
closed = 1;
nodes = (
(1000,1300,l),
(900,1300,l),
(900,1200,l),
(1000,1200,l)
);
},
{
closed = 1;
nodes = (
(900,1400,l),
(400,1400,l),
(400,1300,l),
(900,1300,l)
);
},
{
closed = 1;
nodes = (
(300,1200,l),
(400,1200,l),
(400,1300,l),
(300,1300,l)
);
},
{
closed = 1;
nodes = (
(200,1000,l),
(300,1000,l),
(300,1200,l),
(200,1200,l)
);
}
);
width = 1300;
}
);
unicode = 50;
},
{
glyphname = three;
lastChange = "2024-07-21 02:02:17 +0000";
layers = (
{
layerId = m01;
shapes = (
{
closed = 1;
nodes = (
(200,1100,l),
(300,1100,l),
(300,1300,l),
(1000,1300,l),
(1000,1200,l),
(1100,1200,l),
(1100,1300,l),
(1200,1300,l),
(1200,1400,l),
(200,1400,l)
);
},
{
closed = 1;
nodes = (
(900,1100,l),
(1000,1100,l),
(1000,1200,l),
(900,1200,l)
);
},
{
closed = 1;
nodes = (
(800,1000,l),
(900,1000,l),
(900,1100,l),
(800,1100,l)
);
},
{
closed = 1;
nodes = (
(700,900,l),
(600,900,l),
(600,800,l),
(900,800,l),
(900,900,l),
(800,900,l),
(800,1000,l),
(700,1000,l)
);
},
{
closed = 1;
nodes = (
(900,700,l),
(1000,700,l),
(1000,800,l),
(900,800,l)
);
},
{
closed = 1;
nodes = (
(1000,600,l),
(1100,600,l),
(1100,700,l),
(1000,700,l)
);
},
{
closed = 1;
nodes = (
(1100,300,l),
(1200,300,l),
(1200,600,l),
(1100,600,l)
);
},
{
closed = 1;
nodes = (
(1000,200,l),
(1100,200,l),
(1100,300,l),
(1000,300,l)
);
},
{
closed = 1;
nodes = (
(900,100,l),
(1000,100,l),
(1000,200,l),
(900,200,l)
);
},
{
closed = 1;
nodes = (
(500,100,l),
(500,0,l),
(900,0,l),
(900,100,l)
);
},
{
closed = 1;
nodes = (
(500,200,l),
(400,200,l),
(400,100,l),
(500,100,l)
);
},
{
closed = 1;
nodes = (
(400,300,l),
(300,300,l),
(300,200,l),
(400,200,l)
);
},
{
closed = 1;
nodes = (
(300,500,l),
(200,500,l),
(200,300,l),
(300,300,l)
);
}
);
width = 1500;
}
);
unicode = 51;
},
{
glyphname = four;
lastChange = "2024-07-21 02:01:06 +0000";
layers = (
{
layerId = m01;
shapes = (
{
closed = 1;
nodes = (
(200,500,l),
(900,500,l),
(900,100,l),
(800,100,l),
(800,0,l),
(1100,0,l),
(1100,100,l),
(1000,100,l),
(1000,500,l),
(1200,500,l),
(1200,600,l),
(1000,600,l),
(1000,1400,l),
(900,1400,l),
(900,1300,l),
(800,1300,l),
(800,1200,l),
(900,1200,l),
(900,600,l),
(300,600,l),
(300,700,l),
(200,700,l)
);
},
{
closed = 1;
nodes = (
(700,1100,l),
(800,1100,l),
(800,1200,l),
(700,1200,l)
);
},
{
closed = 1;
nodes = (
(600,1000,l),
(700,1000,l),
(700,1100,l),
(600,1100,l)
);
},
{
closed = 1;
nodes = (
(500,900,l),
(600,900,l),
(600,1000,l),
(500,1000,l)
);
},
{
closed = 1;
nodes = (
(400,800,l),
(500,800,l),
(500,900,l),
(400,900,l)
);
},
{
closed = 1;
nodes = (
(300,700,l),
(400,700,l),
(400,800,l),
(300,800,l)
);
}
);
width = 1400;
}
);
unicode = 52;
},
{
glyphname = five;
lastChange = "2024-07-21 02:01:06 +0000";
layers = (
{
layerId = m01;
shapes = (
{
closed = 1;
nodes = (
(200,900,l),
(900,900,l),
(900,1000,l),
(300,1000,l),
(300,1300,l),
(1100,1300,l),
(1100,1400,l),
(200,1400,l)
);
},
{
closed = 1;
nodes = (
(900,800,l),
(1000,800,l),
(1000,900,l),
(900,900,l)
);
},
{
closed = 1;
nodes = (
(1000,700,l),
(1100,700,l),
(1100,800,l),
(1000,800,l)
);
},
{
closed = 1;
nodes = (
(1100,300,l),
(1200,300,l),
(1200,700,l),
(1100,700,l)
);
},
{
closed = 1;
nodes = (
(1000,200,l),
(1100,200,l),
(1100,300,l),
(1000,300,l)
);
},
{
closed = 1;
nodes = (
(900,100,l),
(1000,100,l),
(1000,200,l),
(900,200,l)
);
},
{
closed = 1;
nodes = (
(500,100,l),
(500,0,l),
(900,0,l),
(900,100,l)
);
},
{
closed = 1;
nodes = (
(500,200,l),
(400,200,l),
(400,100,l),
(500,100,l)
);
},
{
closed = 1;
nodes = (
(400,300,l),
(300,300,l),
(300,200,l),
(400,200,l)
);
},
{
closed = 1;
nodes = (
(300,500,l),
(200,500,l),
(200,300,l),
(300,300,l)
);
}
);
width = 1400;
}
);
unicode = 53;
},
{
glyphname = six;
lastChange = "2024-07-21 02:01:06 +0000";
layers = (
{
layerId = m01;
shapes = (
{
closed = 1;
nodes = (
(200,300,l),
(300,300,l),
(300,700,l),
(400,700,l),
(400,800,l),
(300,800,l),
(300,1100,l),
(200,1100,l)
);
},
{
closed = 1;
nodes = (
(300,1100,l),
(400,1100,l),
(400,1200,l),
(300,1200,l)
);
},
{
closed = 1;
nodes = (
(400,1200,l),
(500,1200,l),
(500,1300,l),
(400,1300,l)
);
},
{
closed = 1;
nodes = (
(500,1300,l),
(900,1300,l),
(900,1400,l),
(500,1400,l)
);
},
{
closed = 1;
nodes = (
(900,1200,l),
(1000,1200,l),
(1000,1300,l),
(900,1300,l)
);
},
{
closed = 1;
nodes = (
(1000,1100,l),
(1100,1100,l),
(1100,1200,l),
(1000,1200,l)
);
},
{
closed = 1;
nodes = (
(300,200,l),
(400,200,l),
(400,300,l),
(300,300,l)
);
},
{
closed = 1;
nodes = (
(400,100,l),
(500,100,l),
(500,200,l),
(400,200,l)
);
},
{
closed = 1;
nodes = (
(500,0,l),
(900,0,l),
(900,100,l),
(500,100,l)
);
},
{
closed = 1;
nodes = (
(900,100,l),
(1000,100,l),
(1000,200,l),
(900,200,l)
);
},
{
closed = 1;
nodes = (
(1000,200,l),
(1100,200,l),
(1100,300,l),
(1000,300,l)
);
},
{
closed = 1;
nodes = (
(1100,300,l),
(1200,300,l),
(1200,700,l),
(1100,700,l)
);
},
{
closed = 1;
nodes = (
(1100,800,l),
(1000,800,l),
(1000,700,l),
(1100,700,l)
);
},
{
closed = 1;
nodes = (
(1000,900,l),
(900,900,l),
(900,800,l),
(1000,800,l)
);
},
{
closed = 1;
nodes = (
(900,1000,l),
(500,1000,l),
(500,900,l),
(900,900,l)
);
},
{
closed = 1;
nodes = (
(400,800,l),
(500,800,l),
(500,900,l),
(400,900,l)
);
}
);
width = 1400;
}
);
unicode = 54;
},
{
glyphname = seven;
lastChange = "2024-07-21 02:01:06 +0000";
layers = (
{
layerId = m01;
shapes = (
{
closed = 1;
nodes = (
(600,0,l),
(700,0,l),
(700,300,l),
(600,300,l)
);
},
{
closed = 1;
nodes = (
(700,300,l),
(800,300,l),
(800,600,l),
(700,600,l)
);
},
{
closed = 1;
nodes = (
(800,600,l),
(900,600,l),
(900,800,l),
(800,800,l)
);
},
{
closed = 1;
nodes = (
(900,800,l),
(1000,800,l),
(1000,1000,l),
(900,1000,l)
);
},
{
closed = 1;
nodes = (
(1000,1000,l),
(1100,1000,l),
(1100,1200,l),
(1000,1200,l)
);
},
{
closed = 1;
nodes = (
(1100,1200,l),
(1200,1200,l),
(1200,1400,l),
(200,1400,l),
(200,1200,l),
(300,1200,l),
(300,1300,l),
(1100,1300,l)
);
}
);
width = 1400;
}
);
unicode = 55;
},
{
glyphname = eight;
lastChange = "2024-07-21 02:01:06 +0000";
layers = (
{
layerId = m01;
shapes = (
{
closed = 1;
nodes = (
(500,200,l),
(400,200,l),
(400,100,l),
(500,100,l)
);
},
{
closed = 1;
nodes = (
(500,0,l),
(900,0,l),
(900,100,l),
(500,100,l)
);
},
{
closed = 1;
nodes = (
(900,100,l),
(1000,100,l),
(1000,200,l),
(900,200,l)
);
},
{
closed = 1;
nodes = (
(1000,200,l),
(1100,200,l),
(1100,300,l),
(1000,300,l)
);
},
{
closed = 1;
nodes = (
(1100,300,l),
(1200,300,l),
(1200,600,l),
(1100,600,l)
);
},
{
closed = 1;
nodes = (
(1100,700,l),
(1000,700,l),
(1000,600,l),
(1100,600,l)
);
},
{
closed = 1;
nodes = (
(1000,800,l),
(900,800,l),
(900,700,l),
(1000,700,l)
);
},
{
closed = 1;
nodes = (
(900,900,l),
(500,900,l),
(500,800,l),
(900,800,l)
);
},
{
closed = 1;
nodes = (
(500,1000,l),
(400,1000,l),
(400,900,l),
(500,900,l)
);
},
{
closed = 1;
nodes = (
(400,700,l),
(500,700,l),
(500,800,l),
(400,800,l)
);
},
{
closed = 1;
nodes = (
(300,600,l),
(400,600,l),
(400,700,l),
(300,700,l)
);
},
{
closed = 1;
nodes = (
(400,300,l),
(300,300,l),
(300,200,l),
(400,200,l)
);
},
{
closed = 1;
nodes = (
(300,600,l),
(200,600,l),
(200,300,l),
(300,300,l)
);
},
{
closed = 1;
nodes = (
(900,900,l),
(1000,900,l),
(1000,1000,l),
(900,1000,l)
);
},
{
closed = 1;
nodes = (
(1000,1000,l),
(1100,1000,l),
(1100,1200,l),
(1000,1200,l)
);
},
{
closed = 1;
nodes = (
(1000,1300,l),
(900,1300,l),
(900,1200,l),
(1000,1200,l)
);
},
{
closed = 1;
nodes = (
(900,1400,l),
(500,1400,l),
(500,1300,l),
(900,1300,l)
);
},
{
closed = 1;
nodes = (
(400,1200,l),
(500,1200,l),
(500,1300,l),
(400,1300,l)
);
},
{
closed = 1;
nodes = (
(300,1000,l),
(400,1000,l),
(400,1200,l),
(300,1200,l)
);
}
);
width = 1400;
}
);
unicode = 56;
},
{
glyphname = nine;
lastChange = "2024-07-21 02:01:06 +0000";
layers = (
{
layerId = m01;
shapes = (
{
closed = 1;
nodes = (
(300,200,l),
(400,200,l),
(400,300,l),
(300,300,l)
);
},
{
closed = 1;
nodes = (
(400,100,l),
(500,100,l),
(500,200,l),
(400,200,l)
);
},
{
closed = 1;
nodes = (
(500,0,l),
(900,0,l),
(900,100,l),
(500,100,l)
);
},
{
closed = 1;
nodes = (
(900,100,l),
(1000,100,l),
(1000,200,l),
(900,200,l)
);
},
{
closed = 1;
nodes = (
(1000,200,l),
(1100,200,l),
(1100,300,l),
(1000,300,l)
);
},
{
closed = 1;
nodes = (
(1100,300,l),
(1200,300,l),
(1200,1100,l),
(1100,1100,l),
(1100,700,l),
(1000,700,l),
(1000,600,l),
(1100,600,l)
);
},
{
closed = 1;
nodes = (
(1100,1200,l),
(1000,1200,l),
(1000,1100,l),
(1100,1100,l)
);
},
{
closed = 1;
nodes = (
(1000,1300,l),
(900,1300,l),
(900,1200,l),
(1000,1200,l)
);
},
{
closed = 1;
nodes = (
(900,1400,l),
(500,1400,l),
(500,1300,l),
(900,1300,l)
);
},
{
closed = 1;
nodes = (
(400,1200,l),
(500,1200,l),
(500,1300,l),
(400,1300,l)
);
},
{
closed = 1;
nodes = (
(300,1100,l),
(400,1100,l),
(400,1200,l),
(300,1200,l)
);
},
{
closed = 1;
nodes = (
(200,700,l),
(300,700,l),
(300,1100,l),
(200,1100,l)
);
},
{
closed = 1;
nodes = (
(300,600,l),
(400,600,l),
(400,700,l),
(300,700,l)
);
},
{
closed = 1;
nodes = (
(400,500,l),
(500,500,l),
(500,600,l),
(400,600,l)
);
},
{
closed = 1;
nodes = (
(500,400,l),
(900,400,l),
(900,500,l),
(500,500,l)
);
},
{
closed = 1;
nodes = (
(900,500,l),
(1000,500,l),
(1000,600,l),
(900,600,l)
);
}
);
width = 1400;
}
);
unicode = 57;
},
{
glyphname = colon;
lastChange = "2024-07-21 02:02:30 +0000";
layers = (
{
layerId = m01;
shapes = (
{
closed = 1;
nodes = (
(400,0,l),
(500,0,l),
(500,200,l),
(400,200,l)
);
},
{
closed = 1;
nodes = (
(400,800,l),
(500,800,l),
(500,1000,l),
(400,1000,l)
);
}
);
width = 800;
}
);
unicode = 58;
},
{
glyphname = semicolon;
lastChange = "2024-07-21 02:02:37 +0000";
layers = (
{
layerId = m01;
shapes = (
{
closed = 1;
nodes = (
(400,800,l),
(500,800,l),
(500,1000,l),
(400,1000,l)
);
},
{
closed = 1;
nodes = (
(400,-100,l),
(500,-100,l),
(500,200,l),
(400,200,l)
);
},
{
closed = 1;
nodes = (
(300,-200,l),
(400,-200,l),
(400,-100,l),
(300,-100,l)
);
}
);
width = 800;
}
);
unicode = 59;
},
{
glyphname = less;
lastChange = "2024-07-21 02:02:43 +0000";
layers = (
{
layerId = m01;
shapes = (
{
closed = 1;
nodes = (
(600,400,l),
(500,400,l),
(500,300,l),
(600,300,l)
);
},
{
closed = 1;
nodes = (
(600,200,l),
(700,200,l),
(700,300,l),
(600,300,l)
);
},
{
closed = 1;
nodes = (
(500,500,l),
(400,500,l),
(400,400,l),
(500,400,l)
);
},
{
closed = 1;
nodes = (
(400,600,l),
(300,600,l),
(300,500,l),
(400,500,l)
);
},
{
closed = 1;
nodes = (
(300,700,l),
(200,700,l),
(200,600,l),
(300,600,l)
);
},
{
closed = 1;
nodes = (
(300,700,l),
(400,700,l),
(400,800,l),
(300,800,l)
);
},
{
closed = 1;
nodes = (
(400,800,l),
(500,800,l),
(500,900,l),
(400,900,l)
);
},
{
closed = 1;
nodes = (
(500,900,l),
(600,900,l),
(600,1000,l),
(500,1000,l)
);
},
{
closed = 1;
nodes = (
(600,1000,l),
(700,1000,l),
(700,1100,l),
(600,1100,l)
);
}
);
width = 1000;
}
);
unicode = 60;
},
{
glyphname = equal;
lastChange = "2024-07-21 02:01:06 +0000";
layers = (
{
layerId = m01;
shapes = (
{
closed = 1;
nodes = (
(200,800,l),
(900,800,l),
(900,900,l),
(200,900,l)
);
},
{
closed = 1;
nodes = (
(200,400,l),
(900,400,l),
(900,500,l),
(200,500,l)
);
}
);
width = 1100;
}
);
unicode = 61;
},
{
glyphname = greater;
lastChange = "2024-07-21 02:02:50 +0000";
layers = (
{
layerId = m01;
shapes = (
{
closed = 1;
nodes = (
(300,200,l),
(400,200,l),
(400,300,l),
(300,300,l)
);
},
{
closed = 1;
nodes = (
(400,300,l),
(500,300,l),
(500,400,l),
(400,400,l)
);
},
{
closed = 1;
nodes = (
(500,400,l),
(600,400,l),
(600,500,l),
(500,500,l)
);
},
{
closed = 1;
nodes = (
(600,500,l),
(700,500,l),
(700,600,l),
(600,600,l)
);
},
{
closed = 1;
nodes = (
(700,800,l),
(600,800,l),
(600,700,l),
(700,700,l)
);
},
{
closed = 1;
nodes = (
(700,600,l),
(800,600,l),
(800,700,l),
(700,700,l)
);
},
{
closed = 1;
nodes = (
(600,900,l),
(500,900,l),
(500,800,l),
(600,800,l)
);
},
{
closed = 1;
nodes = (
(500,1000,l),
(400,1000,l),
(400,900,l),
(500,900,l)
);
},
{
closed = 1;
nodes = (
(400,1100,l),
(300,1100,l),
(300,1000,l),
(400,1000,l)
);
}
);
width = 1000;
}
);
unicode = 62;
},
{
glyphname = question;
lastChange = "2024-07-21 02:02:56 +0000";
layers = (
{
layerId = m01;
shapes = (
{
closed = 1;
nodes = (
(700,0,l),
(800,0,l),
(800,200,l),
(700,200,l)
);
},
{
closed = 1;
nodes = (
(700,400,l),
(800,400,l),
(800,600,l),
(700,600,l)
);
},
{
closed = 1;
nodes = (
(800,600,l),
(900,600,l),
(900,700,l),
(800,700,l)
);
},
{
closed = 1;
nodes = (
(900,700,l),
(1000,700,l),
(1000,800,l),
(900,800,l)
);
},
{
closed = 1;
nodes = (
(1000,800,l),
(1100,800,l),
(1100,900,l),
(1000,900,l)
);
},
{
closed = 1;
nodes = (
(1100,900,l),
(1200,900,l),
(1200,1200,l),
(1100,1200,l)
);
},
{
closed = 1;
nodes = (
(1100,1300,l),
(1000,1300,l),
(1000,1200,l),
(1100,1200,l)
);
},
{
closed = 1;
nodes = (
(1000,1400,l),
(500,1400,l),
(500,1300,l),
(1000,1300,l)
);
},
{
closed = 1;
nodes = (
(400,1200,l),
(500,1200,l),
(500,1300,l),
(400,1300,l)
);
},
{
closed = 1;
nodes = (
(300,1000,l),
(400,1000,l),
(400,1200,l),
(300,1200,l)
);
}
);
width = 1500;
}
);
unicode = 63;
},
{
glyphname = at;
lastChange = "2024-07-21 02:03:02 +0000";
layers = (
{
layerId = m01;
shapes = (
{
closed = 1;
nodes = (
(800,0,l),
(800,-100,l),
(1300,-100,l),
(1300,0,l)
);
},
{
closed = 1;
nodes = (
(800,100,l),
(600,100,l),
(600,0,l),
(800,0,l)
);
},
{
closed = 1;
nodes = (
(600,300,l),
(500,300,l),
(500,100,l),
(600,100,l)
);
},
{
closed = 1;
nodes = (
(500,800,l),
(400,800,l),
(400,300,l),
(500,300,l)
);
},
{
closed = 1;
nodes = (
(500,800,l),
(600,800,l),
(600,1000,l),
(500,1000,l)
);
},
{
closed = 1;
nodes = (
(600,1000,l),
(800,1000,l),
(800,1100,l),
(600,1100,l)
);
},
{
closed = 1;
nodes = (
(800,1100,l),
(1300,1100,l),
(1300,1200,l),
(800,1200,l)
);
},
{
closed = 1;
nodes = (
(1300,1000,l),
(1500,1000,l),
(1500,1100,l),
(1300,1100,l)
);
},
{
closed = 1;
nodes = (
(1500,800,l),
(1600,800,l),
(1600,1000,l),
(1500,1000,l)
);
},
{
closed = 1;
nodes = (
(1600,400,l),
(1700,400,l),
(1700,800,l),
(1600,800,l)
);
},
{
closed = 1;
nodes = (
(1500,300,l),
(1600,300,l),
(1600,400,l),
(1500,400,l)
);
},
{
closed = 1;
nodes = (
(1300,300,l),
(1300,200,l),
(1500,200,l),
(1500,300,l)
);
},
{
closed = 1;
nodes = (
(1300,800,l),
(1200,800,l),
(1200,400,l),
(1100,400,l),
(1100,300,l),
(1300,300,l)
);
},
{
closed = 1;
nodes = (
(1200,900,l),
(900,900,l),
(900,800,l),
(1200,800,l)
);
},
{
closed = 1;
nodes = (
(800,700,l),
(900,700,l),
(900,800,l),
(800,800,l)
);
},
{
closed = 1;
nodes = (
(700,300,l),
(800,300,l),
(800,700,l),
(700,700,l)
);
},
{
closed = 1;
nodes = (
(800,200,l),
(1100,200,l),
(1100,300,l),
(800,300,l)
);
}
);
width = 2100;
}
);
unicode = 64;
},
{
glyphname = A;
lastChange = "2024-07-21 02:03:06 +0000";
layers = (
{
layerId = m01;
shapes = (
{
closed = 1;
nodes = (
(100,0,l),
(600,0,l),
(600,100,l),
(400,100,l),
(400,300,l),
(300,300,l),
(300,100,l),
(100,100,l)
);
},
{
closed = 1;
nodes = (
(400,300,l),
(500,300,l),
(500,500,l),
(1200,500,l),
(1200,300,l),
(1300,300,l),
(1300,600,l),
(1200,600,l),
(1200,800,l),
(1100,800,l),
(1100,600,l),
(600,600,l),
(600,800,l),
(500,800,l),
(500,600,l),
(400,600,l)
);
},
{
closed = 1;
nodes = (
(600,800,l),
(700,800,l),
(700,1000,l),
(600,1000,l)
);
},
{
closed = 1;
nodes = (
(700,1000,l),
(800,1000,l),
(800,1200,l),
(700,1200,l)
);
},
{
closed = 1;
nodes = (
(800,1200,l),
(900,1200,l),
(900,1400,l),
(800,1400,l)
);
},
{
closed = 1;
nodes = (
(900,1000,l),
(1000,1000,l),
(1000,1200,l),
(900,1200,l)
);
},
{
closed = 1;
nodes = (
(1000,800,l),
(1100,800,l),
(1100,1000,l),
(1000,1000,l)
);
},
{
closed = 1;
nodes = (
(1300,100,l),
(1100,100,l),
(1100,0,l),
(1600,0,l),
(1600,100,l),
(1400,100,l),
(1400,300,l),
(1300,300,l)
);
}
);
width = 1800;
}
);
unicode = 65;
},
{
glyphname = B;
lastChange = "2024-07-21 02:01:06 +0000";
layers = (
{
layerId = m01;
shapes = (
{
closed = 1;
nodes = (
(200,0,l),
(1200,0,l),
(1200,100,l),
(500,100,l),
(500,700,l),
(1200,700,l),
(1200,900,l),
(1100,900,l),
(1100,800,l),
(500,800,l),
(500,1300,l),
(1100,1300,l),
(1100,1400,l),
(200,1400,l),
(200,1300,l),
(400,1300,l),
(400,100,l),
(200,100,l)
);
},
{
closed = 1;
nodes = (
(1100,1200,l),
(1200,1200,l),
(1200,1300,l),
(1100,1300,l)
);
},
{
closed = 1;
nodes = (
(1200,900,l),
(1300,900,l),
(1300,1200,l),
(1200,1200,l)
);
},
{
closed = 1;
nodes = (
(1200,100,l),
(1300,100,l),
(1300,200,l),
(1200,200,l)
);
},
{
closed = 1;
nodes = (
(1300,200,l),
(1400,200,l),
(1400,600,l),
(1300,600,l)
);
},
{
closed = 1;
nodes = (
(1300,700,l),
(1200,700,l),
(1200,600,l),
(1300,600,l)
);
}
);
width = 1600;
}
);
unicode = 66;
},
{
glyphname = C;
lastChange = "2024-07-21 02:03:12 +0000";
layers = (
{
layerId = m01;
shapes = (
{
closed = 1;
nodes = (
(200,400,l),
(300,400,l),
(300,1000,l),
(200,1000,l)
);
},
{
closed = 1;
nodes = (
(300,1000,l),
(400,1000,l),
(400,1200,l),
(300,1200,l)
);
},
{
closed = 1;
nodes = (
(400,1200,l),
(600,1200,l),
(600,1300,l),
(400,1300,l)
);
},
{
closed = 1;
nodes = (
(600,1300,l),
(1000,1300,l),
(1000,1400,l),
(600,1400,l)
);
},
{
closed = 1;
nodes = (
(1000,1200,l),
(1200,1200,l),
(1200,1300,l),
(1000,1300,l)
);
},
{
closed = 1;
nodes = (
(1200,1100,l),
(1300,1100,l),
(1300,1200,l),
(1200,1200,l)
);
},
{
closed = 1;
nodes = (
(300,200,l),
(400,200,l),
(400,400,l),
(300,400,l)
);
},
{
closed = 1;
nodes = (
(400,100,l),
(600,100,l),
(600,200,l),
(400,200,l)
);
},
{
closed = 1;
nodes = (
(600,0,l),
(1000,0,l),
(1000,100,l),
(600,100,l)
);
},
{
closed = 1;
nodes = (
(1000,100,l),
(1200,100,l),
(1200,200,l),
(1000,200,l)
);
},
{
closed = 1;
nodes = (
(1200,200,l),
(1300,200,l),
(1300,300,l),
(1200,300,l)
);
}
);
width = 1600;
}
);
unicode = 67;
},
{
glyphname = D;
lastChange = "2024-07-21 02:01:06 +0000";
layers = (
{
layerId = m01;
shapes = (
{
closed = 1;
nodes = (
(200,0,l),
(1000,0,l),
(1000,100,l),
(500,100,l),
(500,1300,l),
(1000,1300,l),
(1000,1400,l),
(200,1400,l),
(200,1300,l),
(400,1300,l),
(400,100,l),
(200,100,l)
);
},
{
closed = 1;
nodes = (
(1000,1200,l),
(1200,1200,l),
(1200,1300,l),
(1000,1300,l)
);
},
{
closed = 1;
nodes = (
(1200,1000,l),
(1300,1000,l),
(1300,1200,l),
(1200,1200,l)
);
},
{
closed = 1;
nodes = (
(1300,400,l),
(1400,400,l),
(1400,1000,l),
(1300,1000,l)
);
},
{
closed = 1;
nodes = (
(1200,200,l),
(1300,200,l),
(1300,400,l),
(1200,400,l)
);
},
{
closed = 1;
nodes = (
(1000,100,l),
(1200,100,l),
(1200,200,l),
(1000,200,l)
);
}
);
width = 1600;
}
);
unicode = 68;
},
{
glyphname = E;
lastChange = "2024-07-21 02:01:06 +0000";
layers = (
{
layerId = m01;
shapes = (
{
closed = 1;
nodes = (
(200,0,l),
(1200,0,l),
(1200,300,l),
(1100,300,l),
(1100,100,l),
(500,100,l),
(500,700,l),
(800,700,l),
(800,600,l),
(900,600,l),
(900,900,l),
(800,900,l),
(800,800,l),
(500,800,l),
(500,1300,l),
(1100,1300,l),
(1100,1100,l),
(1200,1100,l),
(1200,1400,l),
(200,1400,l),
(200,1300,l),
(400,1300,l),
(400,100,l),
(200,100,l)
);
}
);
width = 1400;
}
);
unicode = 69;
},
{
glyphname = F;
lastChange = "2024-07-21 02:01:06 +0000";
layers = (
{
layerId = m01;
shapes = (
{
closed = 1;
nodes = (
(200,0,l),
(700,0,l),
(700,100,l),
(500,100,l),
(500,700,l),
(900,700,l),
(900,600,l),
(1000,600,l),
(1000,900,l),
(900,900,l),
(900,800,l),
(500,800,l),
(500,1300,l),
(1100,1300,l),
(1100,1100,l),
(1200,1100,l),
(1200,1400,l),
(200,1400,l),
(200,1300,l),
(400,1300,l),
(400,100,l),
(200,100,l)
);
}
);
width = 1400;
}
);
unicode = 70;
},
{
glyphname = G;
lastChange = "2024-07-21 02:01:06 +0000";
layers = (
{
layerId = m01;
shapes = (
{
closed = 1;
nodes = (
(200,400,l),
(300,400,l),
(300,1000,l),
(200,1000,l)
);
},
{
closed = 1;
nodes = (
(300,1000,l),
(400,1000,l),
(400,1200,l),
(300,1200,l)
);
},
{
closed = 1;
nodes = (
(400,1200,l),
(600,1200,l),
(600,1300,l),
(400,1300,l)
);
},
{
closed = 1;
nodes = (
(600,1300,l),
(1000,1300,l),
(1000,1400,l),
(600,1400,l)
);
},
{
closed = 1;
nodes = (
(1000,1200,l),
(1200,1200,l),
(1200,1300,l),
(1000,1300,l)
);
},
{
closed = 1;
nodes = (
(1200,1100,l),
(1300,1100,l),
(1300,1200,l),
(1200,1200,l)
);
},
{
closed = 1;
nodes = (
(300,200,l),
(400,200,l),
(400,400,l),
(300,400,l)
);
},
{
closed = 1;
nodes = (
(400,100,l),
(600,100,l),
(600,200,l),
(400,200,l)
);
},
{
closed = 1;
nodes = (
(600,0,l),
(1000,0,l),
(1000,100,l),
(600,100,l)
);
},
{
closed = 1;
nodes = (
(1000,100,l),
(1200,100,l),
(1200,200,l),
(1000,200,l)
);
},
{
closed = 1;
nodes = (
(1200,200,l),
(1300,200,l),
(1300,0,l),
(1400,0,l),
(1400,800,l),
(800,800,l),
(800,700,l),
(1300,700,l),
(1300,300,l),
(1200,300,l)
);
}
);
width = 1600;
}
);
unicode = 71;
},
{
glyphname = H;
lastChange = "2024-07-21 02:01:06 +0000";
layers = (
{
layerId = m01;
shapes = (
{
closed = 1;
nodes = (
(200,0,l),
(700,0,l),
(700,100,l),
(500,100,l),
(500,700,l),
(1300,700,l),
(1300,100,l),
(1100,100,l),
(1100,0,l),
(1600,0,l),
(1600,100,l),
(1400,100,l),
(1400,1300,l),
(1600,1300,l),
(1600,1400,l),
(1100,1400,l),
(1100,1300,l),
(1300,1300,l),
(1300,800,l),
(500,800,l),
(500,1300,l),
(700,1300,l),
(700,1400,l),
(200,1400,l),
(200,1300,l),
(400,1300,l),
(400,100,l),
(200,100,l)
);
}
);
width = 1800;
}
);
unicode = 72;
},
{
glyphname = I;
lastChange = "2024-07-21 02:03:22 +0000";
layers = (
{
layerId = m01;
shapes = (
{
closed = 1;
nodes = (
(200,0,l),
(700,0,l),
(700,100,l),
(500,100,l),
(500,1300,l),
(700,1300,l),
(700,1400,l),
(200,1400,l),
(200,1300,l),
(400,1300,l),
(400,100,l),
(200,100,l)
);
}
);
width = 1000;
}
);
unicode = 73;
},
{
glyphname = J;
lastChange = "2024-07-21 02:01:06 +0000";
layers = (
{
layerId = m01;
shapes = (
{
closed = 1;
nodes = (
(200,300,l),
(300,300,l),
(300,600,l),
(200,600,l)
);
},
{
closed = 1;
nodes = (
(300,200,l),
(400,200,l),
(400,300,l),
(300,300,l)
);
},
{
closed = 1;
nodes = (
(400,100,l),
(500,100,l),
(500,200,l),
(400,200,l)
);
},
{
closed = 1;
nodes = (
(500,0,l),
(900,0,l),
(900,100,l),
(500,100,l)
);
},
{
closed = 1;
nodes = (
(900,100,l),
(1000,100,l),
(1000,200,l),
(900,200,l)
);
},
{
closed = 1;
nodes = (
(1000,200,l),
(1100,200,l),
(1100,300,l),
(1000,300,l)
);
},
{
closed = 1;
nodes = (
(1100,300,l),
(1200,300,l),
(1200,1300,l),
(1400,1300,l),
(1400,1400,l),
(900,1400,l),
(900,1300,l),
(1100,1300,l)
);
}
);
width = 1600;
}
);
unicode = 74;
},
{
glyphname = K;
lastChange = "2024-07-21 02:01:06 +0000";
layers = (
{
layerId = m01;
shapes = (
{
closed = 1;
nodes = (
(200,0,l),
(700,0,l),
(700,100,l),
(500,100,l),
(500,600,l),
(600,600,l),
(600,700,l),
(500,700,l),
(500,1300,l),
(700,1300,l),
(700,1400,l),
(200,1400,l),
(200,1300,l),
(400,1300,l),
(400,100,l),
(200,100,l)
);
},
{
closed = 1;
nodes = (
(600,700,l),
(700,700,l),
(700,800,l),
(600,800,l)
);
},
{
closed = 1;
nodes = (
(700,800,l),
(800,800,l),
(800,900,l),
(700,900,l)
);
},
{
closed = 1;
nodes = (
(800,900,l),
(900,900,l),
(900,1000,l),
(800,1000,l)
);
},
{
closed = 1;
nodes = (
(900,1000,l),
(1000,1000,l),
(1000,1100,l),
(900,1100,l)
);
},
{
closed = 1;
nodes = (
(1000,1100,l),
(1100,1100,l),
(1100,1200,l),
(1000,1200,l)
);
},
{
closed = 1;
nodes = (
(1100,1200,l),
(1200,1200,l),
(1200,1300,l),
(1500,1300,l),
(1500,1400,l),
(900,1400,l),
(900,1300,l),
(1100,1300,l)
);
},
{
closed = 1;
nodes = (
(700,600,l),
(800,600,l),
(800,700,l),
(700,700,l)
);
},
{
closed = 1;
nodes = (
(900,600,l),
(800,600,l),
(800,500,l),
(900,500,l)
);
},
{
closed = 1;
nodes = (
(900,400,l),
(1000,400,l),
(1000,500,l),
(900,500,l)
);
},
{
closed = 1;
nodes = (
(1000,300,l),
(1100,300,l),
(1100,400,l),
(1000,400,l)
);
},
{
closed = 1;
nodes = (
(1100,200,l),
(1200,200,l),
(1200,300,l),
(1100,300,l)
);
},
{
closed = 1;
nodes = (
(1200,100,l),
(1000,100,l),
(1000,0,l),
(1500,0,l),
(1500,100,l),
(1300,100,l),
(1300,200,l),
(1200,200,l)
);
}
);
width = 1700;
}
);
unicode = 75;
},
{
glyphname = L;
lastChange = "2024-07-21 02:01:06 +0000";
layers = (
{
layerId = m01;
shapes = (
{
closed = 1;
nodes = (
(200,0,l),
(1200,0,l),
(1200,300,l),
(1100,300,l),
(1100,100,l),
(500,100,l),
(500,1300,l),
(700,1300,l),
(700,1400,l),
(200,1400,l),
(200,1300,l),
(400,1300,l),
(400,100,l),
(200,100,l)
);
}
);
width = 1400;
}
);
unicode = 76;
},
{
glyphname = M;
lastChange = "2024-07-21 02:03:27 +0000";
layers = (
{
layerId = m01;
shapes = (
{
closed = 1;
nodes = (
(200,0,l),
(700,0,l),
(700,100,l),
(500,100,l),
(500,1100,l),
(600,1100,l),
(600,1200,l),
(500,1200,l),
(500,1400,l),
(200,1400,l),
(200,1300,l),
(400,1300,l),
(400,100,l),
(200,100,l)
);
},
{
closed = 1;
nodes = (
(600,1200,l),
(700,1200,l),
(700,1300,l),
(600,1300,l)
);
},
{
closed = 1;
nodes = (
(700,1300,l),
(1000,1300,l),
(1000,1400,l),
(700,1400,l)
);
},
{
closed = 1;
nodes = (
(1000,1200,l),
(1100,1200,l),
(1100,1300,l),
(1000,1300,l)
);
},
{
closed = 1;
nodes = (
(1100,1100,l),
(1200,1100,l),
(1200,1200,l),
(1100,1200,l)
);
},
{
closed = 1;
nodes = (
(1200,100,l),
(1000,100,l),
(1000,0,l),
(1500,0,l),
(1500,100,l),
(1300,100,l),
(1300,1100,l),
(1200,1100,l)
);
},
{
closed = 1;
nodes = (
(1300,1100,l),
(1400,1100,l),
(1400,1200,l),
(1300,1200,l)
);
},
{
closed = 1;
nodes = (
(1400,1200,l),
(1500,1200,l),
(1500,1300,l),
(1400,1300,l)
);
},
{
closed = 1;
nodes = (
(1500,1300,l),
(1800,1300,l),
(1800,1400,l),
(1500,1400,l)
);
},
{
closed = 1;
nodes = (
(1800,1200,l),
(1900,1200,l),
(1900,1300,l),
(1800,1300,l)
);
},
{
closed = 1;
nodes = (
(1900,1100,l),
(2000,1100,l),
(2000,1200,l),
(1900,1200,l)
);
},
{
closed = 1;
nodes = (
(2000,100,l),
(1800,100,l),
(1800,0,l),
(2300,0,l),
(2300,100,l),
(2100,100,l),
(2100,1100,l),
(2000,1100,l)
);
}
);
width = 2600;
}
);
unicode = 77;
},
{
glyphname = N;
lastChange = "2024-07-21 02:01:06 +0000";
layers = (
{
layerId = m01;
shapes = (
{
closed = 1;
nodes = (
(200,0,l),
(700,0,l),
(700,100,l),
(500,100,l),
(500,1100,l),
(600,1100,l),
(600,1200,l),
(500,1200,l),
(500,1400,l),
(200,1400,l),
(200,1300,l),
(400,1300,l),
(400,100,l),
(200,100,l)
);
},
{
closed = 1;
nodes = (
(600,1200,l),
(700,1200,l),
(700,1300,l),
(600,1300,l)
);
},
{
closed = 1;
nodes = (
(700,1300,l),
(1200,1300,l),
(1200,1400,l),
(700,1400,l)
);
},
{
closed = 1;
nodes = (
(1200,1200,l),
(1300,1200,l),
(1300,1300,l),
(1200,1300,l)
);
},
{
closed = 1;
nodes = (
(1300,1100,l),
(1400,1100,l),
(1400,1200,l),
(1300,1200,l)
);
},
{
closed = 1;
nodes = (
(1400,100,l),
(1200,100,l),
(1200,0,l),
(1700,0,l),
(1700,100,l),
(1500,100,l),
(1500,1100,l),
(1400,1100,l)
);
}
);
width = 1900;
}
);
unicode = 78;
},
{
glyphname = O;
lastChange = "2024-07-21 02:01:06 +0000";
layers = (
{
layerId = m01;
shapes = (
{
closed = 1;
nodes = (
(200,400,l),
(300,400,l),
(300,1000,l),
(200,1000,l)
);
},
{
closed = 1;
nodes = (
(300,1000,l),
(400,1000,l),
(400,1200,l),
(300,1200,l)
);
},
{
closed = 1;
nodes = (
(400,1200,l),
(600,1200,l),
(600,1300,l),
(400,1300,l)
);
},
{
closed = 1;
nodes = (
(600,1300,l),
(1000,1300,l),
(1000,1400,l),
(600,1400,l)
);
},
{
closed = 1;
nodes = (
(1000,1200,l),
(1200,1200,l),
(1200,1300,l),
(1000,1300,l)
);
},
{
closed = 1;
nodes = (
(1200,1000,l),
(1300,1000,l),
(1300,1200,l),
(1200,1200,l)
);
},
{
closed = 1;
nodes = (
(1300,400,l),
(1400,400,l),
(1400,1000,l),
(1300,1000,l)
);
},
{
closed = 1;
nodes = (
(1200,200,l),
(1300,200,l),
(1300,400,l),
(1200,400,l)
);
},
{
closed = 1;
nodes = (
(1000,200,l),
(1000,100,l),
(1200,100,l),
(1200,200,l)
);
},
{
closed = 1;
nodes = (
(600,100,l),
(600,0,l),
(1000,0,l),
(1000,100,l)
);
},
{
closed = 1;
nodes = (
(600,200,l),
(400,200,l),
(400,100,l),
(600,100,l)
);
},
{
closed = 1;
nodes = (
(400,400,l),
(300,400,l),
(300,200,l),
(400,200,l)
);
}
);
width = 1600;
}
);
unicode = 79;
},
{
glyphname = P;
lastChange = "2024-07-21 02:03:35 +0000";
layers = (
{
layerId = m01;
shapes = (
{
closed = 1;
nodes = (
(200,0,l),
(700,0,l),
(700,100,l),
(500,100,l),
(500,500,l),
(1100,500,l),
(1100,600,l),
(500,600,l),
(500,1300,l),
(1100,1300,l),
(1100,1400,l),
(200,1400,l),
(200,1300,l),
(400,1300,l),
(400,100,l),
(200,100,l)
);
},
{
closed = 1;
nodes = (
(1100,1200,l),
(1200,1200,l),
(1200,1300,l),
(1100,1300,l)
);
},
{
closed = 1;
nodes = (
(1200,700,l),
(1300,700,l),
(1300,1200,l),
(1200,1200,l)
);
},
{
closed = 1;
nodes = (
(1100,600,l),
(1200,600,l),
(1200,700,l),
(1100,700,l)
);
}
);
width = 1600;
}
);
unicode = 80;
},
{
glyphname = Q;
lastChange = "2024-07-21 02:01:06 +0000";
layers = (
{
layerId = m01;
shapes = (
{
closed = 1;
nodes = (
(200,400,l),
(300,400,l),
(300,1000,l),
(200,1000,l)
);
},
{
closed = 1;
nodes = (
(300,1000,l),
(400,1000,l),
(400,1200,l),
(300,1200,l)
);
},
{
closed = 1;
nodes = (
(400,1200,l),
(600,1200,l),
(600,1300,l),
(400,1300,l)
);
},
{
closed = 1;
nodes = (
(600,1300,l),
(1000,1300,l),
(1000,1400,l),
(600,1400,l)
);
},
{
closed = 1;
nodes = (
(1000,1200,l),
(1200,1200,l),
(1200,1300,l),
(1000,1300,l)
);
},
{
closed = 1;
nodes = (
(1200,1000,l),
(1300,1000,l),
(1300,1200,l),
(1200,1200,l)
);
},
{
closed = 1;
nodes = (
(1300,400,l),
(1400,400,l),
(1400,1000,l),
(1300,1000,l)
);
},
{
closed = 1;
nodes = (
(1100,400,l),
(1100,300,l),
(1200,300,l),
(1200,200,l),
(1300,200,l),
(1300,400,l)
);
},
{
closed = 1;
nodes = (
(1000,200,l),
(1000,100,l),
(1200,100,l),
(1200,200,l)
);
},
{
closed = 1;
nodes = (
(600,100,l),
(600,0,l),
(1000,0,l),
(1000,100,l)
);
},
{
closed = 1;
nodes = (
(600,200,l),
(400,200,l),
(400,100,l),
(600,100,l)
);
},
{
closed = 1;
nodes = (
(400,400,l),
(300,400,l),
(300,200,l),
(400,200,l)
);
},
{
closed = 1;
nodes = (
(1100,500,l),
(1000,500,l),
(1000,400,l),
(1100,400,l)
);
},
{
closed = 1;
nodes = (
(1300,100,l),
(1400,100,l),
(1400,200,l),
(1300,200,l)
);
},
{
closed = 1;
nodes = (
(1400,0,l),
(1500,0,l),
(1500,100,l),
(1400,100,l)
);
}
);
width = 1700;
}
);
unicode = 81;
},
{
glyphname = R;
lastChange = "2024-07-21 02:03:40 +0000";
layers = (
{
layerId = m01;
shapes = (
{
closed = 1;
nodes = (
(200,0,l),
(700,0,l),
(700,100,l),
(500,100,l),
(500,500,l),
(900,500,l),
(900,400,l),
(1000,400,l),
(1000,500,l),
(1100,500,l),
(1100,600,l),
(500,600,l),
(500,1300,l),
(1100,1300,l),
(1100,1400,l),
(200,1400,l),
(200,1300,l),
(400,1300,l),
(400,100,l),
(200,100,l)
);
},
{
closed = 1;
nodes = (
(1100,1200,l),
(1200,1200,l),
(1200,1300,l),
(1100,1300,l)
);
},
{
closed = 1;
nodes = (
(1200,700,l),
(1300,700,l),
(1300,1200,l),
(1200,1200,l)
);
},
{
closed = 1;
nodes = (
(1100,600,l),
(1200,600,l),
(1200,700,l),
(1100,700,l)
);
},
{
closed = 1;
nodes = (
(1000,300,l),
(1100,300,l),
(1100,400,l),
(1000,400,l)
);
},
{
closed = 1;
nodes = (
(1100,200,l),
(1200,200,l),
(1200,300,l),
(1100,300,l)
);
},
{
closed = 1;
nodes = (
(1200,100,l),
(1000,100,l),
(1000,0,l),
(1500,0,l),
(1500,100,l),
(1300,100,l),
(1300,200,l),
(1200,200,l)
);
}
);
width = 1800;
}
);
unicode = 82;
},
{
glyphname = S;
lastChange = "2024-07-21 02:03:44 +0000";
layers = (
{
layerId = m01;
shapes = (
{
closed = 1;
nodes = (
(200,0,l),
(300,0,l),
(300,200,l),
(400,200,l),
(400,300,l),
(300,300,l),
(300,500,l),
(200,500,l)
);
},
{
closed = 1;
nodes = (
(400,100,l),
(500,100,l),
(500,200,l),
(400,200,l)
);
},
{
closed = 1;
nodes = (
(500,0,l),
(1000,0,l),
(1000,100,l),
(500,100,l)
);
},
{
closed = 1;
nodes = (
(1000,100,l),
(1100,100,l),
(1100,200,l),
(1000,200,l)
);
},
{
closed = 1;
nodes = (
(1100,200,l),
(1200,200,l),
(1200,600,l),
(1100,600,l)
);
},
{
closed = 1;
nodes = (
(1100,700,l),
(1000,700,l),
(1000,600,l),
(1100,600,l)
);
},
{
closed = 1;
nodes = (
(1000,800,l),
(400,800,l),
(400,700,l),
(1000,700,l)
);
},
{
closed = 1;
nodes = (
(400,900,l),
(300,900,l),
(300,800,l),
(400,800,l)
);
},
{
closed = 1;
nodes = (
(300,1200,l),
(200,1200,l),
(200,900,l),
(300,900,l)
);
},
{
closed = 1;
nodes = (
(300,1200,l),
(400,1200,l),
(400,1300,l),
(300,1300,l)
);
},
{
closed = 1;
nodes = (
(400,1300,l),
(1000,1300,l),
(1000,1400,l),
(400,1400,l)
);
},
{
closed = 1;
nodes = (
(1000,1200,l),
(1100,1200,l),
(1100,1000,l),
(1200,1000,l),
(1200,1400,l),
(1100,1400,l),
(1100,1300,l),
(1000,1300,l)
);
}
);
width = 1500;
}
);
unicode = 83;
},
{
glyphname = T;
lastChange = "2024-07-21 02:03:47 +0000";
layers = (
{
layerId = m01;
shapes = (
{
closed = 1;
nodes = (
(200,1100,l),
(300,1100,l),
(300,1300,l),
(600,1300,l),
(600,100,l),
(400,100,l),
(400,0,l),
(900,0,l),
(900,100,l),
(700,100,l),
(700,1300,l),
(1000,1300,l),
(1000,1100,l),
(1100,1100,l),
(1100,1400,l),
(200,1400,l)
);
}
);
width = 1400;
}
);
unicode = 84;
},
{
glyphname = U;
lastChange = "2024-07-21 02:01:06 +0000";
layers = (
{
layerId = m01;
shapes = (
{
closed = 1;
nodes = (
(200,1300,l),
(400,1300,l),
(400,300,l),
(500,300,l),
(500,1300,l),
(700,1300,l),
(700,1400,l),
(200,1400,l)
);
},
{
closed = 1;
nodes = (
(500,200,l),
(600,200,l),
(600,300,l),
(500,300,l)
);
},
{
closed = 1;
nodes = (
(600,100,l),
(700,100,l),
(700,200,l),
(600,200,l)
);
},
{
closed = 1;
nodes = (
(700,0,l),
(1100,0,l),
(1100,100,l),
(700,100,l)
);
},
{
closed = 1;
nodes = (
(1100,100,l),
(1200,100,l),
(1200,200,l),
(1100,200,l)
);
},
{
closed = 1;
nodes = (
(1200,200,l),
(1300,200,l),
(1300,300,l),
(1200,300,l)
);
},
{
closed = 1;
nodes = (
(1300,300,l),
(1400,300,l),
(1400,1300,l),
(1600,1300,l),
(1600,1400,l),
(1100,1400,l),
(1100,1300,l),
(1300,1300,l)
);
}
);
width = 1800;
}
);
unicode = 85;
},
{
glyphname = V;
lastChange = "2024-07-21 02:03:53 +0000";
layers = (
{
layerId = m01;
shapes = (
{
closed = 1;
nodes = (
(100,1300,l),
(300,1300,l),
(300,1100,l),
(400,1100,l),
(400,1300,l),
(600,1300,l),
(600,1400,l),
(100,1400,l)
);
},
{
closed = 1;
nodes = (
(400,900,l),
(500,900,l),
(500,1100,l),
(400,1100,l)
);
},
{
closed = 1;
nodes = (
(500,700,l),
(600,700,l),
(600,900,l),
(500,900,l)
);
},
{
closed = 1;
nodes = (
(600,500,l),
(700,500,l),
(700,700,l),
(600,700,l)
);
},
{
closed = 1;
nodes = (
(700,300,l),
(800,300,l),
(800,500,l),
(700,500,l)
);
},
{
closed = 1;
nodes = (
(800,0,l),
(900,0,l),
(900,300,l),
(800,300,l)
);
},
{
closed = 1;
nodes = (
(900,300,l),
(1000,300,l),
(1000,500,l),
(900,500,l)
);
},
{
closed = 1;
nodes = (
(1000,500,l),
(1100,500,l),
(1100,700,l),
(1000,700,l)
);
},
{
closed = 1;
nodes = (
(1100,700,l),
(1200,700,l),
(1200,900,l),
(1100,900,l)
);
},
{
closed = 1;
nodes = (
(1200,900,l),
(1300,900,l),
(1300,1100,l),
(1200,1100,l)
);
},
{
closed = 1;
nodes = (
(1300,1100,l),
(1400,1100,l),
(1400,1300,l),
(1600,1300,l),
(1600,1400,l),
(1100,1400,l),
(1100,1300,l),
(1300,1300,l)
);
}
);
width = 1800;
}
);
unicode = 86;
},
{
glyphname = W;
lastChange = "2024-07-21 02:03:57 +0000";
layers = (
{
layerId = m01;
shapes = (
{
closed = 1;
nodes = (
(200,1300,l),
(400,1300,l),
(400,1100,l),
(500,1100,l),
(500,1300,l),
(700,1300,l),
(700,1400,l),
(200,1400,l)
);
},
{
closed = 1;
nodes = (
(500,800,l),
(600,800,l),
(600,1100,l),
(500,1100,l)
);
},
{
closed = 1;
nodes = (
(600,500,l),
(700,500,l),
(700,800,l),
(600,800,l)
);
},
{
closed = 1;
nodes = (
(700,200,l),
(800,200,l),
(800,500,l),
(700,500,l)
);
},
{
closed = 1;
nodes = (
(800,0,l),
(900,0,l),
(900,200,l),
(800,200,l)
);
},
{
closed = 1;
nodes = (
(900,200,l),
(1000,200,l),
(1000,500,l),
(900,500,l)
);
},
{
closed = 1;
nodes = (
(1000,500,l),
(1100,500,l),
(1100,800,l),
(1000,800,l)
);
},
{
closed = 1;
nodes = (
(1100,800,l),
(1200,800,l),
(1200,1100,l),
(1100,1100,l)
);
},
{
closed = 1;
nodes = (
(1200,500,l),
(1300,500,l),
(1300,800,l),
(1200,800,l)
);
},
{
closed = 1;
nodes = (
(1300,200,l),
(1400,200,l),
(1400,500,l),
(1300,500,l)
);
},
{
closed = 1;
nodes = (
(1400,0,l),
(1500,0,l),
(1500,200,l),
(1400,200,l)
);
},
{
closed = 1;
nodes = (
(1500,200,l),
(1600,200,l),
(1600,500,l),
(1500,500,l)
);
},
{
closed = 1;
nodes = (
(1600,500,l),
(1700,500,l),
(1700,800,l),
(1600,800,l)
);
},
{
closed = 1;
nodes = (
(1700,800,l),
(1800,800,l),
(1800,1100,l),
(1700,1100,l)
);
},
{
closed = 1;
nodes = (
(1800,1100,l),
(1900,1100,l),
(1900,1300,l),
(2100,1300,l),
(2100,1400,l),
(1600,1400,l),
(1600,1300,l),
(1800,1300,l)
);
}
);
width = 2400;
}
);
unicode = 87;
},
{
glyphname = X;
lastChange = "2024-07-21 02:04:03 +0000";
layers = (
{
layerId = m01;
shapes = (
{
closed = 1;
nodes = (
(100,1300,l),
(300,1300,l),
(300,1200,l),
(400,1200,l),
(400,1300,l),
(500,1300,l),
(500,1400,l),
(100,1400,l)
);
},
{
closed = 1;
nodes = (
(400,1100,l),
(500,1100,l),
(500,1200,l),
(400,1200,l)
);
},
{
closed = 1;
nodes = (
(500,1000,l),
(600,1000,l),
(600,1100,l),
(500,1100,l)
);
},
{
closed = 1;
nodes = (
(600,900,l),
(700,900,l),
(700,1000,l),
(600,1000,l)
);
},
{
closed = 1;
nodes = (
(700,800,l),
(800,800,l),
(800,900,l),
(700,900,l)
);
},
{
closed = 1;
nodes = (
(800,600,l),
(900,600,l),
(900,800,l),
(800,800,l)
);
},
{
closed = 1;
nodes = (
(700,500,l),
(800,500,l),
(800,600,l),
(700,600,l)
);
},
{
closed = 1;
nodes = (
(600,400,l),
(700,400,l),
(700,500,l),
(600,500,l)
);
},
{
closed = 1;
nodes = (
(500,300,l),
(600,300,l),
(600,400,l),
(500,400,l)
);
},
{
closed = 1;
nodes = (
(400,200,l),
(500,200,l),
(500,300,l),
(400,300,l)
);
},
{
closed = 1;
nodes = (
(300,100,l),
(100,100,l),
(100,0,l),
(500,0,l),
(500,100,l),
(400,100,l),
(400,200,l),
(300,200,l)
);
},
{
closed = 1;
nodes = (
(900,500,l),
(1000,500,l),
(1000,600,l),
(900,600,l)
);
},
{
closed = 1;
nodes = (
(1000,400,l),
(1100,400,l),
(1100,500,l),
(1000,500,l)
);
},
{
closed = 1;
nodes = (
(1100,300,l),
(1200,300,l),
(1200,400,l),
(1100,400,l)
);
},
{
closed = 1;
nodes = (
(1200,200,l),
(1300,200,l),
(1300,300,l),
(1200,300,l)
);
},
{
closed = 1;
nodes = (
(1300,100,l),
(1200,100,l),
(1200,0,l),
(1600,0,l),
(1600,100,l),
(1400,100,l),
(1400,200,l),
(1300,200,l)
);
},
{
closed = 1;
nodes = (
(900,800,l),
(1000,800,l),
(1000,900,l),
(900,900,l)
);
},
{
closed = 1;
nodes = (
(1000,900,l),
(1100,900,l),
(1100,1000,l),
(1000,1000,l)
);
},
{
closed = 1;
nodes = (
(1100,1000,l),
(1200,1000,l),
(1200,1100,l),
(1100,1100,l)
);
},
{
closed = 1;
nodes = (
(1200,1100,l),
(1300,1100,l),
(1300,1200,l),
(1200,1200,l)
);
},
{
closed = 1;
nodes = (
(1300,1200,l),
(1400,1200,l),
(1400,1300,l),
(1600,1300,l),
(1600,1400,l),
(1200,1400,l),
(1200,1300,l),
(1300,1300,l)
);
}
);
width = 1700;
}
);
unicode = 88;
},
{
glyphname = Y;
lastChange = "2024-07-21 02:04:07 +0000";
layers = (
{
layerId = m01;
shapes = (
{
closed = 1;
nodes = (
(100,1300,l),
(300,1300,l),
(300,1200,l),
(400,1200,l),
(400,1300,l),
(600,1300,l),
(600,1400,l),
(100,1400,l)
);
},
{
closed = 1;
nodes = (
(500,1200,l),
(400,1200,l),
(400,1100,l),
(500,1100,l)
);
},
{
closed = 1;
nodes = (
(500,1000,l),
(600,1000,l),
(600,1100,l),
(500,1100,l)
);
},
{
closed = 1;
nodes = (
(600,900,l),
(700,900,l),
(700,1000,l),
(600,1000,l)
);
},
{
closed = 1;
nodes = (
(700,800,l),
(800,800,l),
(800,900,l),
(700,900,l)
);
},
{
closed = 1;
nodes = (
(800,100,l),
(600,100,l),
(600,0,l),
(1100,0,l),
(1100,100,l),
(900,100,l),
(900,800,l),
(800,800,l)
);
},
{
closed = 1;
nodes = (
(900,800,l),
(1000,800,l),
(1000,900,l),
(900,900,l)
);
},
{
closed = 1;
nodes = (
(1000,900,l),
(1100,900,l),
(1100,1000,l),
(1000,1000,l)
);
},
{
closed = 1;
nodes = (
(1100,1000,l),
(1200,1000,l),
(1200,1100,l),
(1100,1100,l)
);
},
{
closed = 1;
nodes = (
(1200,1100,l),
(1300,1100,l),
(1300,1200,l),
(1200,1200,l)
);
},
{
closed = 1;
nodes = (
(1300,1200,l),
(1400,1200,l),
(1400,1300,l),
(1600,1300,l),
(1600,1400,l),
(1100,1400,l),
(1100,1300,l),
(1300,1300,l)
);
}
);
width = 1800;
}
);
unicode = 89;
},
{
glyphname = Z;
lastChange = "2024-07-21 02:04:10 +0000";
layers = (
{
layerId = m01;
shapes = (
{
closed = 1;
nodes = (
(200,1100,l),
(300,1100,l),
(300,1300,l),
(1100,1300,l),
(1100,1200,l),
(1200,1200,l),
(1200,1400,l),
(200,1400,l)
);
},
{
closed = 1;
nodes = (
(1000,1100,l),
(1100,1100,l),
(1100,1200,l),
(1000,1200,l)
);
},
{
closed = 1;
nodes = (
(900,1000,l),
(1000,1000,l),
(1000,1100,l),
(900,1100,l)
);
},
{
closed = 1;
nodes = (
(800,800,l),
(900,800,l),
(900,1000,l),
(800,1000,l)
);
},
{
closed = 1;
nodes = (
(700,700,l),
(800,700,l),
(800,800,l),
(700,800,l)
);
},
{
closed = 1;
nodes = (
(600,600,l),
(700,600,l),
(700,700,l),
(600,700,l)
);
},
{
closed = 1;
nodes = (
(500,500,l),
(600,500,l),
(600,600,l),
(500,600,l)
);
},
{
closed = 1;
nodes = (
(400,300,l),
(500,300,l),
(500,500,l),
(400,500,l)
);
},
{
closed = 1;
nodes = (
(300,200,l),
(400,200,l),
(400,300,l),
(300,300,l)
);
},
{
closed = 1;
nodes = (
(200,0,l),
(1200,0,l),
(1200,300,l),
(1100,300,l),
(1100,100,l),
(300,100,l),
(300,200,l),
(200,200,l)
);
}
);
width = 1600;
}
);
unicode = 90;
},
{
glyphname = bracketleft;
lastChange = "2024-07-21 02:04:14 +0000";
layers = (
{
layerId = m01;
shapes = (
{
closed = 1;
nodes = (
(300,0,l),
(300,1400,l),
(600,1400,l),
(600,1500,l),
(200,1500,l),
(200,-100,l),
(600,-100,l),
(600,0,l)
);
}
);
width = 900;
}
);
unicode = 91;
},
{
glyphname = backslash;
lastChange = "2024-07-21 02:04:18 +0000";
layers = (
{
layerId = m01;
shapes = (
{
closed = 1;
nodes = (
(900,0,l),
(1000,0,l),
(1000,200,l),
(900,200,l)
);
},
{
closed = 1;
nodes = (
(900,400,l),
(800,400,l),
(800,200,l),
(900,200,l)
);
},
{
closed = 1;
nodes = (
(800,600,l),
(700,600,l),
(700,400,l),
(800,400,l)
);
},
{
closed = 1;
nodes = (
(700,800,l),
(600,800,l),
(600,600,l),
(700,600,l)
);
},
{
closed = 1;
nodes = (
(600,1000,l),
(500,1000,l),
(500,800,l),
(600,800,l)
);
},
{
closed = 1;
nodes = (
(500,1200,l),
(400,1200,l),
(400,1000,l),
(500,1000,l)
);
},
{
closed = 1;
nodes = (
(400,1400,l),
(300,1400,l),
(300,1200,l),
(400,1200,l)
);
}
);
width = 1200;
}
);
unicode = 92;
},
{
glyphname = bracketright;
lastChange = "2024-07-21 02:04:22 +0000";
layers = (
{
layerId = m01;
shapes = (
{
closed = 1;
nodes = (
(300,1400,l),
(600,1400,l),
(600,0,l),
(300,0,l),
(300,-100,l),
(700,-100,l),
(700,1500,l),
(300,1500,l)
);
}
);
width = 900;
}
);
unicode = 93;
},
{
glyphname = asciicircum;
lastChange = "2024-07-21 02:04:29 +0000";
layers = (
{
layerId = m01;
shapes = (
{
closed = 1;
nodes = (
(300,1200,l),
(400,1200,l),
(400,1300,l),
(300,1300,l)
);
},
{
closed = 1;
nodes = (
(400,1300,l),
(500,1300,l),
(500,1400,l),
(400,1400,l)
);
},
{
closed = 1;
nodes = (
(500,1400,l),
(600,1400,l),
(600,1500,l),
(500,1500,l)
);
},
{
closed = 1;
nodes = (
(600,1300,l),
(700,1300,l),
(700,1400,l),
(600,1400,l)
);
},
{
closed = 1;
nodes = (
(700,1200,l),
(800,1200,l),
(800,1300,l),
(700,1300,l)
);
}
);
width = 1200;
}
);
unicode = 94;
},
{
glyphname = underscore;
lastChange = "2024-07-21 02:04:33 +0000";
layers = (
{
layerId = m01;
shapes = (
{
closed = 1;
nodes = (
(0,0,l),
(1200,0,l),
(1200,100,l),
(0,100,l)
);
}
);
width = 1200;
}
);
unicode = 95;
},
{
glyphname = grave;
lastChange = "2024-07-21 02:04:37 +0000";
layers = (
{
layerId = m01;
shapes = (
{
closed = 1;
nodes = (
(300,1400,l),
(400,1400,l),
(400,1500,l),
(300,1500,l)
);
},
{
closed = 1;
nodes = (
(400,1300,l),
(500,1300,l),
(500,1400,l),
(400,1400,l)
);
},
{
closed = 1;
nodes = (
(500,1200,l),
(600,1200,l),
(600,1300,l),
(500,1300,l)
);
}
);
width = 1000;
}
);
unicode = 96;
},
{
glyphname = a;
lastChange = "2024-07-21 02:04:44 +0000";
layers = (
{
layerId = m01;
shapes = (
{
closed = 1;
nodes = (
(100,300,l),
(200,300,l),
(200,700,l),
(100,700,l)
);
},
{
closed = 1;
nodes = (
(200,700,l),
(300,700,l),
(300,800,l),
(200,800,l)
);
},
{
closed = 1;
nodes = (
(300,800,l),
(400,800,l),
(400,900,l),
(300,900,l)
);
},
{
closed = 1;
nodes = (
(400,900,l),
(1000,900,l),
(1000,300,l),
(900,300,l),
(900,200,l),
(1000,200,l),
(1000,0,l),
(1300,0,l),
(1300,100,l),
(1100,100,l),
(1100,1000,l),
(400,1000,l)
);
},
{
closed = 1;
nodes = (
(800,100,l),
(900,100,l),
(900,200,l),
(800,200,l)
);
},
{
closed = 1;
nodes = (
(400,100,l),
(400,0,l),
(800,0,l),
(800,100,l)
);
},
{
closed = 1;
nodes = (
(400,200,l),
(300,200,l),
(300,100,l),
(400,100,l)
);
},
{
closed = 1;
nodes = (
(300,300,l),
(200,300,l),
(200,200,l),
(300,200,l)
);
}
);
width = 1400;
}
);
unicode = 97;
},
{
glyphname = b;
lastChange = "2024-07-21 02:04:49 +0000";
layers = (
{
layerId = m01;
shapes = (
{
closed = 1;
nodes = (
(100,0,l),
(400,0,l),
(400,200,l),
(500,200,l),
(500,300,l),
(400,300,l),
(400,700,l),
(500,700,l),
(500,800,l),
(400,800,l),
(400,1400,l),
(100,1400,l),
(100,1300,l),
(300,1300,l),
(300,100,l),
(100,100,l)
);
},
{
closed = 1;
nodes = (
(500,800,l),
(600,800,l),
(600,900,l),
(500,900,l)
);
},
{
closed = 1;
nodes = (
(600,900,l),
(1000,900,l),
(1000,1000,l),
(600,1000,l)
);
},
{
closed = 1;
nodes = (
(1000,800,l),
(1100,800,l),
(1100,900,l),
(1000,900,l)
);
},
{
closed = 1;
nodes = (
(1100,700,l),
(1200,700,l),
(1200,800,l),
(1100,800,l)
);
},
{
closed = 1;
nodes = (
(1200,300,l),
(1300,300,l),
(1300,700,l),
(1200,700,l)
);
},
{
closed = 1;
nodes = (
(1100,200,l),
(1200,200,l),
(1200,300,l),
(1100,300,l)
);
},
{
closed = 1;
nodes = (
(600,100,l),
(600,0,l),
(1000,0,l),
(1000,100,l)
);
},
{
closed = 1;
nodes = (
(1000,100,l),
(1100,100,l),
(1100,200,l),
(1000,200,l)
);
},
{
closed = 1;
nodes = (
(600,200,l),
(500,200,l),
(500,100,l),
(600,100,l)
);
}
);
width = 1400;
}
);
unicode = 98;
},
{
glyphname = c;
lastChange = "2024-07-21 02:05:25 +0000";
layers = (
{
layerId = m01;
shapes = (
{
closed = 1;
nodes = (
(100,300,l),
(200,300,l),
(200,700,l),
(100,700,l)
);
},
{
closed = 1;
nodes = (
(200,700,l),
(300,700,l),
(300,800,l),
(200,800,l)
);
},
{
closed = 1;
nodes = (
(300,800,l),
(400,800,l),
(400,900,l),
(300,900,l)
);
},
{
closed = 1;
nodes = (
(400,900,l),
(900,900,l),
(900,1000,l),
(400,1000,l)
);
},
{
closed = 1;
nodes = (
(900,800,l),
(1000,800,l),
(1000,900,l),
(900,900,l)
);
},
{
closed = 1;
nodes = (
(1000,700,l),
(1100,700,l),
(1100,800,l),
(1000,800,l)
);
},
{
closed = 1;
nodes = (
(1000,200,l),
(1100,200,l),
(1100,300,l),
(1000,300,l)
);
},
{
closed = 1;
nodes = (
(900,100,l),
(1000,100,l),
(1000,200,l),
(900,200,l)
);
},
{
closed = 1;
nodes = (
(400,100,l),
(400,0,l),
(900,0,l),
(900,100,l)
);
},
{
closed = 1;
nodes = (
(400,200,l),
(300,200,l),
(300,100,l),
(400,100,l)
);
},
{
closed = 1;
nodes = (
(300,300,l),
(200,300,l),
(200,200,l),
(300,200,l)
);
}
);
width = 1300;
}
);
unicode = 99;
},
{
glyphname = d;
lastChange = "2024-07-21 02:04:56 +0000";
layers = (
{
layerId = m01;
shapes = (
{
closed = 1;
nodes = (
(100,300,l),
(200,300,l),
(200,700,l),
(100,700,l)
);
},
{
closed = 1;
nodes = (
(200,700,l),
(300,700,l),
(300,800,l),
(200,800,l)
);
},
{
closed = 1;
nodes = (
(300,800,l),
(400,800,l),
(400,900,l),
(300,900,l)
);
},
{
closed = 1;
nodes = (
(400,900,l),
(800,900,l),
(800,1000,l),
(400,1000,l)
);
},
{
closed = 1;
nodes = (
(800,800,l),
(900,800,l),
(900,900,l),
(800,900,l)
);
},
{
closed = 1;
nodes = (
(900,700,l),
(1000,700,l),
(1000,300,l),
(900,300,l),
(900,200,l),
(1000,200,l),
(1000,0,l),
(1300,0,l),
(1300,100,l),
(1100,100,l),
(1100,1400,l),
(900,1400,l),
(900,1300,l),
(1000,1300,l),
(1000,800,l),
(900,800,l)
);
},
{
closed = 1;
nodes = (
(200,200,l),
(300,200,l),
(300,300,l),
(200,300,l)
);
},
{
closed = 1;
nodes = (
(300,100,l),
(400,100,l),
(400,200,l),
(300,200,l)
);
},
{
closed = 1;
nodes = (
(400,0,l),
(800,0,l),
(800,100,l),
(400,100,l)
);
},
{
closed = 1;
nodes = (
(800,100,l),
(900,100,l),
(900,200,l),
(800,200,l)
);
}
);
width = 1400;
}
);
unicode = 100;
},
{
glyphname = e;
lastChange = "2024-07-21 02:04:56 +0000";
layers = (
{
layerId = m01;
shapes = (
{
closed = 1;
nodes = (
(100,300,l),
(200,300,l),
(200,500,l),
(1100,500,l),
(1100,700,l),
(1000,700,l),
(1000,600,l),
(200,600,l),
(200,700,l),
(100,700,l)
);
},
{
closed = 1;
nodes = (
(200,700,l),
(300,700,l),
(300,800,l),
(200,800,l)
);
},
{
closed = 1;
nodes = (
(300,800,l),
(400,800,l),
(400,900,l),
(300,900,l)
);
},
{
closed = 1;
nodes = (
(400,900,l),
(800,900,l),
(800,1000,l),
(400,1000,l)
);
},
{
closed = 1;
nodes = (
(800,800,l),
(900,800,l),
(900,900,l),
(800,900,l)
);
},
{
closed = 1;
nodes = (
(900,700,l),
(1000,700,l),
(1000,800,l),
(900,800,l)
);
},
{
closed = 1;
nodes = (
(200,200,l),
(300,200,l),
(300,300,l),
(200,300,l)
);
},
{
closed = 1;
nodes = (
(300,100,l),
(400,100,l),
(400,200,l),
(300,200,l)
);
},
{
closed = 1;
nodes = (
(400,0,l),
(800,0,l),
(800,100,l),
(400,100,l)
);
},
{
closed = 1;
nodes = (
(800,100,l),
(900,100,l),
(900,200,l),
(800,200,l)
);
},
{
closed = 1;
nodes = (
(900,200,l),
(1000,200,l),
(1000,300,l),
(900,300,l)
);
}
);
width = 1200;
}
);
unicode = 101;
},
{
glyphname = f;
lastChange = "2024-07-21 02:04:56 +0000";
layers = (
{
layerId = m01;
shapes = (
{
closed = 1;
nodes = (
(100,0,l),
(600,0,l),
(600,100,l),
(400,100,l),
(400,900,l),
(600,900,l),
(600,1000,l),
(400,1000,l),
(400,1200,l),
(300,1200,l),
(300,1000,l),
(200,1000,l),
(200,900,l),
(300,900,l),
(300,100,l),
(100,100,l)
);
},
{
closed = 1;
nodes = (
(400,1200,l),
(500,1200,l),
(500,1300,l),
(400,1300,l)
);
},
{
closed = 1;
nodes = (
(500,1300,l),
(800,1300,l),
(800,1400,l),
(500,1400,l)
);
}
);
width = 900;
}
);
unicode = 102;
},
{
glyphname = g;
lastChange = "2024-07-21 02:05:35 +0000";
layers = (
{
layerId = m01;
shapes = (
{
closed = 1;
nodes = (
(0,300,l),
(100,300,l),
(100,700,l),
(0,700,l)
);
},
{
closed = 1;
nodes = (
(100,700,l),
(200,700,l),
(200,800,l),
(100,800,l)
);
},
{
closed = 1;
nodes = (
(200,800,l),
(300,800,l),
(300,900,l),
(200,900,l)
);
},
{
closed = 1;
nodes = (
(300,900,l),
(700,900,l),
(700,1000,l),
(300,1000,l)
);
},
{
closed = 1;
nodes = (
(700,800,l),
(800,800,l),
(800,900,l),
(700,900,l)
);
},
{
closed = 1;
nodes = (
(800,700,l),
(900,700,l),
(900,300,l),
(800,300,l),
(800,200,l),
(900,200,l),
(900,-100,l),
(1000,-100,l),
(1000,900,l),
(1200,900,l),
(1200,1000,l),
(900,1000,l),
(900,800,l),
(800,800,l)
);
},
{
closed = 1;
nodes = (
(100,200,l),
(200,200,l),
(200,300,l),
(100,300,l)
);
},
{
closed = 1;
nodes = (
(200,100,l),
(300,100,l),
(300,200,l),
(200,200,l)
);
},
{
closed = 1;
nodes = (
(300,0,l),
(700,0,l),
(700,100,l),
(300,100,l)
);
},
{
closed = 1;
nodes = (
(700,100,l),
(800,100,l),
(800,200,l),
(700,200,l)
);
},
{
closed = 1;
nodes = (
(800,-200,l),
(900,-200,l),
(900,-100,l),
(800,-100,l)
);
},
{
closed = 1;
nodes = (
(700,-300,l),
(800,-300,l),
(800,-200,l),
(700,-200,l)
);
},
{
closed = 1;
nodes = (
(300,-300,l),
(300,-400,l),
(700,-400,l),
(700,-300,l)
);
},
{
closed = 1;
nodes = (
(300,-200,l),
(200,-200,l),
(200,-300,l),
(300,-300,l)
);
}
);
width = 1400;
}
);
unicode = 103;
},
{
glyphname = h;
lastChange = "2024-07-21 02:05:40 +0000";
layers = (
{
layerId = m01;
shapes = (
{
closed = 1;
nodes = (
(0,0,l),
(500,0,l),
(500,100,l),
(300,100,l),
(300,700,l),
(400,700,l),
(400,800,l),
(300,800,l),
(300,1400,l),
(0,1400,l),
(0,1300,l),
(200,1300,l),
(200,100,l),
(0,100,l)
);
},
{
closed = 1;
nodes = (
(400,800,l),
(500,800,l),
(500,900,l),
(400,900,l)
);
},
{
closed = 1;
nodes = (
(500,900,l),
(1000,900,l),
(1000,1000,l),
(500,1000,l)
);
},
{
closed = 1;
nodes = (
(1000,800,l),
(1100,800,l),
(1100,900,l),
(1000,900,l)
);
},
{
closed = 1;
nodes = (
(1100,100,l),
(1000,100,l),
(1000,0,l),
(1400,0,l),
(1400,100,l),
(1200,100,l),
(1200,800,l),
(1100,800,l)
);
}
);
width = 1600;
}
);
unicode = 104;
},
{
glyphname = i;
lastChange = "2024-07-21 02:05:44 +0000";
layers = (
{
layerId = m01;
shapes = (
{
closed = 1;
nodes = (
(300,0,l),
(800,0,l),
(800,100,l),
(600,100,l),
(600,1000,l),
(300,1000,l),
(300,900,l),
(500,900,l),
(500,100,l),
(300,100,l)
);
},
{
closed = 1;
nodes = (
(500,1200,l),
(600,1200,l),
(600,1300,l),
(500,1300,l)
);
}
);
width = 1000;
}
);
unicode = 105;
},
{
glyphname = j;
lastChange = "2024-07-21 02:05:50 +0000";
layers = (
{
layerId = m01;
shapes = (
{
closed = 1;
nodes = (
(600,1200,l),
(700,1200,l),
(700,1300,l),
(600,1300,l)
);
},
{
closed = 1;
nodes = (
(400,1000,l),
(400,900,l),
(600,900,l),
(600,-200,l),
(700,-200,l),
(700,1000,l)
);
},
{
closed = 1;
nodes = (
(500,-300,l),
(600,-300,l),
(600,-200,l),
(500,-200,l)
);
},
{
closed = 1;
nodes = (
(100,-300,l),
(100,-400,l),
(500,-400,l),
(500,-300,l)
);
},
{
closed = 1;
nodes = (
(0,-300,l),
(100,-300,l),
(100,-200,l),
(0,-200,l)
);
}
);
width = 1000;
}
);
unicode = 106;
},
{
glyphname = k;
lastChange = "2024-07-21 02:04:56 +0000";
layers = (
{
layerId = m01;
shapes = (
{
closed = 1;
nodes = (
(100,0,l),
(500,0,l),
(500,100,l),
(300,100,l),
(300,500,l),
(400,500,l),
(400,600,l),
(300,600,l),
(300,1400,l),
(100,1400,l),
(100,1300,l),
(200,1300,l),
(200,100,l),
(100,100,l)
);
},
{
closed = 1;
nodes = (
(600,800,l),
(700,800,l),
(700,900,l),
(1000,900,l),
(1000,1000,l),
(600,1000,l)
);
},
{
closed = 1;
nodes = (
(500,700,l),
(600,700,l),
(600,800,l),
(500,800,l)
);
},
{
closed = 1;
nodes = (
(400,600,l),
(500,600,l),
(500,700,l),
(400,700,l)
);
},
{
closed = 1;
nodes = (
(500,500,l),
(600,500,l),
(600,600,l),
(500,600,l)
);
},
{
closed = 1;
nodes = (
(600,400,l),
(700,400,l),
(700,500,l),
(600,500,l)
);
},
{
closed = 1;
nodes = (
(700,300,l),
(800,300,l),
(800,400,l),
(700,400,l)
);
},
{
closed = 1;
nodes = (
(800,200,l),
(900,200,l),
(900,300,l),
(800,300,l)
);
},
{
closed = 1;
nodes = (
(900,100,l),
(800,100,l),
(800,0,l),
(1200,0,l),
(1200,100,l),
(1000,100,l),
(1000,200,l),
(900,200,l)
);
}
);
width = 1300;
}
);
unicode = 107;
},
{
glyphname = l;
lastChange = "2024-07-21 02:05:56 +0000";
layers = (
{
layerId = m01;
shapes = (
{
closed = 1;
nodes = (
(100,0,l),
(600,0,l),
(600,100,l),
(400,100,l),
(400,1400,l),
(100,1400,l),
(100,1300,l),
(300,1300,l),
(300,100,l),
(100,100,l)
);
}
);
width = 800;
}
);
unicode = 108;
},
{
glyphname = m;
lastChange = "2024-07-21 02:06:00 +0000";
layers = (
{
layerId = m01;
shapes = (
{
closed = 1;
nodes = (
(100,0,l),
(600,0,l),
(600,100,l),
(400,100,l),
(400,700,l),
(500,700,l),
(500,800,l),
(400,800,l),
(400,1000,l),
(100,1000,l),
(100,900,l),
(300,900,l),
(300,100,l),
(100,100,l)
);
},
{
closed = 1;
nodes = (
(500,800,l),
(600,800,l),
(600,900,l),
(500,900,l)
);
},
{
closed = 1;
nodes = (
(600,900,l),
(900,900,l),
(900,1000,l),
(600,1000,l)
);
},
{
closed = 1;
nodes = (
(900,800,l),
(1000,800,l),
(1000,900,l),
(900,900,l)
);
},
{
closed = 1;
nodes = (
(1000,700,l),
(1100,700,l),
(1100,800,l),
(1000,800,l)
);
},
{
closed = 1;
nodes = (
(1100,100,l),
(900,100,l),
(900,0,l),
(1400,0,l),
(1400,100,l),
(1200,100,l),
(1200,700,l),
(1100,700,l)
);
},
{
closed = 1;
nodes = (
(1200,700,l),
(1300,700,l),
(1300,800,l),
(1200,800,l)
);
},
{
closed = 1;
nodes = (
(1300,800,l),
(1400,800,l),
(1400,900,l),
(1300,900,l)
);
},
{
closed = 1;
nodes = (
(1400,900,l),
(1700,900,l),
(1700,1000,l),
(1400,1000,l)
);
},
{
closed = 1;
nodes = (
(1700,800,l),
(1800,800,l),
(1800,900,l),
(1700,900,l)
);
},
{
closed = 1;
nodes = (
(1800,700,l),
(1900,700,l),
(1900,800,l),
(1800,800,l)
);
},
{
closed = 1;
nodes = (
(1900,100,l),
(1700,100,l),
(1700,0,l),
(2200,0,l),
(2200,100,l),
(2000,100,l),
(2000,700,l),
(1900,700,l)
);
}
);
width = 2400;
}
);
unicode = 109;
},
{
glyphname = n;
lastChange = "2024-07-21 02:06:04 +0000";
layers = (
{
layerId = m01;
shapes = (
{
closed = 1;
nodes = (
(100,900,l),
(300,900,l),
(300,100,l),
(100,100,l),
(100,0,l),
(600,0,l),
(600,100,l),
(400,100,l),
(400,700,l),
(500,700,l),
(500,800,l),
(400,800,l),
(400,1000,l),
(100,1000,l)
);
},
{
closed = 1;
nodes = (
(500,800,l),
(600,800,l),
(600,900,l),
(500,900,l)
);
},
{
closed = 1;
nodes = (
(600,900,l),
(1000,900,l),
(1000,1000,l),
(600,1000,l)
);
},
{
closed = 1;
nodes = (
(1000,800,l),
(1100,800,l),
(1100,900,l),
(1000,900,l)
);
},
{
closed = 1;
nodes = (
(1100,700,l),
(1200,700,l),
(1200,800,l),
(1100,800,l)
);
},
{
closed = 1;
nodes = (
(1200,100,l),
(1000,100,l),
(1000,0,l),
(1500,0,l),
(1500,100,l),
(1300,100,l),
(1300,700,l),
(1200,700,l)
);
}
);
width = 1700;
}
);
unicode = 110;
},
{
glyphname = o;
lastChange = "2024-07-21 02:04:56 +0000";
layers = (
{
layerId = m01;
shapes = (
{
closed = 1;
nodes = (
(100,300,l),
(200,300,l),
(200,700,l),
(100,700,l)
);
},
{
closed = 1;
nodes = (
(200,700,l),
(300,700,l),
(300,800,l),
(200,800,l)
);
},
{
closed = 1;
nodes = (
(300,800,l),
(400,800,l),
(400,900,l),
(300,900,l)
);
},
{
closed = 1;
nodes = (
(400,900,l),
(800,900,l),
(800,1000,l),
(400,1000,l)
);
},
{
closed = 1;
nodes = (
(800,800,l),
(900,800,l),
(900,900,l),
(800,900,l)
);
},
{
closed = 1;
nodes = (
(900,700,l),
(1000,700,l),
(1000,800,l),
(900,800,l)
);
},
{
closed = 1;
nodes = (
(1000,300,l),
(1100,300,l),
(1100,700,l),
(1000,700,l)
);
},
{
closed = 1;
nodes = (
(900,200,l),
(1000,200,l),
(1000,300,l),
(900,300,l)
);
},
{
closed = 1;
nodes = (
(800,100,l),
(900,100,l),
(900,200,l),
(800,200,l)
);
},
{
closed = 1;
nodes = (
(400,100,l),
(400,0,l),
(800,0,l),
(800,100,l)
);
},
{
closed = 1;
nodes = (
(400,200,l),
(300,200,l),
(300,100,l),
(400,100,l)
);
},
{
closed = 1;
nodes = (
(200,200,l),
(300,200,l),
(300,300,l),
(200,300,l)
);
}
);
width = 1200;
}
);
unicode = 111;
},
{
glyphname = p;
lastChange = "2024-07-21 02:04:56 +0000";
layers = (
{
layerId = m01;
shapes = (
{
closed = 1;
nodes = (
(100,-500,l),
(600,-500,l),
(600,-400,l),
(400,-400,l),
(400,200,l),
(500,200,l),
(500,300,l),
(400,300,l),
(400,700,l),
(500,700,l),
(500,800,l),
(400,800,l),
(400,1000,l),
(100,1000,l),
(100,900,l),
(300,900,l),
(300,-400,l),
(100,-400,l)
);
},
{
closed = 1;
nodes = (
(500,100,l),
(600,100,l),
(600,200,l),
(500,200,l)
);
},
{
closed = 1;
nodes = (
(600,0,l),
(1000,0,l),
(1000,100,l),
(600,100,l)
);
},
{
closed = 1;
nodes = (
(1000,100,l),
(1100,100,l),
(1100,200,l),
(1000,200,l)
);
},
{
closed = 1;
nodes = (
(1100,200,l),
(1200,200,l),
(1200,300,l),
(1100,300,l)
);
},
{
closed = 1;
nodes = (
(1200,300,l),
(1300,300,l),
(1300,700,l),
(1200,700,l)
);
},
{
closed = 1;
nodes = (
(1200,800,l),
(1100,800,l),
(1100,700,l),
(1200,700,l)
);
},
{
closed = 1;
nodes = (
(1100,900,l),
(1000,900,l),
(1000,800,l),
(1100,800,l)
);
},
{
closed = 1;
nodes = (
(1000,1000,l),
(600,1000,l),
(600,900,l),
(1000,900,l)
);
},
{
closed = 1;
nodes = (
(500,800,l),
(600,800,l),
(600,900,l),
(500,900,l)
);
}
);
width = 1400;
}
);
unicode = 112;
},
{
glyphname = q;
lastChange = "2024-07-21 02:04:56 +0000";
layers = (
{
layerId = m01;
shapes = (
{
closed = 1;
nodes = (
(100,300,l),
(200,300,l),
(200,700,l),
(100,700,l)
);
},
{
closed = 1;
nodes = (
(200,700,l),
(300,700,l),
(300,800,l),
(200,800,l)
);
},
{
closed = 1;
nodes = (
(300,800,l),
(400,800,l),
(400,900,l),
(300,900,l)
);
},
{
closed = 1;
nodes = (
(400,900,l),
(800,900,l),
(800,1000,l),
(400,1000,l)
);
},
{
closed = 1;
nodes = (
(800,800,l),
(900,800,l),
(900,900,l),
(800,900,l)
);
},
{
closed = 1;
nodes = (
(900,700,l),
(1000,700,l),
(1000,300,l),
(900,300,l),
(900,200,l),
(1000,200,l),
(1000,-400,l),
(800,-400,l),
(800,-500,l),
(1300,-500,l),
(1300,-400,l),
(1100,-400,l),
(1100,1000,l),
(1000,1000,l),
(1000,800,l),
(900,800,l)
);
},
{
closed = 1;
nodes = (
(200,200,l),
(300,200,l),
(300,300,l),
(200,300,l)
);
},
{
closed = 1;
nodes = (
(300,100,l),
(400,100,l),
(400,200,l),
(300,200,l)
);
},
{
closed = 1;
nodes = (
(400,0,l),
(800,0,l),
(800,100,l),
(400,100,l)
);
},
{
closed = 1;
nodes = (
(800,100,l),
(900,100,l),
(900,200,l),
(800,200,l)
);
}
);
width = 1400;
}
);
unicode = 113;
},
{
glyphname = r;
lastChange = "2024-07-21 02:06:14 +0000";
layers = (
{
layerId = m01;
shapes = (
{
closed = 1;
nodes = (
(0,0,l),
(500,0,l),
(500,100,l),
(300,100,l),
(300,700,l),
(400,700,l),
(400,800,l),
(300,800,l),
(300,1000,l),
(0,1000,l),
(0,900,l),
(200,900,l),
(200,100,l),
(0,100,l)
);
},
{
closed = 1;
nodes = (
(400,800,l),
(500,800,l),
(500,900,l),
(400,900,l)
);
},
{
closed = 1;
nodes = (
(500,900,l),
(900,900,l),
(900,1000,l),
(500,1000,l)
);
},
{
closed = 1;
nodes = (
(900,800,l),
(1000,800,l),
(1000,900,l),
(900,900,l)
);
},
{
closed = 1;
nodes = (
(1000,700,l),
(1100,700,l),
(1100,800,l),
(1000,800,l)
);
}
);
width = 1200;
}
);
unicode = 114;
},
{
glyphname = s;
lastChange = "2024-07-21 02:06:19 +0000";
layers = (
{
layerId = m01;
shapes = (
{
closed = 1;
nodes = (
(200,0,l),
(300,0,l),
(300,100,l),
(400,100,l),
(400,200,l),
(300,200,l),
(300,400,l),
(200,400,l)
);
},
{
closed = 1;
nodes = (
(400,0,l),
(900,0,l),
(900,100,l),
(400,100,l)
);
},
{
closed = 1;
nodes = (
(900,100,l),
(1000,100,l),
(1000,200,l),
(900,200,l)
);
},
{
closed = 1;
nodes = (
(1000,200,l),
(1100,200,l),
(1100,400,l),
(1000,400,l)
);
},
{
closed = 1;
nodes = (
(1000,500,l),
(900,500,l),
(900,400,l),
(1000,400,l)
);
},
{
closed = 1;
nodes = (
(900,600,l),
(400,600,l),
(400,500,l),
(900,500,l)
);
},
{
closed = 1;
nodes = (
(400,700,l),
(300,700,l),
(300,600,l),
(400,600,l)
);
},
{
closed = 1;
nodes = (
(300,800,l),
(200,800,l),
(200,700,l),
(300,700,l)
);
},
{
closed = 1;
nodes = (
(300,800,l),
(400,800,l),
(400,900,l),
(300,900,l)
);
},
{
closed = 1;
nodes = (
(400,900,l),
(900,900,l),
(900,1000,l),
(400,1000,l)
);
},
{
closed = 1;
nodes = (
(900,800,l),
(1000,800,l),
(1000,700,l),
(1100,700,l),
(1100,1000,l),
(1000,1000,l),
(1000,900,l),
(900,900,l)
);
}
);
width = 1200;
}
);
unicode = 115;
},
{
glyphname = t;
lastChange = "2024-07-21 02:04:56 +0000";
layers = (
{
layerId = m01;
shapes = (
{
closed = 1;
nodes = (
(100,1300,l),
(300,1300,l),
(300,1000,l),
(100,1000,l),
(100,900,l),
(300,900,l),
(300,200,l),
(400,200,l),
(400,900,l),
(700,900,l),
(700,1000,l),
(400,1000,l),
(400,1400,l),
(100,1400,l)
);
},
{
closed = 1;
nodes = (
(400,100,l),
(500,100,l),
(500,200,l),
(400,200,l)
);
},
{
closed = 1;
nodes = (
(500,0,l),
(800,0,l),
(800,100,l),
(500,100,l)
);
},
{
closed = 1;
nodes = (
(800,100,l),
(900,100,l),
(900,200,l),
(800,200,l)
);
}
);
width = 1000;
}
);
unicode = 116;
},
{
glyphname = u;
lastChange = "2024-07-21 02:06:24 +0000";
layers = (
{
layerId = m01;
shapes = (
{
closed = 1;
nodes = (
(100,900,l),
(300,900,l),
(300,200,l),
(400,200,l),
(400,1000,l),
(100,1000,l)
);
},
{
closed = 1;
nodes = (
(400,100,l),
(500,100,l),
(500,200,l),
(400,200,l)
);
},
{
closed = 1;
nodes = (
(500,0,l),
(900,0,l),
(900,100,l),
(500,100,l)
);
},
{
closed = 1;
nodes = (
(900,100,l),
(1000,100,l),
(1000,200,l),
(900,200,l)
);
},
{
closed = 1;
nodes = (
(1000,200,l),
(1100,200,l),
(1100,0,l),
(1400,0,l),
(1400,100,l),
(1200,100,l),
(1200,1000,l),
(900,1000,l),
(900,900,l),
(1100,900,l),
(1100,300,l),
(1000,300,l)
);
}
);
width = 1600;
}
);
unicode = 117;
},
{
glyphname = v;
lastChange = "2024-07-21 02:06:32 +0000";
layers = (
{
layerId = m01;
shapes = (
{
closed = 1;
nodes = (
(100,900,l),
(300,900,l),
(300,800,l),
(400,800,l),
(400,900,l),
(600,900,l),
(600,1000,l),
(100,1000,l)
);
},
{
closed = 1;
nodes = (
(400,600,l),
(500,600,l),
(500,800,l),
(400,800,l)
);
},
{
closed = 1;
nodes = (
(500,400,l),
(600,400,l),
(600,600,l),
(500,600,l)
);
},
{
closed = 1;
nodes = (
(600,200,l),
(700,200,l),
(700,400,l),
(600,400,l)
);
},
{
closed = 1;
nodes = (
(700,0,l),
(800,0,l),
(800,200,l),
(700,200,l)
);
},
{
closed = 1;
nodes = (
(800,200,l),
(900,200,l),
(900,400,l),
(800,400,l)
);
},
{
closed = 1;
nodes = (
(900,400,l),
(1000,400,l),
(1000,600,l),
(900,600,l)
);
},
{
closed = 1;
nodes = (
(1000,600,l),
(1100,600,l),
(1100,800,l),
(1000,800,l)
);
},
{
closed = 1;
nodes = (
(1100,800,l),
(1200,800,l),
(1200,900,l),
(1400,900,l),
(1400,1000,l),
(900,1000,l),
(900,900,l),
(1100,900,l)
);
}
);
width = 1600;
}
);
unicode = 118;
},
{
glyphname = w;
lastChange = "2024-07-21 02:06:32 +0000";
layers = (
{
layerId = m01;
shapes = (
{
closed = 1;
nodes = (
(100,900,l),
(300,900,l),
(300,800,l),
(400,800,l),
(400,900,l),
(600,900,l),
(600,1000,l),
(100,1000,l)
);
},
{
closed = 1;
nodes = (
(400,600,l),
(500,600,l),
(500,800,l),
(400,800,l)
);
},
{
closed = 1;
nodes = (
(500,400,l),
(600,400,l),
(600,600,l),
(500,600,l)
);
},
{
closed = 1;
nodes = (
(600,200,l),
(700,200,l),
(700,400,l),
(600,400,l)
);
},
{
closed = 1;
nodes = (
(700,0,l),
(800,0,l),
(800,200,l),
(700,200,l)
);
},
{
closed = 1;
nodes = (
(800,200,l),
(900,200,l),
(900,400,l),
(800,400,l)
);
},
{
closed = 1;
nodes = (
(900,400,l),
(1000,400,l),
(1000,600,l),
(900,600,l)
);
},
{
closed = 1;
nodes = (
(1000,600,l),
(1100,600,l),
(1100,800,l),
(1000,800,l)
);
},
{
closed = 1;
nodes = (
(1100,400,l),
(1200,400,l),
(1200,600,l),
(1100,600,l)
);
},
{
closed = 1;
nodes = (
(1200,200,l),
(1300,200,l),
(1300,400,l),
(1200,400,l)
);
},
{
closed = 1;
nodes = (
(1300,0,l),
(1400,0,l),
(1400,200,l),
(1300,200,l)
);
},
{
closed = 1;
nodes = (
(1400,200,l),
(1500,200,l),
(1500,400,l),
(1400,400,l)
);
},
{
closed = 1;
nodes = (
(1500,400,l),
(1600,400,l),
(1600,600,l),
(1500,600,l)
);
},
{
closed = 1;
nodes = (
(1600,600,l),
(1700,600,l),
(1700,800,l),
(1600,800,l)
);
},
{
closed = 1;
nodes = (
(1700,800,l),
(1800,800,l),
(1800,900,l),
(2000,900,l),
(2000,1000,l),
(1500,1000,l),
(1500,900,l),
(1700,900,l)
);
}
);
width = 2200;
}
);
unicode = 119;
},
{
glyphname = x;
lastChange = "2024-07-21 02:06:37 +0000";
layers = (
{
layerId = m01;
shapes = (
{
closed = 1;
nodes = (
(0,0,l),
(500,0,l),
(500,100,l),
(300,100,l),
(300,200,l),
(200,200,l),
(200,100,l),
(0,100,l)
);
},
{
closed = 1;
nodes = (
(0,1000,l),
(0,900,l),
(200,900,l),
(200,800,l),
(300,800,l),
(300,900,l),
(500,900,l),
(500,1000,l)
);
},
{
closed = 1;
nodes = (
(300,700,l),
(400,700,l),
(400,800,l),
(300,800,l)
);
},
{
closed = 1;
nodes = (
(400,600,l),
(500,600,l),
(500,700,l),
(400,700,l)
);
},
{
closed = 1;
nodes = (
(500,400,l),
(600,400,l),
(600,600,l),
(500,600,l)
);
},
{
closed = 1;
nodes = (
(400,300,l),
(500,300,l),
(500,400,l),
(400,400,l)
);
},
{
closed = 1;
nodes = (
(300,200,l),
(400,200,l),
(400,300,l),
(300,300,l)
);
},
{
closed = 1;
nodes = (
(600,300,l),
(700,300,l),
(700,400,l),
(600,400,l)
);
},
{
closed = 1;
nodes = (
(700,200,l),
(800,200,l),
(800,300,l),
(700,300,l)
);
},
{
closed = 1;
nodes = (
(800,100,l),
(600,100,l),
(600,0,l),
(1100,0,l),
(1100,100,l),
(900,100,l),
(900,200,l),
(800,200,l)
);
},
{
closed = 1;
nodes = (
(600,900,l),
(800,900,l),
(800,800,l),
(900,800,l),
(900,900,l),
(1100,900,l),
(1100,1000,l),
(600,1000,l)
);
},
{
closed = 1;
nodes = (
(700,700,l),
(800,700,l),
(800,800,l),
(700,800,l)
);
},
{
closed = 1;
nodes = (
(600,600,l),
(700,600,l),
(700,700,l),
(600,700,l)
);
}
);
width = 1200;
}
);
unicode = 120;
},
{
glyphname = y;
lastChange = "2024-07-21 02:06:41 +0000";
layers = (
{
layerId = m01;
shapes = (
{
closed = 1;
nodes = (
(100,900,l),
(300,900,l),
(300,200,l),
(400,200,l),
(400,900,l),
(600,900,l),
(600,1000,l),
(100,1000,l)
);
},
{
closed = 1;
nodes = (
(400,100,l),
(500,100,l),
(500,200,l),
(400,200,l)
);
},
{
closed = 1;
nodes = (
(500,0,l),
(900,0,l),
(900,100,l),
(500,100,l)
);
},
{
closed = 1;
nodes = (
(900,100,l),
(1000,100,l),
(1000,200,l),
(900,200,l)
);
},
{
closed = 1;
nodes = (
(1000,200,l),
(1100,200,l),
(1100,-200,l),
(1200,-200,l),
(1200,900,l),
(1400,900,l),
(1400,1000,l),
(900,1000,l),
(900,900,l),
(1100,900,l),
(1100,300,l),
(1000,300,l)
);
},
{
closed = 1;
nodes = (
(1000,-300,l),
(1100,-300,l),
(1100,-200,l),
(1000,-200,l)
);
},
{
closed = 1;
nodes = (
(500,-300,l),
(500,-400,l),
(1000,-400,l),
(1000,-300,l)
);
},
{
closed = 1;
nodes = (
(500,-200,l),
(400,-200,l),
(400,-300,l),
(500,-300,l)
);
}
);
width = 1600;
}
);
unicode = 121;
},
{
glyphname = z;
lastChange = "2024-07-21 02:04:56 +0000";
layers = (
{
layerId = m01;
shapes = (
{
closed = 1;
nodes = (
(100,700,l),
(200,700,l),
(200,900,l),
(900,900,l),
(900,800,l),
(1000,800,l),
(1000,900,l),
(1100,900,l),
(1100,1000,l),
(100,1000,l)
);
},
{
closed = 1;
nodes = (
(800,700,l),
(900,700,l),
(900,800,l),
(800,800,l)
);
},
{
closed = 1;
nodes = (
(700,600,l),
(800,600,l),
(800,700,l),
(700,700,l)
);
},
{
closed = 1;
nodes = (
(600,500,l),
(700,500,l),
(700,600,l),
(600,600,l)
);
},
{
closed = 1;
nodes = (
(500,400,l),
(600,400,l),
(600,500,l),
(500,500,l)
);
},
{
closed = 1;
nodes = (
(400,300,l),
(500,300,l),
(500,400,l),
(400,400,l)
);
},
{
closed = 1;
nodes = (
(300,200,l),
(400,200,l),
(400,300,l),
(300,300,l)
);
},
{
closed = 1;
nodes = (
(200,100,l),
(100,100,l),
(100,0,l),
(1100,0,l),
(1100,300,l),
(1000,300,l),
(1000,100,l),
(300,100,l),
(300,200,l),
(200,200,l)
);
}
);
width = 1200;
}
);
unicode = 122;
},
{
glyphname = braceleft;
lastChange = "2024-07-21 02:06:50 +0000";
layers = (
{
layerId = m01;
shapes = (
{
closed = 1;
nodes = (
(400,600,l),
(300,600,l),
(300,0,l),
(400,0,l)
);
},
{
closed = 1;
nodes = (
(400,-100,l),
(500,-100,l),
(500,0,l),
(400,0,l)
);
},
{
closed = 1;
nodes = (
(500,-200,l),
(700,-200,l),
(700,-100,l),
(500,-100,l)
);
},
{
closed = 1;
nodes = (
(300,700,l),
(200,700,l),
(200,600,l),
(300,600,l)
);
},
{
closed = 1;
nodes = (
(300,700,l),
(400,700,l),
(400,1300,l),
(300,1300,l)
);
},
{
closed = 1;
nodes = (
(400,1300,l),
(500,1300,l),
(500,1400,l),
(400,1400,l)
);
},
{
closed = 1;
nodes = (
(500,1400,l),
(700,1400,l),
(700,1500,l),
(500,1500,l)
);
}
);
width = 1000;
}
);
unicode = 123;
},
{
glyphname = bar;
lastChange = "2024-07-21 02:06:56 +0000";
layers = (
{
layerId = m01;
shapes = (
{
closed = 1;
nodes = (
(200,-200,l),
(300,-200,l),
(300,1500,l),
(200,1500,l)
);
}
);
width = 600;
}
);
unicode = 124;
},
{
glyphname = braceright;
lastChange = "2024-07-21 02:06:59 +0000";
layers = (
{
layerId = m01;
shapes = (
{
closed = 1;
nodes = (
(300,-200,l),
(500,-200,l),
(500,-100,l),
(300,-100,l)
);
},
{
closed = 1;
nodes = (
(500,-100,l),
(600,-100,l),
(600,0,l),
(500,0,l)
);
},
{
closed = 1;
nodes = (
(600,0,l),
(700,0,l),
(700,600,l),
(600,600,l)
);
},
{
closed = 1;
nodes = (
(700,1300,l),
(600,1300,l),
(600,700,l),
(700,700,l)
);
},
{
closed = 1;
nodes = (
(700,600,l),
(800,600,l),
(800,700,l),
(700,700,l)
);
},
{
closed = 1;
nodes = (
(600,1400,l),
(500,1400,l),
(500,1300,l),
(600,1300,l)
);
},
{
closed = 1;
nodes = (
(500,1500,l),
(300,1500,l),
(300,1400,l),
(500,1400,l)
);
}
);
width = 1000;
}
);
unicode = 125;
},
{
glyphname = asciitilde;
lastChange = "2024-07-21 02:07:11 +0000";
layers = (
{
layerId = m01;
shapes = (
{
closed = 1;
nodes = (
(200,1100,l),
(300,1100,l),
(300,1200,l),
(200,1200,l)
);
},
{
closed = 1;
nodes = (
(300,1200,l),
(600,1200,l),
(600,1300,l),
(300,1300,l)
);
},
{
closed = 1;
nodes = (
(600,1100,l),
(900,1100,l),
(900,1200,l),
(600,1200,l)
);
},
{
closed = 1;
nodes = (
(900,1200,l),
(1000,1200,l),
(1000,1300,l),
(900,1300,l)
);
}
);
width = 1300;
}
);
unicode = 126;
},
{
glyphname = Adieresis;
lastChange = "2024-07-21 02:13:05 +0000";
layers = (
{
layerId = m01;
shapes = (
{
closed = 1;
nodes = (
(100,0,l),
(600,0,l),
(600,100,l),
(400,100,l),
(400,300,l),
(300,300,l),
(300,100,l),
(100,100,l)
);
},
{
closed = 1;
nodes = (
(400,300,l),
(500,300,l),
(500,500,l),
(1200,500,l),
(1200,300,l),
(1300,300,l),
(1300,600,l),
(1200,600,l),
(1200,800,l),
(1100,800,l),
(1100,600,l),
(600,600,l),
(600,800,l),
(500,800,l),
(500,600,l),
(400,600,l)
);
},
{
closed = 1;
nodes = (
(600,800,l),
(700,800,l),
(700,1000,l),
(600,1000,l)
);
},
{
closed = 1;
nodes = (
(700,1000,l),
(800,1000,l),
(800,1200,l),
(700,1200,l)
);
},
{
closed = 1;
nodes = (
(800,1200,l),
(900,1200,l),
(900,1400,l),
(800,1400,l)
);
},
{
closed = 1;
nodes = (
(900,1000,l),
(1000,1000,l),
(1000,1200,l),
(900,1200,l)
);
},
{
closed = 1;
nodes = (
(1000,800,l),
(1100,800,l),
(1100,1000,l),
(1000,1000,l)
);
},
{
closed = 1;
nodes = (
(1300,100,l),
(1100,100,l),
(1100,0,l),
(1600,0,l),
(1600,100,l),
(1400,100,l),
(1400,300,l),
(1300,300,l)
);
},
{
closed = 1;
nodes = (
(1000,1600,l),
(1100,1600,l),
(1100,1700,l),
(1000,1700,l)
);
},
{
closed = 1;
nodes = (
(600,1600,l),
(700,1600,l),
(700,1700,l),
(600,1700,l)
);
}
);
width = 1800;
}
);
unicode = 196;
},
{
glyphname = Aring;
lastChange = "2024-07-21 02:13:10 +0000";
layers = (
{
layerId = m01;
shapes = (
{
closed = 1;
nodes = (
(100,0,l),
(600,0,l),
(600,100,l),
(400,100,l),
(400,300,l),
(300,300,l),
(300,100,l),
(100,100,l)
);
},
{
closed = 1;
nodes = (
(400,300,l),
(500,300,l),
(500,500,l),
(1200,500,l),
(1200,300,l),
(1300,300,l),
(1300,600,l),
(1200,600,l),
(1200,800,l),
(1100,800,l),
(1100,600,l),
(600,600,l),
(600,800,l),
(500,800,l),
(500,600,l),
(400,600,l)
);
},
{
closed = 1;
nodes = (
(600,800,l),
(700,800,l),
(700,1000,l),
(600,1000,l)
);
},
{
closed = 1;
nodes = (
(700,1000,l),
(800,1000,l),
(800,1200,l),
(700,1200,l)
);
},
{
closed = 1;
nodes = (
(800,1200,l),
(900,1200,l),
(900,1400,l),
(1000,1400,l),
(1000,1500,l),
(700,1500,l),
(700,1400,l),
(800,1400,l)
);
},
{
closed = 1;
nodes = (
(900,1000,l),
(1000,1000,l),
(1000,1200,l),
(900,1200,l)
);
},
{
closed = 1;
nodes = (
(1000,800,l),
(1100,800,l),
(1100,1000,l),
(1000,1000,l)
);
},
{
closed = 1;
nodes = (
(1300,100,l),
(1100,100,l),
(1100,0,l),
(1600,0,l),
(1600,100,l),
(1400,100,l),
(1400,300,l),
(1300,300,l)
);
},
{
closed = 1;
nodes = (
(700,1700,l),
(600,1700,l),
(600,1500,l),
(700,1500,l)
);
},
{
closed = 1;
nodes = (
(1000,1500,l),
(1100,1500,l),
(1100,1700,l),
(1000,1700,l)
);
},
{
closed = 1;
nodes = (
(1000,1800,l),
(700,1800,l),
(700,1700,l),
(1000,1700,l)
);
}
);
width = 1800;
}
);
unicode = 197;
},
{
glyphname = Ccedilla;
lastChange = "2024-07-21 02:13:13 +0000";
layers = (
{
layerId = m01;
shapes = (
{
closed = 1;
nodes = (
(200,400,l),
(300,400,l),
(300,1000,l),
(200,1000,l)
);
},
{
closed = 1;
nodes = (
(300,1000,l),
(400,1000,l),
(400,1200,l),
(300,1200,l)
);
},
{
closed = 1;
nodes = (
(400,1200,l),
(600,1200,l),
(600,1300,l),
(400,1300,l)
);
},
{
closed = 1;
nodes = (
(600,1300,l),
(1000,1300,l),
(1000,1400,l),
(600,1400,l)
);
},
{
closed = 1;
nodes = (
(1000,1200,l),
(1200,1200,l),
(1200,1300,l),
(1000,1300,l)
);
},
{
closed = 1;
nodes = (
(1200,1100,l),
(1300,1100,l),
(1300,1200,l),
(1200,1200,l)
);
},
{
closed = 1;
nodes = (
(300,200,l),
(400,200,l),
(400,400,l),
(300,400,l)
);
},
{
closed = 1;
nodes = (
(400,100,l),
(600,100,l),
(600,200,l),
(400,200,l)
);
},
{
closed = 1;
nodes = (
(600,0,l),
(800,0,l),
(800,-100,l),
(900,-100,l),
(900,0,l),
(1000,0,l),
(1000,100,l),
(600,100,l)
);
},
{
closed = 1;
nodes = (
(1000,100,l),
(1200,100,l),
(1200,200,l),
(1000,200,l)
);
},
{
closed = 1;
nodes = (
(1200,200,l),
(1300,200,l),
(1300,300,l),
(1200,300,l)
);
},
{
closed = 1;
nodes = (
(900,-300,l),
(1000,-300,l),
(1000,-100,l),
(900,-100,l)
);
},
{
closed = 1;
nodes = (
(800,-400,l),
(900,-400,l),
(900,-300,l),
(800,-300,l)
);
}
);
width = 1600;
}
);
unicode = 199;
},
{
glyphname = Eacute;
lastChange = "2024-07-21 02:01:06 +0000";
layers = (
{
layerId = m01;
shapes = (
{
closed = 1;
nodes = (
(200,0,l),
(1200,0,l),
(1200,300,l),
(1100,300,l),
(1100,100,l),
(500,100,l),
(500,700,l),
(800,700,l),
(800,600,l),
(900,600,l),
(900,900,l),
(800,900,l),
(800,800,l),
(500,800,l),
(500,1300,l),
(1100,1300,l),
(1100,1100,l),
(1200,1100,l),
(1200,1400,l),
(200,1400,l),
(200,1300,l),
(400,1300,l),
(400,100,l),
(200,100,l)
);
},
{
closed = 1;
nodes = (
(600,1500,l),
(700,1500,l),
(700,1600,l),
(600,1600,l)
);
},
{
closed = 1;
nodes = (
(700,1600,l),
(800,1600,l),
(800,1700,l),
(700,1700,l)
);
},
{
closed = 1;
nodes = (
(800,1700,l),
(900,1700,l),
(900,1800,l),
(800,1800,l)
);
}
);
width = 1400;
}
);
unicode = 201;
},
{
glyphname = Ntilde;
lastChange = "2024-07-21 02:01:06 +0000";
layers = (
{
layerId = m01;
shapes = (
{
closed = 1;
nodes = (
(200,0,l),
(700,0,l),
(700,100,l),
(500,100,l),
(500,1100,l),
(600,1100,l),
(600,1200,l),
(500,1200,l),
(500,1400,l),
(200,1400,l),
(200,1300,l),
(400,1300,l),
(400,100,l),
(200,100,l)
);
},
{
closed = 1;
nodes = (
(600,1200,l),
(700,1200,l),
(700,1300,l),
(600,1300,l)
);
},
{
closed = 1;
nodes = (
(700,1300,l),
(1200,1300,l),
(1200,1400,l),
(700,1400,l)
);
},
{
closed = 1;
nodes = (
(1200,1200,l),
(1300,1200,l),
(1300,1300,l),
(1200,1300,l)
);
},
{
closed = 1;
nodes = (
(1300,1100,l),
(1400,1100,l),
(1400,1200,l),
(1300,1200,l)
);
},
{
closed = 1;
nodes = (
(1400,100,l),
(1200,100,l),
(1200,0,l),
(1700,0,l),
(1700,100,l),
(1500,100,l),
(1500,1100,l),
(1400,1100,l)
);
},
{
closed = 1;
nodes = (
(500,1600,l),
(600,1600,l),
(600,1700,l),
(500,1700,l)
);
},
{
closed = 1;
nodes = (
(600,1700,l),
(900,1700,l),
(900,1800,l),
(600,1800,l)
);
},
{
closed = 1;
nodes = (
(900,1600,l),
(1200,1600,l),
(1200,1700,l),
(900,1700,l)
);
},
{
closed = 1;
nodes = (
(1200,1700,l),
(1300,1700,l),
(1300,1800,l),
(1200,1800,l)
);
}
);
width = 1900;
}
);
unicode = 209;
},
{
glyphname = Odieresis;
lastChange = "2024-07-21 02:01:06 +0000";
layers = (
{
layerId = m01;
shapes = (
{
closed = 1;
nodes = (
(200,400,l),
(300,400,l),
(300,1000,l),
(200,1000,l)
);
},
{
closed = 1;
nodes = (
(300,1000,l),
(400,1000,l),
(400,1200,l),
(300,1200,l)
);
},
{
closed = 1;
nodes = (
(400,1200,l),
(600,1200,l),
(600,1300,l),
(400,1300,l)
);
},
{
closed = 1;
nodes = (
(600,1300,l),
(1000,1300,l),
(1000,1400,l),
(600,1400,l)
);
},
{
closed = 1;
nodes = (
(1000,1200,l),
(1200,1200,l),
(1200,1300,l),
(1000,1300,l)
);
},
{
closed = 1;
nodes = (
(1200,1000,l),
(1300,1000,l),
(1300,1200,l),
(1200,1200,l)
);
},
{
closed = 1;
nodes = (
(1300,400,l),
(1400,400,l),
(1400,1000,l),
(1300,1000,l)
);
},
{
closed = 1;
nodes = (
(1200,200,l),
(1300,200,l),
(1300,400,l),
(1200,400,l)
);
},
{
closed = 1;
nodes = (
(1000,200,l),
(1000,100,l),
(1200,100,l),
(1200,200,l)
);
},
{
closed = 1;
nodes = (
(600,100,l),
(600,0,l),
(1000,0,l),
(1000,100,l)
);
},
{
closed = 1;
nodes = (
(600,200,l),
(400,200,l),
(400,100,l),
(600,100,l)
);
},
{
closed = 1;
nodes = (
(400,400,l),
(300,400,l),
(300,200,l),
(400,200,l)
);
},
{
closed = 1;
nodes = (
(500,1600,l),
(600,1600,l),
(600,1700,l),
(500,1700,l)
);
},
{
closed = 1;
nodes = (
(1000,1600,l),
(1100,1600,l),
(1100,1700,l),
(1000,1700,l)
);
}
);
width = 1600;
}
);
unicode = 214;
},
{
glyphname = Udieresis;
lastChange = "2024-07-21 02:01:06 +0000";
layers = (
{
layerId = m01;
shapes = (
{
closed = 1;
nodes = (
(200,1300,l),
(400,1300,l),
(400,300,l),
(500,300,l),
(500,1300,l),
(700,1300,l),
(700,1400,l),
(200,1400,l)
);
},
{
closed = 1;
nodes = (
(500,200,l),
(600,200,l),
(600,300,l),
(500,300,l)
);
},
{
closed = 1;
nodes = (
(600,100,l),
(700,100,l),
(700,200,l),
(600,200,l)
);
},
{
closed = 1;
nodes = (
(700,0,l),
(1100,0,l),
(1100,100,l),
(700,100,l)
);
},
{
closed = 1;
nodes = (
(1100,100,l),
(1200,100,l),
(1200,200,l),
(1100,200,l)
);
},
{
closed = 1;
nodes = (
(1200,200,l),
(1300,200,l),
(1300,300,l),
(1200,300,l)
);
},
{
closed = 1;
nodes = (
(1300,300,l),
(1400,300,l),
(1400,1300,l),
(1600,1300,l),
(1600,1400,l),
(1100,1400,l),
(1100,1300,l),
(1300,1300,l)
);
},
{
closed = 1;
nodes = (
(600,1600,l),
(700,1600,l),
(700,1700,l),
(600,1700,l)
);
},
{
closed = 1;
nodes = (
(1100,1600,l),
(1200,1600,l),
(1200,1700,l),
(1100,1700,l)
);
}
);
width = 1800;
}
);
unicode = 220;
},
{
glyphname = aacute;
lastChange = "2024-07-21 02:13:27 +0000";
layers = (
{
layerId = m01;
shapes = (
{
closed = 1;
nodes = (
(100,300,l),
(200,300,l),
(200,700,l),
(100,700,l)
);
},
{
closed = 1;
nodes = (
(200,700,l),
(300,700,l),
(300,800,l),
(200,800,l)
);
},
{
closed = 1;
nodes = (
(300,800,l),
(400,800,l),
(400,900,l),
(300,900,l)
);
},
{
closed = 1;
nodes = (
(400,900,l),
(1000,900,l),
(1000,300,l),
(900,300,l),
(900,200,l),
(1000,200,l),
(1000,0,l),
(1300,0,l),
(1300,100,l),
(1100,100,l),
(1100,1000,l),
(400,1000,l)
);
},
{
closed = 1;
nodes = (
(800,100,l),
(900,100,l),
(900,200,l),
(800,200,l)
);
},
{
closed = 1;
nodes = (
(400,100,l),
(400,0,l),
(800,0,l),
(800,100,l)
);
},
{
closed = 1;
nodes = (
(400,200,l),
(300,200,l),
(300,100,l),
(400,100,l)
);
},
{
closed = 1;
nodes = (
(300,300,l),
(200,300,l),
(200,200,l),
(300,200,l)
);
},
{
closed = 1;
nodes = (
(600,1200,l),
(700,1200,l),
(700,1300,l),
(600,1300,l)
);
},
{
closed = 1;
nodes = (
(700,1300,l),
(800,1300,l),
(800,1400,l),
(700,1400,l)
);
},
{
closed = 1;
nodes = (
(800,1400,l),
(900,1400,l),
(900,1500,l),
(800,1500,l)
);
}
);
width = 1400;
}
);
unicode = 225;
},
{
glyphname = agrave;
lastChange = "2024-07-21 02:13:27 +0000";
layers = (
{
layerId = m01;
shapes = (
{
closed = 1;
nodes = (
(100,300,l),
(200,300,l),
(200,700,l),
(100,700,l)
);
},
{
closed = 1;
nodes = (
(200,700,l),
(300,700,l),
(300,800,l),
(200,800,l)
);
},
{
closed = 1;
nodes = (
(300,800,l),
(400,800,l),
(400,900,l),
(300,900,l)
);
},
{
closed = 1;
nodes = (
(400,900,l),
(1000,900,l),
(1000,300,l),
(900,300,l),
(900,200,l),
(1000,200,l),
(1000,0,l),
(1300,0,l),
(1300,100,l),
(1100,100,l),
(1100,1000,l),
(400,1000,l)
);
},
{
closed = 1;
nodes = (
(800,100,l),
(900,100,l),
(900,200,l),
(800,200,l)
);
},
{
closed = 1;
nodes = (
(400,100,l),
(400,0,l),
(800,0,l),
(800,100,l)
);
},
{
closed = 1;
nodes = (
(400,200,l),
(300,200,l),
(300,100,l),
(400,100,l)
);
},
{
closed = 1;
nodes = (
(300,300,l),
(200,300,l),
(200,200,l),
(300,200,l)
);
},
{
closed = 1;
nodes = (
(700,1400,l),
(600,1400,l),
(600,1300,l),
(700,1300,l)
);
},
{
closed = 1;
nodes = (
(700,1200,l),
(800,1200,l),
(800,1300,l),
(700,1300,l)
);
},
{
closed = 1;
nodes = (
(600,1500,l),
(500,1500,l),
(500,1400,l),
(600,1400,l)
);
}
);
width = 1400;
}
);
unicode = 224;
},
{
glyphname = acircumflex;
lastChange = "2024-07-21 02:13:27 +0000";
layers = (
{
layerId = m01;
shapes = (
{
closed = 1;
nodes = (
(100,300,l),
(200,300,l),
(200,700,l),
(100,700,l)
);
},
{
closed = 1;
nodes = (
(200,700,l),
(300,700,l),
(300,800,l),
(200,800,l)
);
},
{
closed = 1;
nodes = (
(300,800,l),
(400,800,l),
(400,900,l),
(300,900,l)
);
},
{
closed = 1;
nodes = (
(400,900,l),
(1000,900,l),
(1000,300,l),
(900,300,l),
(900,200,l),
(1000,200,l),
(1000,0,l),
(1300,0,l),
(1300,100,l),
(1100,100,l),
(1100,1000,l),
(400,1000,l)
);
},
{
closed = 1;
nodes = (
(800,100,l),
(900,100,l),
(900,200,l),
(800,200,l)
);
},
{
closed = 1;
nodes = (
(400,100,l),
(400,0,l),
(800,0,l),
(800,100,l)
);
},
{
closed = 1;
nodes = (
(400,200,l),
(300,200,l),
(300,100,l),
(400,100,l)
);
},
{
closed = 1;
nodes = (
(300,300,l),
(200,300,l),
(200,200,l),
(300,200,l)
);
},
{
closed = 1;
nodes = (
(400,1200,l),
(500,1200,l),
(500,1300,l),
(400,1300,l)
);
},
{
closed = 1;
nodes = (
(500,1300,l),
(600,1300,l),
(600,1400,l),
(500,1400,l)
);
},
{
closed = 1;
nodes = (
(600,1400,l),
(700,1400,l),
(700,1500,l),
(600,1500,l)
);
},
{
closed = 1;
nodes = (
(700,1300,l),
(800,1300,l),
(800,1400,l),
(700,1400,l)
);
},
{
closed = 1;
nodes = (
(800,1200,l),
(900,1200,l),
(900,1300,l),
(800,1300,l)
);
}
);
width = 1400;
}
);
unicode = 226;
},
{
glyphname = adieresis;
lastChange = "2024-07-21 02:13:27 +0000";
layers = (
{
layerId = m01;
shapes = (
{
closed = 1;
nodes = (
(100,300,l),
(200,300,l),
(200,700,l),
(100,700,l)
);
},
{
closed = 1;
nodes = (
(200,700,l),
(300,700,l),
(300,800,l),
(200,800,l)
);
},
{
closed = 1;
nodes = (
(300,800,l),
(400,800,l),
(400,900,l),
(300,900,l)
);
},
{
closed = 1;
nodes = (
(400,900,l),
(1000,900,l),
(1000,300,l),
(900,300,l),
(900,200,l),
(1000,200,l),
(1000,0,l),
(1300,0,l),
(1300,100,l),
(1100,100,l),
(1100,1000,l),
(400,1000,l)
);
},
{
closed = 1;
nodes = (
(800,100,l),
(900,100,l),
(900,200,l),
(800,200,l)
);
},
{
closed = 1;
nodes = (
(400,100,l),
(400,0,l),
(800,0,l),
(800,100,l)
);
},
{
closed = 1;
nodes = (
(400,200,l),
(300,200,l),
(300,100,l),
(400,100,l)
);
},
{
closed = 1;
nodes = (
(300,300,l),
(200,300,l),
(200,200,l),
(300,200,l)
);
},
{
closed = 1;
nodes = (
(500,1200,l),
(600,1200,l),
(600,1300,l),
(500,1300,l)
);
},
{
closed = 1;
nodes = (
(900,1200,l),
(1000,1200,l),
(1000,1300,l),
(900,1300,l)
);
}
);
width = 1400;
}
);
unicode = 228;
},
{
glyphname = atilde;
lastChange = "2024-07-21 02:13:27 +0000";
layers = (
{
layerId = m01;
shapes = (
{
closed = 1;
nodes = (
(100,300,l),
(200,300,l),
(200,700,l),
(100,700,l)
);
},
{
closed = 1;
nodes = (
(200,700,l),
(300,700,l),
(300,800,l),
(200,800,l)
);
},
{
closed = 1;
nodes = (
(300,800,l),
(400,800,l),
(400,900,l),
(300,900,l)
);
},
{
closed = 1;
nodes = (
(400,900,l),
(1000,900,l),
(1000,300,l),
(900,300,l),
(900,200,l),
(1000,200,l),
(1000,0,l),
(1300,0,l),
(1300,100,l),
(1100,100,l),
(1100,1000,l),
(400,1000,l)
);
},
{
closed = 1;
nodes = (
(800,100,l),
(900,100,l),
(900,200,l),
(800,200,l)
);
},
{
closed = 1;
nodes = (
(400,100,l),
(400,0,l),
(800,0,l),
(800,100,l)
);
},
{
closed = 1;
nodes = (
(400,200,l),
(300,200,l),
(300,100,l),
(400,100,l)
);
},
{
closed = 1;
nodes = (
(300,300,l),
(200,300,l),
(200,200,l),
(300,200,l)
);
},
{
closed = 1;
nodes = (
(400,1200,l),
(500,1200,l),
(500,1300,l),
(400,1300,l)
);
},
{
closed = 1;
nodes = (
(500,1300,l),
(700,1300,l),
(700,1400,l),
(500,1400,l)
);
},
{
closed = 1;
nodes = (
(700,1200,l),
(900,1200,l),
(900,1300,l),
(700,1300,l)
);
},
{
closed = 1;
nodes = (
(900,1300,l),
(1000,1300,l),
(1000,1400,l),
(900,1400,l)
);
}
);
width = 1400;
}
);
unicode = 227;
},
{
glyphname = aring;
lastChange = "2024-07-21 02:13:27 +0000";
layers = (
{
layerId = m01;
shapes = (
{
closed = 1;
nodes = (
(100,300,l),
(200,300,l),
(200,700,l),
(100,700,l)
);
},
{
closed = 1;
nodes = (
(200,700,l),
(300,700,l),
(300,800,l),
(200,800,l)
);
},
{
closed = 1;
nodes = (
(300,800,l),
(400,800,l),
(400,900,l),
(300,900,l)
);
},
{
closed = 1;
nodes = (
(400,900,l),
(1000,900,l),
(1000,300,l),
(900,300,l),
(900,200,l),
(1000,200,l),
(1000,0,l),
(1300,0,l),
(1300,100,l),
(1100,100,l),
(1100,1000,l),
(400,1000,l)
);
},
{
closed = 1;
nodes = (
(800,100,l),
(900,100,l),
(900,200,l),
(800,200,l)
);
},
{
closed = 1;
nodes = (
(400,100,l),
(400,0,l),
(800,0,l),
(800,100,l)
);
},
{
closed = 1;
nodes = (
(400,200,l),
(300,200,l),
(300,100,l),
(400,100,l)
);
},
{
closed = 1;
nodes = (
(300,300,l),
(200,300,l),
(200,200,l),
(300,200,l)
);
},
{
closed = 1;
nodes = (
(500,1300,l),
(500,1200,l),
(700,1200,l),
(700,1300,l)
);
},
{
closed = 1;
nodes = (
(500,1500,l),
(400,1500,l),
(400,1300,l),
(500,1300,l)
);
},
{
closed = 1;
nodes = (
(500,1500,l),
(700,1500,l),
(700,1600,l),
(500,1600,l)
);
},
{
closed = 1;
nodes = (
(700,1300,l),
(800,1300,l),
(800,1500,l),
(700,1500,l)
);
}
);
width = 1400;
}
);
unicode = 229;
},
{
glyphname = ccedilla;
lastChange = "2024-07-21 02:13:37 +0000";
layers = (
{
layerId = m01;
shapes = (
{
closed = 1;
nodes = (
(100,300,l),
(200,300,l),
(200,700,l),
(100,700,l)
);
},
{
closed = 1;
nodes = (
(200,700,l),
(300,700,l),
(300,800,l),
(200,800,l)
);
},
{
closed = 1;
nodes = (
(300,800,l),
(400,800,l),
(400,900,l),
(300,900,l)
);
},
{
closed = 1;
nodes = (
(400,900,l),
(900,900,l),
(900,1000,l),
(400,1000,l)
);
},
{
closed = 1;
nodes = (
(900,800,l),
(1000,800,l),
(1000,900,l),
(900,900,l)
);
},
{
closed = 1;
nodes = (
(1000,700,l),
(1100,700,l),
(1100,800,l),
(1000,800,l)
);
},
{
closed = 1;
nodes = (
(1000,200,l),
(1100,200,l),
(1100,300,l),
(1000,300,l)
);
},
{
closed = 1;
nodes = (
(900,100,l),
(1000,100,l),
(1000,200,l),
(900,200,l)
);
},
{
closed = 1;
nodes = (
(400,100,l),
(400,0,l),
(600,0,l),
(600,-100,l),
(700,-100,l),
(700,0,l),
(900,0,l),
(900,100,l)
);
},
{
closed = 1;
nodes = (
(400,200,l),
(300,200,l),
(300,100,l),
(400,100,l)
);
},
{
closed = 1;
nodes = (
(300,300,l),
(200,300,l),
(200,200,l),
(300,200,l)
);
},
{
closed = 1;
nodes = (
(700,-300,l),
(800,-300,l),
(800,-100,l),
(700,-100,l)
);
},
{
closed = 1;
nodes = (
(600,-400,l),
(700,-400,l),
(700,-300,l),
(600,-300,l)
);
}
);
width = 1300;
}
);
unicode = 231;
},
{
glyphname = eacute;
lastChange = "2024-07-21 02:13:43 +0000";
layers = (
{
layerId = m01;
shapes = (
{
closed = 1;
nodes = (
(100,300,l),
(200,300,l),
(200,500,l),
(1100,500,l),
(1100,700,l),
(1000,700,l),
(1000,600,l),
(200,600,l),
(200,700,l),
(100,700,l)
);
},
{
closed = 1;
nodes = (
(200,700,l),
(300,700,l),
(300,800,l),
(200,800,l)
);
},
{
closed = 1;
nodes = (
(300,800,l),
(400,800,l),
(400,900,l),
(300,900,l)
);
},
{
closed = 1;
nodes = (
(400,900,l),
(800,900,l),
(800,1000,l),
(400,1000,l)
);
},
{
closed = 1;
nodes = (
(800,800,l),
(900,800,l),
(900,900,l),
(800,900,l)
);
},
{
closed = 1;
nodes = (
(900,700,l),
(1000,700,l),
(1000,800,l),
(900,800,l)
);
},
{
closed = 1;
nodes = (
(200,200,l),
(300,200,l),
(300,300,l),
(200,300,l)
);
},
{
closed = 1;
nodes = (
(300,100,l),
(400,100,l),
(400,200,l),
(300,200,l)
);
},
{
closed = 1;
nodes = (
(400,0,l),
(800,0,l),
(800,100,l),
(400,100,l)
);
},
{
closed = 1;
nodes = (
(800,100,l),
(900,100,l),
(900,200,l),
(800,200,l)
);
},
{
closed = 1;
nodes = (
(900,200,l),
(1000,200,l),
(1000,300,l),
(900,300,l)
);
},
{
closed = 1;
nodes = (
(500,1200,l),
(600,1200,l),
(600,1300,l),
(500,1300,l)
);
},
{
closed = 1;
nodes = (
(600,1300,l),
(700,1300,l),
(700,1400,l),
(600,1400,l)
);
},
{
closed = 1;
nodes = (
(700,1400,l),
(800,1400,l),
(800,1500,l),
(700,1500,l)
);
}
);
width = 1200;
}
);
unicode = 233;
},
{
glyphname = egrave;
lastChange = "2024-07-21 02:13:43 +0000";
layers = (
{
layerId = m01;
shapes = (
{
closed = 1;
nodes = (
(100,300,l),
(200,300,l),
(200,500,l),
(1100,500,l),
(1100,700,l),
(1000,700,l),
(1000,600,l),
(200,600,l),
(200,700,l),
(100,700,l)
);
},
{
closed = 1;
nodes = (
(200,700,l),
(300,700,l),
(300,800,l),
(200,800,l)
);
},
{
closed = 1;
nodes = (
(300,800,l),
(400,800,l),
(400,900,l),
(300,900,l)
);
},
{
closed = 1;
nodes = (
(400,900,l),
(800,900,l),
(800,1000,l),
(400,1000,l)
);
},
{
closed = 1;
nodes = (
(800,800,l),
(900,800,l),
(900,900,l),
(800,900,l)
);
},
{
closed = 1;
nodes = (
(900,700,l),
(1000,700,l),
(1000,800,l),
(900,800,l)
);
},
{
closed = 1;
nodes = (
(200,200,l),
(300,200,l),
(300,300,l),
(200,300,l)
);
},
{
closed = 1;
nodes = (
(300,100,l),
(400,100,l),
(400,200,l),
(300,200,l)
);
},
{
closed = 1;
nodes = (
(400,0,l),
(800,0,l),
(800,100,l),
(400,100,l)
);
},
{
closed = 1;
nodes = (
(800,100,l),
(900,100,l),
(900,200,l),
(800,200,l)
);
},
{
closed = 1;
nodes = (
(900,200,l),
(1000,200,l),
(1000,300,l),
(900,300,l)
);
},
{
closed = 1;
nodes = (
(600,1400,l),
(500,1400,l),
(500,1300,l),
(600,1300,l)
);
},
{
closed = 1;
nodes = (
(600,1200,l),
(700,1200,l),
(700,1300,l),
(600,1300,l)
);
},
{
closed = 1;
nodes = (
(500,1500,l),
(400,1500,l),
(400,1400,l),
(500,1400,l)
);
}
);
width = 1200;
}
);
unicode = 232;
},
{
glyphname = ecircumflex;
lastChange = "2024-07-21 02:13:43 +0000";
layers = (
{
layerId = m01;
shapes = (
{
closed = 1;
nodes = (
(100,300,l),
(200,300,l),
(200,500,l),
(1100,500,l),
(1100,700,l),
(1000,700,l),
(1000,600,l),
(200,600,l),
(200,700,l),
(100,700,l)
);
},
{
closed = 1;
nodes = (
(200,700,l),
(300,700,l),
(300,800,l),
(200,800,l)
);
},
{
closed = 1;
nodes = (
(300,800,l),
(400,800,l),
(400,900,l),
(300,900,l)
);
},
{
closed = 1;
nodes = (
(400,900,l),
(800,900,l),
(800,1000,l),
(400,1000,l)
);
},
{
closed = 1;
nodes = (
(800,800,l),
(900,800,l),
(900,900,l),
(800,900,l)
);
},
{
closed = 1;
nodes = (
(900,700,l),
(1000,700,l),
(1000,800,l),
(900,800,l)
);
},
{
closed = 1;
nodes = (
(200,200,l),
(300,200,l),
(300,300,l),
(200,300,l)
);
},
{
closed = 1;
nodes = (
(300,100,l),
(400,100,l),
(400,200,l),
(300,200,l)
);
},
{
closed = 1;
nodes = (
(400,0,l),
(800,0,l),
(800,100,l),
(400,100,l)
);
},
{
closed = 1;
nodes = (
(800,100,l),
(900,100,l),
(900,200,l),
(800,200,l)
);
},
{
closed = 1;
nodes = (
(900,200,l),
(1000,200,l),
(1000,300,l),
(900,300,l)
);
},
{
closed = 1;
nodes = (
(400,1200,l),
(500,1200,l),
(500,1300,l),
(400,1300,l)
);
},
{
closed = 1;
nodes = (
(500,1300,l),
(600,1300,l),
(600,1400,l),
(500,1400,l)
);
},
{
closed = 1;
nodes = (
(600,1400,l),
(700,1400,l),
(700,1500,l),
(600,1500,l)
);
},
{
closed = 1;
nodes = (
(700,1300,l),
(800,1300,l),
(800,1400,l),
(700,1400,l)
);
},
{
closed = 1;
nodes = (
(800,1200,l),
(900,1200,l),
(900,1300,l),
(800,1300,l)
);
}
);
width = 1200;
}
);
unicode = 234;
},
{
glyphname = edieresis;
lastChange = "2024-07-21 02:13:43 +0000";
layers = (
{
layerId = m01;
shapes = (
{
closed = 1;
nodes = (
(100,300,l),
(200,300,l),
(200,500,l),
(1100,500,l),
(1100,700,l),
(1000,700,l),
(1000,600,l),
(200,600,l),
(200,700,l),
(100,700,l)
);
},
{
closed = 1;
nodes = (
(200,700,l),
(300,700,l),
(300,800,l),
(200,800,l)
);
},
{
closed = 1;
nodes = (
(300,800,l),
(400,800,l),
(400,900,l),
(300,900,l)
);
},
{
closed = 1;
nodes = (
(400,900,l),
(800,900,l),
(800,1000,l),
(400,1000,l)
);
},
{
closed = 1;
nodes = (
(800,800,l),
(900,800,l),
(900,900,l),
(800,900,l)
);
},
{
closed = 1;
nodes = (
(900,700,l),
(1000,700,l),
(1000,800,l),
(900,800,l)
);
},
{
closed = 1;
nodes = (
(200,200,l),
(300,200,l),
(300,300,l),
(200,300,l)
);
},
{
closed = 1;
nodes = (
(300,100,l),
(400,100,l),
(400,200,l),
(300,200,l)
);
},
{
closed = 1;
nodes = (
(400,0,l),
(800,0,l),
(800,100,l),
(400,100,l)
);
},
{
closed = 1;
nodes = (
(800,100,l),
(900,100,l),
(900,200,l),
(800,200,l)
);
},
{
closed = 1;
nodes = (
(900,200,l),
(1000,200,l),
(1000,300,l),
(900,300,l)
);
},
{
closed = 1;
nodes = (
(400,1200,l),
(500,1200,l),
(500,1300,l),
(400,1300,l)
);
},
{
closed = 1;
nodes = (
(700,1200,l),
(800,1200,l),
(800,1300,l),
(700,1300,l)
);
}
);
width = 1200;
}
);
unicode = 235;
},
{
glyphname = iacute;
lastChange = "2024-07-21 02:13:52 +0000";
layers = (
{
layerId = m01;
shapes = (
{
closed = 1;
nodes = (
(300,0,l),
(800,0,l),
(800,100,l),
(600,100,l),
(600,1000,l),
(300,1000,l),
(300,900,l),
(500,900,l),
(500,100,l),
(300,100,l)
);
},
{
closed = 1;
nodes = (
(500,1300,l),
(600,1300,l),
(600,1400,l),
(500,1400,l)
);
},
{
closed = 1;
nodes = (
(400,1200,l),
(500,1200,l),
(500,1300,l),
(400,1300,l)
);
},
{
closed = 1;
nodes = (
(600,1400,l),
(700,1400,l),
(700,1500,l),
(600,1500,l)
);
}
);
width = 1000;
}
);
unicode = 237;
},
{
glyphname = igrave;
lastChange = "2024-07-21 02:13:58 +0000";
layers = (
{
layerId = m01;
shapes = (
{
closed = 1;
nodes = (
(200,0,l),
(700,0,l),
(700,100,l),
(500,100,l),
(500,1000,l),
(200,1000,l),
(200,900,l),
(400,900,l),
(400,100,l),
(200,100,l)
);
},
{
closed = 1;
nodes = (
(400,1400,l),
(300,1400,l),
(300,1300,l),
(400,1300,l)
);
},
{
closed = 1;
nodes = (
(400,1200,l),
(500,1200,l),
(500,1300,l),
(400,1300,l)
);
},
{
closed = 1;
nodes = (
(200,1400,l),
(300,1400,l),
(300,1500,l),
(200,1500,l)
);
}
);
width = 1000;
}
);
unicode = 236;
},
{
glyphname = icircumflex;
lastChange = "2024-07-21 02:14:03 +0000";
layers = (
{
layerId = m01;
shapes = (
{
closed = 1;
nodes = (
(300,0,l),
(800,0,l),
(800,100,l),
(600,100,l),
(600,1000,l),
(300,1000,l),
(300,900,l),
(500,900,l),
(500,100,l),
(300,100,l)
);
},
{
closed = 1;
nodes = (
(200,1200,l),
(300,1200,l),
(300,1300,l),
(200,1300,l)
);
},
{
closed = 1;
nodes = (
(300,1300,l),
(400,1300,l),
(400,1400,l),
(300,1400,l)
);
},
{
closed = 1;
nodes = (
(400,1400,l),
(500,1400,l),
(500,1500,l),
(400,1500,l)
);
},
{
closed = 1;
nodes = (
(500,1300,l),
(600,1300,l),
(600,1400,l),
(500,1400,l)
);
},
{
closed = 1;
nodes = (
(600,1200,l),
(700,1200,l),
(700,1300,l),
(600,1300,l)
);
}
);
width = 1300;
}
);
unicode = 238;
},
{
glyphname = idieresis;
lastChange = "2024-07-21 02:14:08 +0000";
layers = (
{
layerId = m01;
shapes = (
{
closed = 1;
nodes = (
(100,0,l),
(600,0,l),
(600,100,l),
(400,100,l),
(400,1000,l),
(100,1000,l),
(100,900,l),
(300,900,l),
(300,100,l),
(100,100,l)
);
},
{
closed = 1;
nodes = (
(100,1200,l),
(200,1200,l),
(200,1300,l),
(100,1300,l)
);
},
{
closed = 1;
nodes = (
(500,1200,l),
(600,1200,l),
(600,1300,l),
(500,1300,l)
);
}
);
width = 900;
}
);
unicode = 239;
},
{
glyphname = ntilde;
lastChange = "2024-07-21 02:14:13 +0000";
layers = (
{
layerId = m01;
shapes = (
{
closed = 1;
nodes = (
(100,900,l),
(300,900,l),
(300,100,l),
(100,100,l),
(100,0,l),
(600,0,l),
(600,100,l),
(400,100,l),
(400,700,l),
(500,700,l),
(500,800,l),
(400,800,l),
(400,1000,l),
(100,1000,l)
);
},
{
closed = 1;
nodes = (
(500,800,l),
(600,800,l),
(600,900,l),
(500,900,l)
);
},
{
closed = 1;
nodes = (
(600,900,l),
(1000,900,l),
(1000,1000,l),
(600,1000,l)
);
},
{
closed = 1;
nodes = (
(1000,800,l),
(1100,800,l),
(1100,900,l),
(1000,900,l)
);
},
{
closed = 1;
nodes = (
(1100,700,l),
(1200,700,l),
(1200,800,l),
(1100,800,l)
);
},
{
closed = 1;
nodes = (
(1200,100,l),
(1000,100,l),
(1000,0,l),
(1500,0,l),
(1500,100,l),
(1300,100,l),
(1300,700,l),
(1200,700,l)
);
},
{
closed = 1;
nodes = (
(500,1200,l),
(600,1200,l),
(600,1300,l),
(500,1300,l)
);
},
{
closed = 1;
nodes = (
(600,1300,l),
(800,1300,l),
(800,1400,l),
(600,1400,l)
);
},
{
closed = 1;
nodes = (
(800,1200,l),
(1000,1200,l),
(1000,1300,l),
(800,1300,l)
);
},
{
closed = 1;
nodes = (
(1000,1300,l),
(1100,1300,l),
(1100,1400,l),
(1000,1400,l)
);
}
);
width = 1700;
}
);
unicode = 241;
},
{
glyphname = oacute;
lastChange = "2024-07-21 02:14:19 +0000";
layers = (
{
layerId = m01;
shapes = (
{
closed = 1;
nodes = (
(100,300,l),
(200,300,l),
(200,700,l),
(100,700,l)
);
},
{
closed = 1;
nodes = (
(200,700,l),
(300,700,l),
(300,800,l),
(200,800,l)
);
},
{
closed = 1;
nodes = (
(300,800,l),
(400,800,l),
(400,900,l),
(300,900,l)
);
},
{
closed = 1;
nodes = (
(400,900,l),
(800,900,l),
(800,1000,l),
(400,1000,l)
);
},
{
closed = 1;
nodes = (
(800,800,l),
(900,800,l),
(900,900,l),
(800,900,l)
);
},
{
closed = 1;
nodes = (
(900,700,l),
(1000,700,l),
(1000,800,l),
(900,800,l)
);
},
{
closed = 1;
nodes = (
(1000,300,l),
(1100,300,l),
(1100,700,l),
(1000,700,l)
);
},
{
closed = 1;
nodes = (
(900,200,l),
(1000,200,l),
(1000,300,l),
(900,300,l)
);
},
{
closed = 1;
nodes = (
(800,100,l),
(900,100,l),
(900,200,l),
(800,200,l)
);
},
{
closed = 1;
nodes = (
(400,100,l),
(400,0,l),
(800,0,l),
(800,100,l)
);
},
{
closed = 1;
nodes = (
(400,200,l),
(300,200,l),
(300,100,l),
(400,100,l)
);
},
{
closed = 1;
nodes = (
(200,200,l),
(300,200,l),
(300,300,l),
(200,300,l)
);
},
{
closed = 1;
nodes = (
(500,1200,l),
(600,1200,l),
(600,1300,l),
(500,1300,l)
);
},
{
closed = 1;
nodes = (
(600,1300,l),
(700,1300,l),
(700,1400,l),
(600,1400,l)
);
},
{
closed = 1;
nodes = (
(700,1400,l),
(800,1400,l),
(800,1500,l),
(700,1500,l)
);
}
);
width = 1200;
}
);
unicode = 243;
},
{
glyphname = ograve;
lastChange = "2024-07-21 02:14:19 +0000";
layers = (
{
layerId = m01;
shapes = (
{
closed = 1;
nodes = (
(100,300,l),
(200,300,l),
(200,700,l),
(100,700,l)
);
},
{
closed = 1;
nodes = (
(200,700,l),
(300,700,l),
(300,800,l),
(200,800,l)
);
},
{
closed = 1;
nodes = (
(300,800,l),
(400,800,l),
(400,900,l),
(300,900,l)
);
},
{
closed = 1;
nodes = (
(400,900,l),
(800,900,l),
(800,1000,l),
(400,1000,l)
);
},
{
closed = 1;
nodes = (
(800,800,l),
(900,800,l),
(900,900,l),
(800,900,l)
);
},
{
closed = 1;
nodes = (
(900,700,l),
(1000,700,l),
(1000,800,l),
(900,800,l)
);
},
{
closed = 1;
nodes = (
(1000,300,l),
(1100,300,l),
(1100,700,l),
(1000,700,l)
);
},
{
closed = 1;
nodes = (
(900,200,l),
(1000,200,l),
(1000,300,l),
(900,300,l)
);
},
{
closed = 1;
nodes = (
(800,100,l),
(900,100,l),
(900,200,l),
(800,200,l)
);
},
{
closed = 1;
nodes = (
(400,100,l),
(400,0,l),
(800,0,l),
(800,100,l)
);
},
{
closed = 1;
nodes = (
(400,200,l),
(300,200,l),
(300,100,l),
(400,100,l)
);
},
{
closed = 1;
nodes = (
(200,200,l),
(300,200,l),
(300,300,l),
(200,300,l)
);
},
{
closed = 1;
nodes = (
(600,1400,l),
(500,1400,l),
(500,1300,l),
(600,1300,l)
);
},
{
closed = 1;
nodes = (
(600,1200,l),
(700,1200,l),
(700,1300,l),
(600,1300,l)
);
},
{
closed = 1;
nodes = (
(500,1500,l),
(400,1500,l),
(400,1400,l),
(500,1400,l)
);
}
);
width = 1200;
}
);
unicode = 242;
},
{
glyphname = ocircumflex;
lastChange = "2024-07-21 02:14:19 +0000";
layers = (
{
layerId = m01;
shapes = (
{
closed = 1;
nodes = (
(100,300,l),
(200,300,l),
(200,700,l),
(100,700,l)
);
},
{
closed = 1;
nodes = (
(200,700,l),
(300,700,l),
(300,800,l),
(200,800,l)
);
},
{
closed = 1;
nodes = (
(300,800,l),
(400,800,l),
(400,900,l),
(300,900,l)
);
},
{
closed = 1;
nodes = (
(400,900,l),
(800,900,l),
(800,1000,l),
(400,1000,l)
);
},
{
closed = 1;
nodes = (
(800,800,l),
(900,800,l),
(900,900,l),
(800,900,l)
);
},
{
closed = 1;
nodes = (
(900,700,l),
(1000,700,l),
(1000,800,l),
(900,800,l)
);
},
{
closed = 1;
nodes = (
(1000,300,l),
(1100,300,l),
(1100,700,l),
(1000,700,l)
);
},
{
closed = 1;
nodes = (
(900,200,l),
(1000,200,l),
(1000,300,l),
(900,300,l)
);
},
{
closed = 1;
nodes = (
(800,100,l),
(900,100,l),
(900,200,l),
(800,200,l)
);
},
{
closed = 1;
nodes = (
(400,100,l),
(400,0,l),
(800,0,l),
(800,100,l)
);
},
{
closed = 1;
nodes = (
(400,200,l),
(300,200,l),
(300,100,l),
(400,100,l)
);
},
{
closed = 1;
nodes = (
(200,200,l),
(300,200,l),
(300,300,l),
(200,300,l)
);
},
{
closed = 1;
nodes = (
(400,1200,l),
(500,1200,l),
(500,1300,l),
(400,1300,l)
);
},
{
closed = 1;
nodes = (
(500,1300,l),
(600,1300,l),
(600,1400,l),
(500,1400,l)
);
},
{
closed = 1;
nodes = (
(600,1400,l),
(700,1400,l),
(700,1500,l),
(600,1500,l)
);
},
{
closed = 1;
nodes = (
(700,1300,l),
(800,1300,l),
(800,1400,l),
(700,1400,l)
);
},
{
closed = 1;
nodes = (
(800,1200,l),
(900,1200,l),
(900,1300,l),
(800,1300,l)
);
}
);
width = 1200;
}
);
unicode = 244;
},
{
glyphname = odieresis;
lastChange = "2024-07-21 02:14:19 +0000";
layers = (
{
layerId = m01;
shapes = (
{
closed = 1;
nodes = (
(100,300,l),
(200,300,l),
(200,700,l),
(100,700,l)
);
},
{
closed = 1;
nodes = (
(200,700,l),
(300,700,l),
(300,800,l),
(200,800,l)
);
},
{
closed = 1;
nodes = (
(300,800,l),
(400,800,l),
(400,900,l),
(300,900,l)
);
},
{
closed = 1;
nodes = (
(400,900,l),
(800,900,l),
(800,1000,l),
(400,1000,l)
);
},
{
closed = 1;
nodes = (
(800,800,l),
(900,800,l),
(900,900,l),
(800,900,l)
);
},
{
closed = 1;
nodes = (
(900,700,l),
(1000,700,l),
(1000,800,l),
(900,800,l)
);
},
{
closed = 1;
nodes = (
(1000,300,l),
(1100,300,l),
(1100,700,l),
(1000,700,l)
);
},
{
closed = 1;
nodes = (
(900,200,l),
(1000,200,l),
(1000,300,l),
(900,300,l)
);
},
{
closed = 1;
nodes = (
(800,100,l),
(900,100,l),
(900,200,l),
(800,200,l)
);
},
{
closed = 1;
nodes = (
(400,100,l),
(400,0,l),
(800,0,l),
(800,100,l)
);
},
{
closed = 1;
nodes = (
(400,200,l),
(300,200,l),
(300,100,l),
(400,100,l)
);
},
{
closed = 1;
nodes = (
(200,200,l),
(300,200,l),
(300,300,l),
(200,300,l)
);
},
{
closed = 1;
nodes = (
(400,1200,l),
(500,1200,l),
(500,1300,l),
(400,1300,l)
);
},
{
closed = 1;
nodes = (
(700,1200,l),
(800,1200,l),
(800,1300,l),
(700,1300,l)
);
}
);
width = 1200;
}
);
unicode = 246;
},
{
glyphname = otilde;
lastChange = "2024-07-21 02:14:19 +0000";
layers = (
{
layerId = m01;
shapes = (
{
closed = 1;
nodes = (
(100,300,l),
(200,300,l),
(200,700,l),
(100,700,l)
);
},
{
closed = 1;
nodes = (
(200,700,l),
(300,700,l),
(300,800,l),
(200,800,l)
);
},
{
closed = 1;
nodes = (
(300,800,l),
(400,800,l),
(400,900,l),
(300,900,l)
);
},
{
closed = 1;
nodes = (
(400,900,l),
(800,900,l),
(800,1000,l),
(400,1000,l)
);
},
{
closed = 1;
nodes = (
(800,800,l),
(900,800,l),
(900,900,l),
(800,900,l)
);
},
{
closed = 1;
nodes = (
(900,700,l),
(1000,700,l),
(1000,800,l),
(900,800,l)
);
},
{
closed = 1;
nodes = (
(1000,300,l),
(1100,300,l),
(1100,700,l),
(1000,700,l)
);
},
{
closed = 1;
nodes = (
(900,200,l),
(1000,200,l),
(1000,300,l),
(900,300,l)
);
},
{
closed = 1;
nodes = (
(800,100,l),
(900,100,l),
(900,200,l),
(800,200,l)
);
},
{
closed = 1;
nodes = (
(400,100,l),
(400,0,l),
(800,0,l),
(800,100,l)
);
},
{
closed = 1;
nodes = (
(400,200,l),
(300,200,l),
(300,100,l),
(400,100,l)
);
},
{
closed = 1;
nodes = (
(200,200,l),
(300,200,l),
(300,300,l),
(200,300,l)
);
},
{
closed = 1;
nodes = (
(300,1200,l),
(400,1200,l),
(400,1300,l),
(300,1300,l)
);
},
{
closed = 1;
nodes = (
(400,1300,l),
(600,1300,l),
(600,1400,l),
(400,1400,l)
);
},
{
closed = 1;
nodes = (
(600,1200,l),
(800,1200,l),
(800,1300,l),
(600,1300,l)
);
},
{
closed = 1;
nodes = (
(800,1300,l),
(900,1300,l),
(900,1400,l),
(800,1400,l)
);
}
);
width = 1200;
}
);
unicode = 245;
},
{
glyphname = uacute;
lastChange = "2024-07-21 02:14:33 +0000";
layers = (
{
layerId = m01;
shapes = (
{
closed = 1;
nodes = (
(100,900,l),
(300,900,l),
(300,200,l),
(400,200,l),
(400,1000,l),
(100,1000,l)
);
},
{
closed = 1;
nodes = (
(400,100,l),
(500,100,l),
(500,200,l),
(400,200,l)
);
},
{
closed = 1;
nodes = (
(500,0,l),
(900,0,l),
(900,100,l),
(500,100,l)
);
},
{
closed = 1;
nodes = (
(900,100,l),
(1000,100,l),
(1000,200,l),
(900,200,l)
);
},
{
closed = 1;
nodes = (
(1000,200,l),
(1100,200,l),
(1100,0,l),
(1400,0,l),
(1400,100,l),
(1200,100,l),
(1200,1000,l),
(900,1000,l),
(900,900,l),
(1100,900,l),
(1100,300,l),
(1000,300,l)
);
},
{
closed = 1;
nodes = (
(600,1200,l),
(700,1200,l),
(700,1300,l),
(600,1300,l)
);
},
{
closed = 1;
nodes = (
(700,1300,l),
(800,1300,l),
(800,1400,l),
(700,1400,l)
);
},
{
closed = 1;
nodes = (
(800,1400,l),
(900,1400,l),
(900,1500,l),
(800,1500,l)
);
}
);
width = 1600;
}
);
unicode = 250;
},
{
glyphname = ugrave;
lastChange = "2024-07-21 02:14:33 +0000";
layers = (
{
layerId = m01;
shapes = (
{
closed = 1;
nodes = (
(100,900,l),
(300,900,l),
(300,200,l),
(400,200,l),
(400,1000,l),
(100,1000,l)
);
},
{
closed = 1;
nodes = (
(400,100,l),
(500,100,l),
(500,200,l),
(400,200,l)
);
},
{
closed = 1;
nodes = (
(500,0,l),
(900,0,l),
(900,100,l),
(500,100,l)
);
},
{
closed = 1;
nodes = (
(900,100,l),
(1000,100,l),
(1000,200,l),
(900,200,l)
);
},
{
closed = 1;
nodes = (
(1000,200,l),
(1100,200,l),
(1100,0,l),
(1400,0,l),
(1400,100,l),
(1200,100,l),
(1200,1000,l),
(900,1000,l),
(900,900,l),
(1100,900,l),
(1100,300,l),
(1000,300,l)
);
},
{
closed = 1;
nodes = (
(700,1400,l),
(600,1400,l),
(600,1300,l),
(700,1300,l)
);
},
{
closed = 1;
nodes = (
(700,1200,l),
(800,1200,l),
(800,1300,l),
(700,1300,l)
);
},
{
closed = 1;
nodes = (
(600,1500,l),
(500,1500,l),
(500,1400,l),
(600,1400,l)
);
}
);
width = 1600;
}
);
unicode = 249;
},
{
glyphname = ucircumflex;
lastChange = "2024-07-21 02:14:33 +0000";
layers = (
{
layerId = m01;
shapes = (
{
closed = 1;
nodes = (
(100,900,l),
(300,900,l),
(300,200,l),
(400,200,l),
(400,1000,l),
(100,1000,l)
);
},
{
closed = 1;
nodes = (
(400,100,l),
(500,100,l),
(500,200,l),
(400,200,l)
);
},
{
closed = 1;
nodes = (
(500,0,l),
(900,0,l),
(900,100,l),
(500,100,l)
);
},
{
closed = 1;
nodes = (
(900,100,l),
(1000,100,l),
(1000,200,l),
(900,200,l)
);
},
{
closed = 1;
nodes = (
(1000,200,l),
(1100,200,l),
(1100,0,l),
(1400,0,l),
(1400,100,l),
(1200,100,l),
(1200,1000,l),
(900,1000,l),
(900,900,l),
(1100,900,l),
(1100,300,l),
(1000,300,l)
);
},
{
closed = 1;
nodes = (
(500,1200,l),
(600,1200,l),
(600,1300,l),
(500,1300,l)
);
},
{
closed = 1;
nodes = (
(600,1300,l),
(700,1300,l),
(700,1400,l),
(600,1400,l)
);
},
{
closed = 1;
nodes = (
(700,1400,l),
(800,1400,l),
(800,1500,l),
(700,1500,l)
);
},
{
closed = 1;
nodes = (
(800,1300,l),
(900,1300,l),
(900,1400,l),
(800,1400,l)
);
},
{
closed = 1;
nodes = (
(900,1200,l),
(1000,1200,l),
(1000,1300,l),
(900,1300,l)
);
}
);
width = 1600;
}
);
unicode = 251;
},
{
glyphname = udieresis;
lastChange = "2024-07-21 02:14:33 +0000";
layers = (
{
layerId = m01;
shapes = (
{
closed = 1;
nodes = (
(100,900,l),
(300,900,l),
(300,200,l),
(400,200,l),
(400,1000,l),
(100,1000,l)
);
},
{
closed = 1;
nodes = (
(400,100,l),
(500,100,l),
(500,200,l),
(400,200,l)
);
},
{
closed = 1;
nodes = (
(500,0,l),
(900,0,l),
(900,100,l),
(500,100,l)
);
},
{
closed = 1;
nodes = (
(900,100,l),
(1000,100,l),
(1000,200,l),
(900,200,l)
);
},
{
closed = 1;
nodes = (
(1000,200,l),
(1100,200,l),
(1100,0,l),
(1400,0,l),
(1400,100,l),
(1200,100,l),
(1200,1000,l),
(1000,1000,l),
(1000,900,l),
(1100,900,l),
(1100,300,l),
(1000,300,l)
);
},
{
closed = 1;
nodes = (
(500,1200,l),
(600,1200,l),
(600,1300,l),
(500,1300,l)
);
},
{
closed = 1;
nodes = (
(900,1200,l),
(1000,1200,l),
(1000,1300,l),
(900,1300,l)
);
}
);
width = 1600;
}
);
unicode = 252;
},
{
glyphname = dagger;
lastChange = "2024-07-21 02:14:40 +0000";
layers = (
{
layerId = m01;
shapes = (
{
closed = 1;
nodes = (
(100,1200,l),
(300,1200,l),
(300,700,l),
(400,700,l),
(400,1200,l),
(600,1200,l),
(600,1300,l),
(400,1300,l),
(400,1500,l),
(300,1500,l),
(300,1300,l),
(100,1300,l)
);
}
);
width = 800;
}
);
unicode = 8224;
},
{
glyphname = degree;
lastChange = "2024-07-21 02:14:49 +0000";
layers = (
{
layerId = m01;
shapes = (
{
closed = 1;
nodes = (
(300,1200,l),
(500,1200,l),
(500,1300,l),
(300,1300,l)
);
},
{
closed = 1;
nodes = (
(200,1000,l),
(300,1000,l),
(300,1200,l),
(200,1200,l)
);
},
{
closed = 1;
nodes = (
(300,900,l),
(500,900,l),
(500,1000,l),
(300,1000,l)
);
},
{
closed = 1;
nodes = (
(500,1000,l),
(600,1000,l),
(600,1200,l),
(500,1200,l)
);
}
);
width = 900;
}
);
unicode = 176;
},
{
glyphname = cent;
lastChange = "2024-07-21 02:14:55 +0000";
layers = (
{
layerId = m01;
shapes = (
{
closed = 1;
nodes = (
(600,1100,l),
(400,1100,l),
(400,1000,l),
(600,1000,l),
(600,200,l),
(400,200,l),
(400,100,l),
(600,100,l),
(600,-100,l),
(700,-100,l),
(700,100,l),
(900,100,l),
(900,200,l),
(700,200,l),
(700,1000,l),
(900,1000,l),
(900,1100,l),
(700,1100,l),
(700,1300,l),
(600,1300,l)
);
},
{
closed = 1;
nodes = (
(900,200,l),
(1000,200,l),
(1000,300,l),
(900,300,l)
);
},
{
closed = 1;
nodes = (
(1000,300,l),
(1100,300,l),
(1100,400,l),
(1000,400,l)
);
},
{
closed = 1;
nodes = (
(400,300,l),
(300,300,l),
(300,200,l),
(400,200,l)
);
},
{
closed = 1;
nodes = (
(200,800,l),
(100,800,l),
(100,400,l),
(200,400,l)
);
},
{
closed = 1;
nodes = (
(200,300,l),
(300,300,l),
(300,400,l),
(200,400,l)
);
},
{
closed = 1;
nodes = (
(200,800,l),
(300,800,l),
(300,900,l),
(200,900,l)
);
},
{
closed = 1;
nodes = (
(300,900,l),
(400,900,l),
(400,1000,l),
(300,1000,l)
);
},
{
closed = 1;
nodes = (
(900,900,l),
(1000,900,l),
(1000,1000,l),
(900,1000,l)
);
},
{
closed = 1;
nodes = (
(1000,800,l),
(1100,800,l),
(1100,900,l),
(1000,900,l)
);
}
);
width = 1300;
}
);
unicode = 162;
},
{
glyphname = sterling;
lastChange = "2024-07-21 02:01:06 +0000";
layers = (
{
layerId = m01;
shapes = (
{
closed = 1;
nodes = (
(200,0,l),
(1000,0,l),
(1000,100,l),
(400,100,l),
(400,700,l),
(600,700,l),
(600,800,l),
(400,800,l),
(400,1200,l),
(300,1200,l),
(300,800,l),
(200,800,l),
(200,700,l),
(300,700,l),
(300,100,l),
(200,100,l)
);
},
{
closed = 1;
nodes = (
(400,1200,l),
(500,1200,l),
(500,1300,l),
(400,1300,l)
);
},
{
closed = 1;
nodes = (
(500,1300,l),
(900,1300,l),
(900,1400,l),
(500,1400,l)
);
},
{
closed = 1;
nodes = (
(900,1200,l),
(1000,1200,l),
(1000,1300,l),
(900,1300,l)
);
},
{
closed = 1;
nodes = (
(1000,100,l),
(1100,100,l),
(1100,200,l),
(1000,200,l)
);
},
{
closed = 1;
nodes = (
(1100,200,l),
(1200,200,l),
(1200,400,l),
(1100,400,l)
);
}
);
width = 1400;
}
);
unicode = 163;
},
{
glyphname = section;
lastChange = "2024-07-21 02:01:06 +0000";
layers = (
{
layerId = m01;
shapes = (
{
closed = 1;
nodes = (
(200,0,l),
(300,0,l),
(300,200,l),
(200,200,l)
);
},
{
closed = 1;
nodes = (
(300,-100,l),
(400,-100,l),
(400,0,l),
(300,0,l)
);
},
{
closed = 1;
nodes = (
(400,-200,l),
(800,-200,l),
(800,-100,l),
(400,-100,l)
);
},
{
closed = 1;
nodes = (
(800,-100,l),
(900,-100,l),
(900,0,l),
(800,0,l)
);
},
{
closed = 1;
nodes = (
(900,0,l),
(1000,0,l),
(1000,300,l),
(900,300,l)
);
},
{
closed = 1;
nodes = (
(900,400,l),
(700,400,l),
(700,300,l),
(900,300,l)
);
},
{
closed = 1;
nodes = (
(700,500,l),
(500,500,l),
(500,400,l),
(700,400,l)
);
},
{
closed = 1;
nodes = (
(500,600,l),
(300,600,l),
(300,500,l),
(500,500,l)
);
},
{
closed = 1;
nodes = (
(300,900,l),
(200,900,l),
(200,600,l),
(300,600,l)
);
},
{
closed = 1;
nodes = (
(300,1300,l),
(200,1300,l),
(200,1000,l),
(300,1000,l)
);
},
{
closed = 1;
nodes = (
(300,900,l),
(500,900,l),
(500,1000,l),
(300,1000,l)
);
},
{
closed = 1;
nodes = (
(500,900,l),
(500,800,l),
(700,800,l),
(700,900,l)
);
},
{
closed = 1;
nodes = (
(700,700,l),
(900,700,l),
(900,800,l),
(700,800,l)
);
},
{
closed = 1;
nodes = (
(900,400,l),
(1000,400,l),
(1000,700,l),
(900,700,l)
);
},
{
closed = 1;
nodes = (
(300,1300,l),
(400,1300,l),
(400,1400,l),
(300,1400,l)
);
},
{
closed = 1;
nodes = (
(400,1400,l),
(800,1400,l),
(800,1500,l),
(400,1500,l)
);
},
{
closed = 1;
nodes = (
(800,1300,l),
(900,1300,l),
(900,1400,l),
(800,1400,l)
);
},
{
closed = 1;
nodes = (
(900,1100,l),
(1000,1100,l),
(1000,1300,l),
(900,1300,l)
);
}
);
width = 1200;
}
);
unicode = 167;
},
{
glyphname = bullet;
lastChange = "2024-07-21 02:01:06 +0000";
layers = (
{
layerId = m01;
shapes = (
{
closed = 1;
nodes = (
(500,200,l),
(800,200,l),
(800,300,l),
(1000,300,l),
(1000,500,l),
(1100,500,l),
(1100,800,l),
(1000,800,l),
(1000,1000,l),
(800,1000,l),
(800,1100,l),
(500,1100,l),
(500,1000,l),
(300,1000,l),
(300,800,l),
(200,800,l),
(200,500,l),
(300,500,l),
(300,300,l),
(500,300,l)
);
}
);
width = 1300;
}
);
unicode = 8226;
},
{
glyphname = paragraph;
lastChange = "2024-07-21 02:01:06 +0000";
layers = (
{
layerId = m01;
shapes = (
{
closed = 1;
nodes = (
(700,0,l),
(1000,0,l),
(1000,1400,l),
(400,1400,l),
(400,1300,l),
(900,1300,l),
(900,600,l),
(400,600,l),
(400,500,l),
(900,500,l),
(900,100,l),
(700,100,l)
);
},
{
closed = 1;
nodes = (
(300,1200,l),
(400,1200,l),
(400,1300,l),
(300,1300,l)
);
},
{
closed = 1;
nodes = (
(200,700,l),
(300,700,l),
(300,1200,l),
(200,1200,l)
);
},
{
closed = 1;
nodes = (
(300,600,l),
(400,600,l),
(400,700,l),
(300,700,l)
);
},
{
closed = 1;
nodes = (
(1200,100,l),
(1200,1300,l),
(1400,1300,l),
(1400,1400,l),
(1100,1400,l),
(1100,0,l),
(1400,0,l),
(1400,100,l)
);
}
);
width = 1600;
}
);
unicode = 182;
},
{
glyphname = germandbls;
lastChange = "2024-07-21 02:15:08 +0000";
layers = (
{
layerId = m01;
shapes = (
{
closed = 1;
nodes = (
(0,0,l),
(300,0,l),
(300,1200,l),
(200,1200,l),
(200,100,l),
(0,100,l)
);
},
{
closed = 1;
nodes = (
(300,1200,l),
(400,1200,l),
(400,1300,l),
(300,1300,l)
);
},
{
closed = 1;
nodes = (
(400,1300,l),
(900,1300,l),
(900,1400,l),
(400,1400,l)
);
},
{
closed = 1;
nodes = (
(900,1200,l),
(1000,1200,l),
(1000,1300,l),
(900,1300,l)
);
},
{
closed = 1;
nodes = (
(1000,900,l),
(1100,900,l),
(1100,1200,l),
(1000,1200,l)
);
},
{
closed = 1;
nodes = (
(900,800,l),
(700,800,l),
(700,700,l),
(1000,700,l),
(1000,900,l),
(900,900,l)
);
},
{
closed = 1;
nodes = (
(1000,600,l),
(1100,600,l),
(1100,700,l),
(1000,700,l)
);
},
{
closed = 1;
nodes = (
(1100,200,l),
(1200,200,l),
(1200,600,l),
(1100,600,l)
);
},
{
closed = 1;
nodes = (
(1000,100,l),
(1100,100,l),
(1100,200,l),
(1000,200,l)
);
},
{
closed = 1;
nodes = (
(500,100,l),
(500,0,l),
(1000,0,l),
(1000,100,l)
);
}
);
width = 1300;
}
);
unicode = 223;
},
{
glyphname = registered;
lastChange = "2024-07-21 02:01:06 +0000";
layers = (
{
layerId = m01;
shapes = (
{
closed = 1;
nodes = (
(200,300,l),
(300,300,l),
(300,800,l),
(200,800,l)
);
},
{
closed = 1;
nodes = (
(300,800,l),
(400,800,l),
(400,900,l),
(300,900,l)
);
},
{
closed = 1;
nodes = (
(400,900,l),
(500,900,l),
(500,1000,l),
(400,1000,l)
);
},
{
closed = 1;
nodes = (
(500,1000,l),
(1000,1000,l),
(1000,1100,l),
(500,1100,l)
);
},
{
closed = 1;
nodes = (
(1000,900,l),
(1100,900,l),
(1100,1000,l),
(1000,1000,l)
);
},
{
closed = 1;
nodes = (
(1100,800,l),
(1200,800,l),
(1200,900,l),
(1100,900,l)
);
},
{
closed = 1;
nodes = (
(1200,300,l),
(1300,300,l),
(1300,800,l),
(1200,800,l)
);
},
{
closed = 1;
nodes = (
(1100,200,l),
(1200,200,l),
(1200,300,l),
(1100,300,l)
);
},
{
closed = 1;
nodes = (
(1000,100,l),
(1100,100,l),
(1100,200,l),
(1000,200,l)
);
},
{
closed = 1;
nodes = (
(500,100,l),
(500,0,l),
(1000,0,l),
(1000,100,l)
);
},
{
closed = 1;
nodes = (
(500,200,l),
(400,200,l),
(400,100,l),
(500,100,l)
);
},
{
closed = 1;
nodes = (
(400,300,l),
(300,300,l),
(300,200,l),
(400,200,l)
);
},
{
closed = 1;
nodes = (
(500,300,l),
(600,300,l),
(600,500,l),
(800,500,l),
(800,400,l),
(900,400,l),
(900,600,l),
(600,600,l),
(600,700,l),
(900,700,l),
(900,800,l),
(500,800,l)
);
},
{
closed = 1;
nodes = (
(900,600,l),
(1000,600,l),
(1000,700,l),
(900,700,l)
);
},
{
closed = 1;
nodes = (
(900,300,l),
(1000,300,l),
(1000,400,l),
(900,400,l)
);
}
);
width = 1500;
}
);
unicode = 174;
},
{
glyphname = copyright;
lastChange = "2024-07-21 02:01:06 +0000";
layers = (
{
layerId = m01;
shapes = (
{
closed = 1;
nodes = (
(200,300,l),
(300,300,l),
(300,800,l),
(200,800,l)
);
},
{
closed = 1;
nodes = (
(300,800,l),
(400,800,l),
(400,900,l),
(300,900,l)
);
},
{
closed = 1;
nodes = (
(400,900,l),
(500,900,l),
(500,1000,l),
(400,1000,l)
);
},
{
closed = 1;
nodes = (
(500,1000,l),
(1000,1000,l),
(1000,1100,l),
(500,1100,l)
);
},
{
closed = 1;
nodes = (
(1000,900,l),
(1100,900,l),
(1100,1000,l),
(1000,1000,l)
);
},
{
closed = 1;
nodes = (
(1100,800,l),
(1200,800,l),
(1200,900,l),
(1100,900,l)
);
},
{
closed = 1;
nodes = (
(1200,300,l),
(1300,300,l),
(1300,800,l),
(1200,800,l)
);
},
{
closed = 1;
nodes = (
(1100,200,l),
(1200,200,l),
(1200,300,l),
(1100,300,l)
);
},
{
closed = 1;
nodes = (
(1000,100,l),
(1100,100,l),
(1100,200,l),
(1000,200,l)
);
},
{
closed = 1;
nodes = (
(500,100,l),
(500,0,l),
(1000,0,l),
(1000,100,l)
);
},
{
closed = 1;
nodes = (
(500,200,l),
(400,200,l),
(400,100,l),
(500,100,l)
);
},
{
closed = 1;
nodes = (
(400,300,l),
(300,300,l),
(300,200,l),
(400,200,l)
);
},
{
closed = 1;
nodes = (
(900,800,l),
(600,800,l),
(600,700,l),
(900,700,l)
);
},
{
closed = 1;
nodes = (
(900,600,l),
(1000,600,l),
(1000,700,l),
(900,700,l)
);
},
{
closed = 1;
nodes = (
(500,400,l),
(600,400,l),
(600,700,l),
(500,700,l)
);
},
{
closed = 1;
nodes = (
(600,300,l),
(900,300,l),
(900,400,l),
(600,400,l)
);
},
{
closed = 1;
nodes = (
(900,400,l),
(1000,400,l),
(1000,500,l),
(900,500,l)
);
}
);
width = 1500;
}
);
unicode = 169;
},
{
glyphname = trademark;
lastChange = "2024-07-21 02:15:18 +0000";
layers = (
{
layerId = m01;
shapes = (
{
closed = 1;
nodes = (
(200,1300,l),
(300,1300,l),
(300,900,l),
(400,900,l),
(400,1300,l),
(600,1300,l),
(600,1400,l),
(200,1400,l)
);
},
{
closed = 1;
nodes = (
(700,900,l),
(800,900,l),
(800,1200,l),
(900,1200,l),
(900,1300,l),
(800,1300,l),
(800,1400,l),
(700,1400,l)
);
},
{
closed = 1;
nodes = (
(900,1100,l),
(1000,1100,l),
(1000,1200,l),
(900,1200,l)
);
},
{
closed = 1;
nodes = (
(1000,1000,l),
(1100,1000,l),
(1100,1100,l),
(1000,1100,l)
);
},
{
closed = 1;
nodes = (
(1100,1100,l),
(1200,1100,l),
(1200,1200,l),
(1100,1200,l)
);
},
{
closed = 1;
nodes = (
(1200,1200,l),
(1300,1200,l),
(1300,900,l),
(1400,900,l),
(1400,1400,l),
(1300,1400,l),
(1300,1300,l),
(1200,1300,l)
);
}
);
width = 1800;
}
);
unicode = 8482;
},
{
glyphname = acute;
lastChange = "2024-07-21 02:15:23 +0000";
layers = (
{
layerId = m01;
shapes = (
{
closed = 1;
nodes = (
(400,1200,l),
(500,1200,l),
(500,1300,l),
(400,1300,l)
);
},
{
closed = 1;
nodes = (
(300,1100,l),
(400,1100,l),
(400,1200,l),
(300,1200,l)
);
},
{
closed = 1;
nodes = (
(500,1300,l),
(600,1300,l),
(600,1400,l),
(500,1400,l)
);
}
);
width = 1000;
}
);
unicode = 180;
},
{
glyphname = dieresis;
lastChange = "2024-07-21 02:15:28 +0000";
layers = (
{
layerId = m01;
shapes = (
{
closed = 1;
nodes = (
(300,1300,l),
(400,1300,l),
(400,1400,l),
(300,1400,l)
);
},
{
closed = 1;
nodes = (
(700,1300,l),
(800,1300,l),
(800,1400,l),
(700,1400,l)
);
}
);
width = 1100;
}
);
unicode = 168;
},
{
glyphname = AE;
lastChange = "2024-07-21 02:15:38 +0000";
layers = (
{
layerId = m01;
shapes = (
{
closed = 1;
nodes = (
(200,0,l),
(700,0,l),
(700,100,l),
(500,100,l),
(500,300,l),
(400,300,l),
(400,100,l),
(200,100,l)
);
},
{
closed = 1;
nodes = (
(500,300,l),
(600,300,l),
(600,500,l),
(500,500,l)
);
},
{
closed = 1;
nodes = (
(600,500,l),
(700,500,l),
(700,700,l),
(1000,700,l),
(1000,100,l),
(900,100,l),
(900,0,l),
(1900,0,l),
(1900,300,l),
(1800,300,l),
(1800,100,l),
(1100,100,l),
(1100,700,l),
(1500,700,l),
(1500,600,l),
(1600,600,l),
(1600,900,l),
(1500,900,l),
(1500,800,l),
(1100,800,l),
(1100,1300,l),
(1800,1300,l),
(1800,1100,l),
(1900,1100,l),
(1900,1400,l),
(900,1400,l),
(900,1200,l),
(1000,1200,l),
(1000,800,l),
(800,800,l),
(800,1000,l),
(700,1000,l),
(700,800,l),
(600,800,l)
);
},
{
closed = 1;
nodes = (
(800,1000,l),
(900,1000,l),
(900,1200,l),
(800,1200,l)
);
}
);
width = 2100;
}
);
unicode = 198;
},
{
glyphname = Oslash;
lastChange = "2024-07-21 02:01:06 +0000";
layers = (
{
layerId = m01;
shapes = (
{
closed = 1;
nodes = (
(200,400,l),
(300,400,l),
(300,1000,l),
(200,1000,l)
);
},
{
closed = 1;
nodes = (
(300,1000,l),
(400,1000,l),
(400,1200,l),
(300,1200,l)
);
},
{
closed = 1;
nodes = (
(400,1200,l),
(600,1200,l),
(600,1300,l),
(400,1300,l)
);
},
{
closed = 1;
nodes = (
(600,1300,l),
(1000,1300,l),
(1000,1400,l),
(600,1400,l)
);
},
{
closed = 1;
nodes = (
(1000,1200,l),
(1200,1200,l),
(1200,1300,l),
(1000,1300,l)
);
},
{
closed = 1;
nodes = (
(1200,1100,l),
(1100,1100,l),
(1100,1000,l),
(1300,1000,l),
(1300,1200,l),
(1200,1200,l)
);
},
{
closed = 1;
nodes = (
(1300,400,l),
(1400,400,l),
(1400,1000,l),
(1300,1000,l)
);
},
{
closed = 1;
nodes = (
(1200,200,l),
(1300,200,l),
(1300,400,l),
(1200,400,l)
);
},
{
closed = 1;
nodes = (
(1000,200,l),
(1000,100,l),
(1200,100,l),
(1200,200,l)
);
},
{
closed = 1;
nodes = (
(600,100,l),
(600,0,l),
(1000,0,l),
(1000,100,l)
);
},
{
closed = 1;
nodes = (
(600,300,l),
(500,300,l),
(500,200,l),
(400,200,l),
(400,100,l),
(600,100,l)
);
},
{
closed = 1;
nodes = (
(400,400,l),
(300,400,l),
(300,200,l),
(400,200,l)
);
},
{
closed = 1;
nodes = (
(300,0,l),
(400,0,l),
(400,100,l),
(300,100,l)
);
},
{
closed = 1;
nodes = (
(600,300,l),
(700,300,l),
(700,400,l),
(600,400,l)
);
},
{
closed = 1;
nodes = (
(700,400,l),
(800,400,l),
(800,600,l),
(700,600,l)
);
},
{
closed = 1;
nodes = (
(800,600,l),
(900,600,l),
(900,700,l),
(800,700,l)
);
},
{
closed = 1;
nodes = (
(900,700,l),
(1000,700,l),
(1000,900,l),
(900,900,l)
);
},
{
closed = 1;
nodes = (
(1000,900,l),
(1100,900,l),
(1100,1000,l),
(1000,1000,l)
);
},
{
closed = 1;
nodes = (
(1300,1200,l),
(1400,1200,l),
(1400,1300,l),
(1300,1300,l)
);
}
);
width = 1600;
}
);
unicode = 216;
},
{
glyphname = yen;
lastChange = "2024-07-21 02:17:04 +0000";
layers = (
{
layerId = m01;
shapes = (
{
closed = 1;
nodes = (
(200,1300,l),
(300,1300,l),
(300,1400,l),
(200,1400,l)
);
},
{
closed = 1;
nodes = (
(300,1200,l),
(400,1200,l),
(400,1300,l),
(300,1300,l)
);
},
{
closed = 1;
nodes = (
(400,1100,l),
(500,1100,l),
(500,1200,l),
(400,1200,l)
);
},
{
closed = 1;
nodes = (
(500,1000,l),
(300,1000,l),
(300,900,l),
(700,900,l),
(700,1000,l),
(600,1000,l),
(600,1100,l),
(500,1100,l)
);
},
{
closed = 1;
nodes = (
(800,900,l),
(1200,900,l),
(1200,1000,l),
(1000,1000,l),
(1000,1100,l),
(900,1100,l),
(900,1000,l),
(800,1000,l)
);
},
{
closed = 1;
nodes = (
(1000,1100,l),
(1100,1100,l),
(1100,1200,l),
(1000,1200,l)
);
},
{
closed = 1;
nodes = (
(1100,1200,l),
(1200,1200,l),
(1200,1300,l),
(1100,1300,l)
);
},
{
closed = 1;
nodes = (
(1200,1300,l),
(1300,1300,l),
(1300,1400,l),
(1200,1400,l)
);
},
{
closed = 1;
nodes = (
(300,600,l),
(700,600,l),
(700,0,l),
(800,0,l),
(800,600,l),
(1200,600,l),
(1200,700,l),
(800,700,l),
(800,900,l),
(700,900,l),
(700,700,l),
(300,700,l)
);
}
);
width = 1600;
}
);
unicode = 165;
},
{
glyphname = ordfeminine;
lastChange = "2024-07-21 02:01:06 +0000";
layers = (
{
layerId = m01;
shapes = (
{
closed = 1;
nodes = (
(300,1200,l),
(400,1200,l),
(400,1300,l),
(300,1300,l)
);
},
{
closed = 1;
nodes = (
(400,1300,l),
(800,1300,l),
(800,900,l),
(700,900,l),
(700,800,l),
(800,800,l),
(800,700,l),
(1000,700,l),
(1000,800,l),
(900,800,l),
(900,1400,l),
(400,1400,l)
);
},
{
closed = 1;
nodes = (
(400,800,l),
(400,700,l),
(700,700,l),
(700,800,l)
);
},
{
closed = 1;
nodes = (
(400,900,l),
(300,900,l),
(300,800,l),
(400,800,l)
);
},
{
closed = 1;
nodes = (
(300,1200,l),
(200,1200,l),
(200,900,l),
(300,900,l)
);
},
{
closed = 1;
nodes = (
(200,600,l),
(200,500,l),
(1000,500,l),
(1000,600,l)
);
}
);
width = 1200;
}
);
unicode = 170;
},
{
glyphname = ordmasculine;
lastChange = "2024-07-21 02:01:06 +0000";
layers = (
{
layerId = m01;
shapes = (
{
closed = 1;
nodes = (
(200,500,l),
(900,500,l),
(900,600,l),
(200,600,l)
);
},
{
closed = 1;
nodes = (
(400,900,l),
(300,900,l),
(300,800,l),
(400,800,l)
);
},
{
closed = 1;
nodes = (
(400,700,l),
(700,700,l),
(700,800,l),
(400,800,l)
);
},
{
closed = 1;
nodes = (
(700,800,l),
(800,800,l),
(800,900,l),
(700,900,l)
);
},
{
closed = 1;
nodes = (
(800,900,l),
(900,900,l),
(900,1200,l),
(800,1200,l)
);
},
{
closed = 1;
nodes = (
(800,1300,l),
(700,1300,l),
(700,1200,l),
(800,1200,l)
);
},
{
closed = 1;
nodes = (
(700,1400,l),
(400,1400,l),
(400,1300,l),
(700,1300,l)
);
},
{
closed = 1;
nodes = (
(300,1200,l),
(400,1200,l),
(400,1300,l),
(300,1300,l)
);
},
{
closed = 1;
nodes = (
(200,900,l),
(300,900,l),
(300,1200,l),
(200,1200,l)
);
}
);
width = 1100;
}
);
unicode = 186;
},
{
glyphname = ae;
lastChange = "2024-07-21 02:17:15 +0000";
layers = (
{
layerId = m01;
shapes = (
{
closed = 1;
nodes = (
(400,200,l),
(300,200,l),
(300,100,l),
(400,100,l)
);
},
{
closed = 1;
nodes = (
(400,0,l),
(800,0,l),
(800,100,l),
(400,100,l)
);
},
{
closed = 1;
nodes = (
(300,300,l),
(200,300,l),
(200,200,l),
(300,200,l)
);
},
{
closed = 1;
nodes = (
(200,700,l),
(100,700,l),
(100,300,l),
(200,300,l)
);
},
{
closed = 1;
nodes = (
(200,700,l),
(300,700,l),
(300,800,l),
(200,800,l)
);
},
{
closed = 1;
nodes = (
(300,800,l),
(400,800,l),
(400,900,l),
(300,900,l)
);
},
{
closed = 1;
nodes = (
(400,900,l),
(1000,900,l),
(1000,300,l),
(900,300,l),
(900,200,l),
(1000,200,l),
(1000,0,l),
(1100,0,l),
(1100,200,l),
(1200,200,l),
(1200,300,l),
(1100,300,l),
(1100,500,l),
(1900,500,l),
(1900,700,l),
(1800,700,l),
(1800,600,l),
(1100,600,l),
(1100,700,l),
(1200,700,l),
(1200,800,l),
(1100,800,l),
(1100,1000,l),
(400,1000,l)
);
},
{
closed = 1;
nodes = (
(800,100,l),
(900,100,l),
(900,200,l),
(800,200,l)
);
},
{
closed = 1;
nodes = (
(1200,100,l),
(1300,100,l),
(1300,200,l),
(1200,200,l)
);
},
{
closed = 1;
nodes = (
(1300,0,l),
(1700,0,l),
(1700,100,l),
(1300,100,l)
);
},
{
closed = 1;
nodes = (
(1700,100,l),
(1800,100,l),
(1800,200,l),
(1700,200,l)
);
},
{
closed = 1;
nodes = (
(1800,200,l),
(1900,200,l),
(1900,300,l),
(1800,300,l)
);
},
{
closed = 1;
nodes = (
(1800,800,l),
(1700,800,l),
(1700,700,l),
(1800,700,l)
);
},
{
closed = 1;
nodes = (
(1700,900,l),
(1600,900,l),
(1600,800,l),
(1700,800,l)
);
},
{
closed = 1;
nodes = (
(1600,1000,l),
(1300,1000,l),
(1300,900,l),
(1600,900,l)
);
},
{
closed = 1;
nodes = (
(1200,800,l),
(1300,800,l),
(1300,900,l),
(1200,900,l)
);
}
);
width = 2000;
}
);
unicode = 230;
},
{
glyphname = oslash;
lastChange = "2024-07-21 02:17:20 +0000";
layers = (
{
layerId = m01;
shapes = (
{
closed = 1;
nodes = (
(100,300,l),
(200,300,l),
(200,700,l),
(100,700,l)
);
},
{
closed = 1;
nodes = (
(200,700,l),
(300,700,l),
(300,800,l),
(200,800,l)
);
},
{
closed = 1;
nodes = (
(300,800,l),
(400,800,l),
(400,900,l),
(300,900,l)
);
},
{
closed = 1;
nodes = (
(400,900,l),
(800,900,l),
(800,1000,l),
(400,1000,l)
);
},
{
closed = 1;
nodes = (
(800,800,l),
(900,800,l),
(900,900,l),
(800,900,l)
);
},
{
closed = 1;
nodes = (
(900,700,l),
(1000,700,l),
(1000,800,l),
(900,800,l)
);
},
{
closed = 1;
nodes = (
(1000,300,l),
(1100,300,l),
(1100,700,l),
(1000,700,l)
);
},
{
closed = 1;
nodes = (
(900,200,l),
(1000,200,l),
(1000,300,l),
(900,300,l)
);
},
{
closed = 1;
nodes = (
(800,100,l),
(900,100,l),
(900,200,l),
(800,200,l)
);
},
{
closed = 1;
nodes = (
(400,100,l),
(400,0,l),
(800,0,l),
(800,100,l)
);
},
{
closed = 1;
nodes = (
(400,200,l),
(300,200,l),
(300,100,l),
(400,100,l)
);
},
{
closed = 1;
nodes = (
(200,200,l),
(300,200,l),
(300,300,l),
(200,300,l)
);
},
{
closed = 1;
nodes = (
(200,0,l),
(300,0,l),
(300,100,l),
(200,100,l)
);
},
{
closed = 1;
nodes = (
(400,200,l),
(500,200,l),
(500,300,l),
(400,300,l)
);
},
{
closed = 1;
nodes = (
(500,300,l),
(600,300,l),
(600,400,l),
(500,400,l)
);
},
{
closed = 1;
nodes = (
(600,400,l),
(700,400,l),
(700,500,l),
(600,500,l)
);
},
{
closed = 1;
nodes = (
(700,500,l),
(800,500,l),
(800,600,l),
(700,600,l)
);
},
{
closed = 1;
nodes = (
(800,600,l),
(900,600,l),
(900,700,l),
(800,700,l)
);
},
{
closed = 1;
nodes = (
(1000,800,l),
(1100,800,l),
(1100,900,l),
(1000,900,l)
);
}
);
width = 1200;
}
);
unicode = 248;
},
{
glyphname = questiondown;
lastChange = "2024-07-21 02:01:06 +0000";
layers = (
{
layerId = m01;
shapes = (
{
closed = 1;
nodes = (
(200,200,l),
(300,200,l),
(300,500,l),
(200,500,l)
);
},
{
closed = 1;
nodes = (
(300,500,l),
(400,500,l),
(400,600,l),
(300,600,l)
);
},
{
closed = 1;
nodes = (
(400,600,l),
(500,600,l),
(500,700,l),
(400,700,l)
);
},
{
closed = 1;
nodes = (
(500,700,l),
(600,700,l),
(600,800,l),
(500,800,l)
);
},
{
closed = 1;
nodes = (
(600,800,l),
(700,800,l),
(700,1000,l),
(600,1000,l)
);
},
{
closed = 1;
nodes = (
(600,1200,l),
(700,1200,l),
(700,1400,l),
(600,1400,l)
);
},
{
closed = 1;
nodes = (
(300,100,l),
(400,100,l),
(400,200,l),
(300,200,l)
);
},
{
closed = 1;
nodes = (
(400,0,l),
(900,0,l),
(900,100,l),
(400,100,l)
);
},
{
closed = 1;
nodes = (
(900,100,l),
(1000,100,l),
(1000,200,l),
(900,200,l)
);
},
{
closed = 1;
nodes = (
(1000,200,l),
(1100,200,l),
(1100,400,l),
(1000,400,l)
);
}
);
width = 1300;
}
);
unicode = 191;
},
{
glyphname = exclamdown;
lastChange = "2024-07-21 02:17:28 +0000";
layers = (
{
layerId = m01;
shapes = (
{
closed = 1;
nodes = (
(200,0,l),
(300,0,l),
(300,1000,l),
(200,1000,l)
);
},
{
closed = 1;
nodes = (
(200,1200,l),
(300,1200,l),
(300,1400,l),
(200,1400,l)
);
}
);
width = 800;
}
);
unicode = 161;
},
{
glyphname = guillemetleft;
lastChange = "2024-07-21 02:17:35 +0000";
layers = (
{
layerId = m01;
shapes = (
{
closed = 1;
nodes = (
(500,200,l),
(400,200,l),
(400,100,l),
(500,100,l)
);
},
{
closed = 1;
nodes = (
(500,0,l),
(600,0,l),
(600,100,l),
(500,100,l)
);
},
{
closed = 1;
nodes = (
(400,300,l),
(300,300,l),
(300,200,l),
(400,200,l)
);
},
{
closed = 1;
nodes = (
(300,400,l),
(200,400,l),
(200,300,l),
(300,300,l)
);
},
{
closed = 1;
nodes = (
(200,500,l),
(100,500,l),
(100,400,l),
(200,400,l)
);
},
{
closed = 1;
nodes = (
(200,500,l),
(300,500,l),
(300,600,l),
(200,600,l)
);
},
{
closed = 1;
nodes = (
(300,600,l),
(400,600,l),
(400,700,l),
(300,700,l)
);
},
{
closed = 1;
nodes = (
(400,700,l),
(500,700,l),
(500,800,l),
(400,800,l)
);
},
{
closed = 1;
nodes = (
(500,800,l),
(600,800,l),
(600,900,l),
(500,900,l)
);
},
{
closed = 1;
nodes = (
(900,800,l),
(1000,800,l),
(1000,900,l),
(900,900,l)
);
},
{
closed = 1;
nodes = (
(800,700,l),
(900,700,l),
(900,800,l),
(800,800,l)
);
},
{
closed = 1;
nodes = (
(700,600,l),
(800,600,l),
(800,700,l),
(700,700,l)
);
},
{
closed = 1;
nodes = (
(600,500,l),
(700,500,l),
(700,600,l),
(600,600,l)
);
},
{
closed = 1;
nodes = (
(500,400,l),
(600,400,l),
(600,500,l),
(500,500,l)
);
},
{
closed = 1;
nodes = (
(600,300,l),
(700,300,l),
(700,400,l),
(600,400,l)
);
},
{
closed = 1;
nodes = (
(700,200,l),
(800,200,l),
(800,300,l),
(700,300,l)
);
},
{
closed = 1;
nodes = (
(800,100,l),
(900,100,l),
(900,200,l),
(800,200,l)
);
},
{
closed = 1;
nodes = (
(900,0,l),
(1000,0,l),
(1000,100,l),
(900,100,l)
);
}
);
width = 1400;
}
);
unicode = 171;
},
{
glyphname = guillemetright;
lastChange = "2024-07-21 02:17:40 +0000";
layers = (
{
layerId = m01;
shapes = (
{
closed = 1;
nodes = (
(400,0,l),
(500,0,l),
(500,100,l),
(400,100,l)
);
},
{
closed = 1;
nodes = (
(500,100,l),
(600,100,l),
(600,200,l),
(500,200,l)
);
},
{
closed = 1;
nodes = (
(600,200,l),
(700,200,l),
(700,300,l),
(600,300,l)
);
},
{
closed = 1;
nodes = (
(700,300,l),
(800,300,l),
(800,400,l),
(700,400,l)
);
},
{
closed = 1;
nodes = (
(800,600,l),
(700,600,l),
(700,500,l),
(800,500,l)
);
},
{
closed = 1;
nodes = (
(800,400,l),
(900,400,l),
(900,500,l),
(800,500,l)
);
},
{
closed = 1;
nodes = (
(700,700,l),
(600,700,l),
(600,600,l),
(700,600,l)
);
},
{
closed = 1;
nodes = (
(600,800,l),
(500,800,l),
(500,700,l),
(600,700,l)
);
},
{
closed = 1;
nodes = (
(500,900,l),
(400,900,l),
(400,800,l),
(500,800,l)
);
},
{
closed = 1;
nodes = (
(800,800,l),
(900,800,l),
(900,900,l),
(800,900,l)
);
},
{
closed = 1;
nodes = (
(900,700,l),
(1000,700,l),
(1000,800,l),
(900,800,l)
);
},
{
closed = 1;
nodes = (
(1000,600,l),
(1100,600,l),
(1100,700,l),
(1000,700,l)
);
},
{
closed = 1;
nodes = (
(1100,500,l),
(1200,500,l),
(1200,600,l),
(1100,600,l)
);
},
{
closed = 1;
nodes = (
(1200,400,l),
(1300,400,l),
(1300,500,l),
(1200,500,l)
);
},
{
closed = 1;
nodes = (
(1100,300,l),
(1200,300,l),
(1200,400,l),
(1100,400,l)
);
},
{
closed = 1;
nodes = (
(1000,200,l),
(1100,200,l),
(1100,300,l),
(1000,300,l)
);
},
{
closed = 1;
nodes = (
(900,100,l),
(1000,100,l),
(1000,200,l),
(900,200,l)
);
},
{
closed = 1;
nodes = (
(800,0,l),
(900,0,l),
(900,100,l),
(800,100,l)
);
}
);
width = 1400;
}
);
unicode = 187;
},
{
glyphname = ellipsis;
lastChange = "2024-07-21 02:17:43 +0000";
layers = (
{
layerId = m01;
shapes = (
{
closed = 1;
nodes = (
(800,0,l),
(900,0,l),
(900,200,l),
(800,200,l)
);
},
{
closed = 1;
nodes = (
(1300,0,l),
(1400,0,l),
(1400,200,l),
(1300,200,l)
);
},
{
closed = 1;
nodes = (
(300,0,l),
(400,0,l),
(400,200,l),
(300,200,l)
);
}
);
width = 1600;
}
);
unicode = 8230;
},
{
glyphname = Agrave;
lastChange = "2024-07-21 02:17:49 +0000";
layers = (
{
layerId = m01;
shapes = (
{
closed = 1;
nodes = (
(100,0,l),
(600,0,l),
(600,100,l),
(400,100,l),
(400,300,l),
(300,300,l),
(300,100,l),
(100,100,l)
);
},
{
closed = 1;
nodes = (
(400,300,l),
(500,300,l),
(500,500,l),
(1200,500,l),
(1200,300,l),
(1300,300,l),
(1300,600,l),
(1200,600,l),
(1200,800,l),
(1100,800,l),
(1100,600,l),
(600,600,l),
(600,800,l),
(500,800,l),
(500,600,l),
(400,600,l)
);
},
{
closed = 1;
nodes = (
(600,800,l),
(700,800,l),
(700,1000,l),
(600,1000,l)
);
},
{
closed = 1;
nodes = (
(700,1000,l),
(800,1000,l),
(800,1200,l),
(700,1200,l)
);
},
{
closed = 1;
nodes = (
(800,1200,l),
(900,1200,l),
(900,1400,l),
(800,1400,l)
);
},
{
closed = 1;
nodes = (
(900,1000,l),
(1000,1000,l),
(1000,1200,l),
(900,1200,l)
);
},
{
closed = 1;
nodes = (
(1000,800,l),
(1100,800,l),
(1100,1000,l),
(1000,1000,l)
);
},
{
closed = 1;
nodes = (
(1300,100,l),
(1100,100,l),
(1100,0,l),
(1600,0,l),
(1600,100,l),
(1400,100,l),
(1400,300,l),
(1300,300,l)
);
},
{
closed = 1;
nodes = (
(900,1700,l),
(800,1700,l),
(800,1600,l),
(900,1600,l)
);
},
{
closed = 1;
nodes = (
(900,1500,l),
(1000,1500,l),
(1000,1600,l),
(900,1600,l)
);
},
{
closed = 1;
nodes = (
(800,1800,l),
(700,1800,l),
(700,1700,l),
(800,1700,l)
);
}
);
width = 1800;
}
);
unicode = 192;
},
{
glyphname = Atilde;
lastChange = "2024-07-21 02:17:49 +0000";
layers = (
{
layerId = m01;
shapes = (
{
closed = 1;
nodes = (
(100,0,l),
(600,0,l),
(600,100,l),
(400,100,l),
(400,300,l),
(300,300,l),
(300,100,l),
(100,100,l)
);
},
{
closed = 1;
nodes = (
(400,300,l),
(500,300,l),
(500,500,l),
(1200,500,l),
(1200,300,l),
(1300,300,l),
(1300,600,l),
(1200,600,l),
(1200,800,l),
(1100,800,l),
(1100,600,l),
(600,600,l),
(600,800,l),
(500,800,l),
(500,600,l),
(400,600,l)
);
},
{
closed = 1;
nodes = (
(600,800,l),
(700,800,l),
(700,1000,l),
(600,1000,l)
);
},
{
closed = 1;
nodes = (
(700,1000,l),
(800,1000,l),
(800,1200,l),
(700,1200,l)
);
},
{
closed = 1;
nodes = (
(800,1200,l),
(900,1200,l),
(900,1400,l),
(800,1400,l)
);
},
{
closed = 1;
nodes = (
(900,1000,l),
(1000,1000,l),
(1000,1200,l),
(900,1200,l)
);
},
{
closed = 1;
nodes = (
(1000,800,l),
(1100,800,l),
(1100,1000,l),
(1000,1000,l)
);
},
{
closed = 1;
nodes = (
(1300,100,l),
(1100,100,l),
(1100,0,l),
(1600,0,l),
(1600,100,l),
(1400,100,l),
(1400,300,l),
(1300,300,l)
);
},
{
closed = 1;
nodes = (
(700,1800,l),
(700,1700,l),
(900,1700,l),
(900,1800,l)
);
},
{
closed = 1;
nodes = (
(900,1600,l),
(1100,1600,l),
(1100,1700,l),
(900,1700,l)
);
},
{
closed = 1;
nodes = (
(1100,1700,l),
(1200,1700,l),
(1200,1800,l),
(1100,1800,l)
);
},
{
closed = 1;
nodes = (
(600,1600,l),
(700,1600,l),
(700,1700,l),
(600,1700,l)
);
}
);
width = 1800;
}
);
unicode = 195;
},
{
glyphname = Otilde;
lastChange = "2024-07-21 02:01:06 +0000";
layers = (
{
layerId = m01;
shapes = (
{
closed = 1;
nodes = (
(200,400,l),
(300,400,l),
(300,1000,l),
(200,1000,l)
);
},
{
closed = 1;
nodes = (
(300,1000,l),
(400,1000,l),
(400,1200,l),
(300,1200,l)
);
},
{
closed = 1;
nodes = (
(400,1200,l),
(600,1200,l),
(600,1300,l),
(400,1300,l)
);
},
{
closed = 1;
nodes = (
(600,1300,l),
(1000,1300,l),
(1000,1400,l),
(600,1400,l)
);
},
{
closed = 1;
nodes = (
(1000,1200,l),
(1200,1200,l),
(1200,1300,l),
(1000,1300,l)
);
},
{
closed = 1;
nodes = (
(1200,1000,l),
(1300,1000,l),
(1300,1200,l),
(1200,1200,l)
);
},
{
closed = 1;
nodes = (
(1300,400,l),
(1400,400,l),
(1400,1000,l),
(1300,1000,l)
);
},
{
closed = 1;
nodes = (
(1200,200,l),
(1300,200,l),
(1300,400,l),
(1200,400,l)
);
},
{
closed = 1;
nodes = (
(1000,200,l),
(1000,100,l),
(1200,100,l),
(1200,200,l)
);
},
{
closed = 1;
nodes = (
(600,100,l),
(600,0,l),
(1000,0,l),
(1000,100,l)
);
},
{
closed = 1;
nodes = (
(600,200,l),
(400,200,l),
(400,100,l),
(600,100,l)
);
},
{
closed = 1;
nodes = (
(400,400,l),
(300,400,l),
(300,200,l),
(400,200,l)
);
},
{
closed = 1;
nodes = (
(500,1600,l),
(600,1600,l),
(600,1700,l),
(500,1700,l)
);
},
{
closed = 1;
nodes = (
(600,1700,l),
(800,1700,l),
(800,1800,l),
(600,1800,l)
);
},
{
closed = 1;
nodes = (
(800,1600,l),
(1000,1600,l),
(1000,1700,l),
(800,1700,l)
);
},
{
closed = 1;
nodes = (
(1000,1700,l),
(1100,1700,l),
(1100,1800,l),
(1000,1800,l)
);
}
);
width = 1600;
}
);
unicode = 213;
},
{
glyphname = OE;
lastChange = "2024-07-21 02:01:06 +0000";
layers = (
{
layerId = m01;
shapes = (
{
closed = 1;
nodes = (
(200,400,l),
(300,400,l),
(300,1000,l),
(200,1000,l)
);
},
{
closed = 1;
nodes = (
(300,1000,l),
(400,1000,l),
(400,1200,l),
(300,1200,l)
);
},
{
closed = 1;
nodes = (
(400,1200,l),
(600,1200,l),
(600,1300,l),
(400,1300,l)
);
},
{
closed = 1;
nodes = (
(600,1400,l),
(600,1300,l),
(900,1300,l),
(900,1400,l)
);
},
{
closed = 1;
nodes = (
(900,1200,l),
(1100,1200,l),
(1100,200,l),
(900,200,l),
(900,100,l),
(1100,100,l),
(1100,0,l),
(2000,0,l),
(2000,300,l),
(1900,300,l),
(1900,100,l),
(1200,100,l),
(1200,700,l),
(1500,700,l),
(1500,600,l),
(1600,600,l),
(1600,900,l),
(1500,900,l),
(1500,800,l),
(1200,800,l),
(1200,1300,l),
(1900,1300,l),
(1900,1100,l),
(2000,1100,l),
(2000,1400,l),
(1100,1400,l),
(1100,1300,l),
(900,1300,l)
);
},
{
closed = 1;
nodes = (
(300,200,l),
(400,200,l),
(400,400,l),
(300,400,l)
);
},
{
closed = 1;
nodes = (
(400,100,l),
(600,100,l),
(600,200,l),
(400,200,l)
);
},
{
closed = 1;
nodes = (
(600,0,l),
(900,0,l),
(900,100,l),
(600,100,l)
);
}
);
width = 2200;
}
);
unicode = 338;
},
{
glyphname = oe;
lastChange = "2024-07-21 02:18:31 +0000";
layers = (
{
layerId = m01;
shapes = (
{
closed = 1;
nodes = (
(0,300,l),
(100,300,l),
(100,700,l),
(0,700,l)
);
},
{
closed = 1;
nodes = (
(100,700,l),
(200,700,l),
(200,800,l),
(100,800,l)
);
},
{
closed = 1;
nodes = (
(200,800,l),
(300,800,l),
(300,900,l),
(200,900,l)
);
},
{
closed = 1;
nodes = (
(300,900,l),
(700,900,l),
(700,1000,l),
(300,1000,l)
);
},
{
closed = 1;
nodes = (
(700,800,l),
(800,800,l),
(800,900,l),
(700,900,l)
);
},
{
closed = 1;
nodes = (
(800,700,l),
(900,700,l),
(900,800,l),
(800,800,l)
);
},
{
closed = 1;
nodes = (
(900,300,l),
(1000,300,l),
(1000,500,l),
(1900,500,l),
(1900,700,l),
(1800,700,l),
(1800,600,l),
(1000,600,l),
(1000,700,l),
(900,700,l)
);
},
{
closed = 1;
nodes = (
(800,200,l),
(900,200,l),
(900,300,l),
(800,300,l)
);
},
{
closed = 1;
nodes = (
(700,100,l),
(800,100,l),
(800,200,l),
(700,200,l)
);
},
{
closed = 1;
nodes = (
(300,100,l),
(300,0,l),
(700,0,l),
(700,100,l)
);
},
{
closed = 1;
nodes = (
(300,200,l),
(200,200,l),
(200,100,l),
(300,100,l)
);
},
{
closed = 1;
nodes = (
(100,200,l),
(200,200,l),
(200,300,l),
(100,300,l)
);
},
{
closed = 1;
nodes = (
(1000,700,l),
(1100,700,l),
(1100,800,l),
(1000,800,l)
);
},
{
closed = 1;
nodes = (
(1100,800,l),
(1200,800,l),
(1200,900,l),
(1100,900,l)
);
},
{
closed = 1;
nodes = (
(1200,900,l),
(1600,900,l),
(1600,1000,l),
(1200,1000,l)
);
},
{
closed = 1;
nodes = (
(1600,800,l),
(1700,800,l),
(1700,900,l),
(1600,900,l)
);
},
{
closed = 1;
nodes = (
(1700,700,l),
(1800,700,l),
(1800,800,l),
(1700,800,l)
);
},
{
closed = 1;
nodes = (
(1000,200,l),
(1100,200,l),
(1100,300,l),
(1000,300,l)
);
},
{
closed = 1;
nodes = (
(1100,100,l),
(1200,100,l),
(1200,200,l),
(1100,200,l)
);
},
{
closed = 1;
nodes = (
(1200,100,l),
(1200,0,l),
(1600,0,l),
(1600,100,l)
);
},
{
closed = 1;
nodes = (
(1600,100,l),
(1700,100,l),
(1700,200,l),
(1600,200,l)
);
},
{
closed = 1;
nodes = (
(1700,200,l),
(1800,200,l),
(1800,300,l),
(1700,300,l)
);
}
);
width = 2000;
}
);
unicode = 339;
},
{
glyphname = hyphen;
lastChange = "2024-07-21 02:01:06 +0000";
layers = (
{
layerId = m01;
shapes = (
{
closed = 1;
nodes = (
(200,600,l),
(1000,600,l),
(1000,700,l),
(200,700,l)
);
}
);
width = 1200;
}
);
unicode = 45;
},
{
glyphname = emdash;
lastChange = "2024-07-21 02:18:39 +0000";
layers = (
{
layerId = m01;
shapes = (
{
closed = 1;
nodes = (
(0,600,l),
(1100,600,l),
(1100,700,l),
(0,700,l)
);
}
);
width = 1200;
}
);
unicode = 8212;
},
{
glyphname = quotedblleft;
lastChange = "2024-07-21 02:18:45 +0000";
layers = (
{
layerId = m01;
shapes = (
{
closed = 1;
nodes = (
(300,1200,l),
(200,1200,l),
(200,900,l),
(400,900,l),
(400,1000,l),
(300,1000,l)
);
},
{
closed = 1;
nodes = (
(300,1200,l),
(400,1200,l),
(400,1300,l),
(300,1300,l)
);
},
{
closed = 1;
nodes = (
(700,1200,l),
(800,1200,l),
(800,1300,l),
(700,1300,l)
);
},
{
closed = 1;
nodes = (
(600,900,l),
(800,900,l),
(800,1000,l),
(700,1000,l),
(700,1200,l),
(600,1200,l)
);
}
);
width = 1100;
}
);
unicode = 8220;
},
{
glyphname = quotedblright;
lastChange = "2024-07-21 02:18:49 +0000";
layers = (
{
layerId = m01;
shapes = (
{
closed = 1;
nodes = (
(300,1200,l),
(400,1200,l),
(400,1000,l),
(500,1000,l),
(500,1300,l),
(300,1300,l)
);
},
{
closed = 1;
nodes = (
(300,900,l),
(400,900,l),
(400,1000,l),
(300,1000,l)
);
},
{
closed = 1;
nodes = (
(700,1200,l),
(800,1200,l),
(800,1000,l),
(900,1000,l),
(900,1300,l),
(700,1300,l)
);
},
{
closed = 1;
nodes = (
(700,900,l),
(800,900,l),
(800,1000,l),
(700,1000,l)
);
}
);
width = 1100;
}
);
unicode = 8221;
},
{
glyphname = quoteleft;
lastChange = "2024-07-21 02:18:53 +0000";
layers = (
{
layerId = m01;
shapes = (
{
closed = 1;
nodes = (
(300,1200,l),
(200,1200,l),
(200,900,l),
(400,900,l),
(400,1000,l),
(300,1000,l)
);
},
{
closed = 1;
nodes = (
(300,1200,l),
(400,1200,l),
(400,1300,l),
(300,1300,l)
);
}
);
width = 800;
}
);
unicode = 8216;
},
{
glyphname = quoteright;
lastChange = "2024-07-21 02:18:58 +0000";
layers = (
{
layerId = m01;
shapes = (
{
closed = 1;
nodes = (
(300,1200,l),
(400,1200,l),
(400,1000,l),
(500,1000,l),
(500,1300,l),
(300,1300,l)
);
},
{
closed = 1;
nodes = (
(300,900,l),
(400,900,l),
(400,1000,l),
(300,1000,l)
);
}
);
width = 800;
}
);
unicode = 8217;
},
{
glyphname = lozenge;
lastChange = "2024-07-21 02:19:02 +0000";
layers = (
{
layerId = m01;
shapes = (
{
closed = 1;
nodes = (
(700,200,l),
(600,200,l),
(600,100,l),
(700,100,l)
);
},
{
closed = 1;
nodes = (
(700,0,l),
(800,0,l),
(800,100,l),
(700,100,l)
);
},
{
closed = 1;
nodes = (
(600,300,l),
(500,300,l),
(500,200,l),
(600,200,l)
);
},
{
closed = 1;
nodes = (
(500,400,l),
(400,400,l),
(400,300,l),
(500,300,l)
);
},
{
closed = 1;
nodes = (
(400,500,l),
(300,500,l),
(300,400,l),
(400,400,l)
);
},
{
closed = 1;
nodes = (
(300,600,l),
(200,600,l),
(200,500,l),
(300,500,l)
);
},
{
closed = 1;
nodes = (
(200,700,l),
(100,700,l),
(100,600,l),
(200,600,l)
);
},
{
closed = 1;
nodes = (
(200,700,l),
(300,700,l),
(300,800,l),
(200,800,l)
);
},
{
closed = 1;
nodes = (
(300,800,l),
(400,800,l),
(400,900,l),
(300,900,l)
);
},
{
closed = 1;
nodes = (
(400,900,l),
(500,900,l),
(500,1000,l),
(400,1000,l)
);
},
{
closed = 1;
nodes = (
(500,1000,l),
(600,1000,l),
(600,1100,l),
(500,1100,l)
);
},
{
closed = 1;
nodes = (
(600,1100,l),
(700,1100,l),
(700,1200,l),
(600,1200,l)
);
},
{
closed = 1;
nodes = (
(700,1200,l),
(800,1200,l),
(800,1300,l),
(700,1300,l)
);
},
{
closed = 1;
nodes = (
(800,1100,l),
(900,1100,l),
(900,1200,l),
(800,1200,l)
);
},
{
closed = 1;
nodes = (
(900,1000,l),
(1000,1000,l),
(1000,1100,l),
(900,1100,l)
);
},
{
closed = 1;
nodes = (
(1000,900,l),
(1100,900,l),
(1100,1000,l),
(1000,1000,l)
);
},
{
closed = 1;
nodes = (
(1100,800,l),
(1200,800,l),
(1200,900,l),
(1100,900,l)
);
},
{
closed = 1;
nodes = (
(1200,700,l),
(1300,700,l),
(1300,800,l),
(1200,800,l)
);
},
{
closed = 1;
nodes = (
(1300,600,l),
(1400,600,l),
(1400,700,l),
(1300,700,l)
);
},
{
closed = 1;
nodes = (
(1200,500,l),
(1300,500,l),
(1300,600,l),
(1200,600,l)
);
},
{
closed = 1;
nodes = (
(1100,400,l),
(1200,400,l),
(1200,500,l),
(1100,500,l)
);
},
{
closed = 1;
nodes = (
(1000,300,l),
(1100,300,l),
(1100,400,l),
(1000,400,l)
);
},
{
closed = 1;
nodes = (
(900,200,l),
(1000,200,l),
(1000,300,l),
(900,300,l)
);
},
{
closed = 1;
nodes = (
(800,100,l),
(900,100,l),
(900,200,l),
(800,200,l)
);
}
);
width = 1600;
}
);
unicode = 9674;
},
{
glyphname = ydieresis;
lastChange = "2024-07-21 02:19:07 +0000";
layers = (
{
layerId = m01;
shapes = (
{
closed = 1;
nodes = (
(100,900,l),
(300,900,l),
(300,200,l),
(400,200,l),
(400,900,l),
(600,900,l),
(600,1000,l),
(100,1000,l)
);
},
{
closed = 1;
nodes = (
(400,100,l),
(500,100,l),
(500,200,l),
(400,200,l)
);
},
{
closed = 1;
nodes = (
(500,0,l),
(900,0,l),
(900,100,l),
(500,100,l)
);
},
{
closed = 1;
nodes = (
(900,100,l),
(1000,100,l),
(1000,200,l),
(900,200,l)
);
},
{
closed = 1;
nodes = (
(1000,200,l),
(1100,200,l),
(1100,-200,l),
(1200,-200,l),
(1200,900,l),
(1400,900,l),
(1400,1000,l),
(900,1000,l),
(900,900,l),
(1100,900,l),
(1100,300,l),
(1000,300,l)
);
},
{
closed = 1;
nodes = (
(1000,-300,l),
(1100,-300,l),
(1100,-200,l),
(1000,-200,l)
);
},
{
closed = 1;
nodes = (
(500,-300,l),
(500,-400,l),
(1000,-400,l),
(1000,-300,l)
);
},
{
closed = 1;
nodes = (
(500,-200,l),
(400,-200,l),
(400,-300,l),
(500,-300,l)
);
},
{
closed = 1;
nodes = (
(400,1200,l),
(500,1200,l),
(500,1300,l),
(400,1300,l)
);
},
{
closed = 1;
nodes = (
(900,1200,l),
(1000,1200,l),
(1000,1300,l),
(900,1300,l)
);
}
);
width = 1600;
}
);
unicode = 255;
},
{
glyphname = .notdef;
lastChange = "2024-07-21 02:01:06 +0000";
layers = (
{
layerId = m01;
shapes = (
{
closed = 1;
nodes = (
(300,1300,l),
(1400,1300,l),
(1400,100,l),
(300,100,l)
);
},
{
closed = 1;
nodes = (
(200,1400,l),
(200,0,l),
(1500,0,l),
(1500,1400,l)
);
}
);
width = 1700;
}
);
},
{
glyphname = pixel;
lastChange = "2024-07-21 01:50:35 +0000";
layers = (
{
layerId = m01;
shapes = (
{
closed = 1;
nodes = (
(0,0,l),
(100,0,l),
(100,100,l),
(0,100,l)
);
}
